<ttFont>
    <TTGlyph name=".notdef" xMin="120" yMin="0" xMax="480" yMax="582">
      <contour>
        <pt x="170" y="536" on="1"/>
        <pt x="170" y="46" on="1"/>
        <pt x="430" y="46" on="1"/>
        <pt x="430" y="536" on="1"/>
      </contour>
      <contour>
        <pt x="120" y="0" on="1"/>
        <pt x="120" y="582" on="1"/>
        <pt x="480" y="582" on="1"/>
        <pt x="480" y="0" on="1"/>
      </contour>
    </TTGlyph>
    <TTGlyph name="A" xMin="31" yMin="0" xMax="495" yMax="643">
      <contour>
        <pt x="51" y="0" on="1"/>
        <pt x="37" y="0" on="1"/>
        <pt x="28" y="0" on="0"/>
        <pt x="31" y="9" on="1"/>
        <pt x="241" y="634" on="1"/>
        <pt x="244" y="643" on="0"/>
        <pt x="251" y="643" on="1"/>
        <pt x="275" y="643" on="1"/>
        <pt x="282" y="643" on="0"/>
        <pt x="285" y="634" on="1"/>
        <pt x="495" y="9" on="1"/>
        <pt x="498" y="0" on="0"/>
        <pt x="489" y="0" on="1"/>
        <pt x="474" y="0" on="1"/>
        <pt x="467" y="0" on="0"/>
        <pt x="464" y="9" on="1"/>
        <pt x="403" y="183" on="1"/>
        <pt x="123" y="183" on="1"/>
        <pt x="62" y="9" on="1"/>
        <pt x="58" y="0" on="0"/>
      </contour>
      <contour>
        <pt x="261" y="605" on="1"/>
        <pt x="134" y="213" on="1"/>
        <pt x="392" y="213" on="1"/>
        <pt x="265" y="605" on="1"/>
      </contour>
    </TTGlyph>
    <TTGlyph name="AE" xMin="1" yMin="0" xMax="701" yMax="643">
      <contour>
        <pt x="24" y="0" on="1"/>
        <pt x="5" y="0" on="1"/>
        <pt x="-4" y="0" on="0"/>
        <pt x="1" y="9" on="1"/>
        <pt x="356" y="634" on="1"/>
        <pt x="361" y="643" on="0"/>
        <pt x="370" y="643" on="1"/>
        <pt x="692" y="643" on="1"/>
        <pt x="701" y="643" on="0"/>
        <pt x="701" y="635" on="1"/>
        <pt x="701" y="623" on="1"/>
        <pt x="701" y="615" on="0"/>
        <pt x="692" y="615" on="1"/>
        <pt x="419" y="615" on="1"/>
        <pt x="410" y="615" on="0"/>
        <pt x="410" y="607" on="1"/>
        <pt x="410" y="350" on="1"/>
        <pt x="410" y="342" on="0"/>
        <pt x="419" y="342" on="1"/>
        <pt x="666" y="342" on="1"/>
        <pt x="675" y="342" on="0"/>
        <pt x="675" y="334" on="1"/>
        <pt x="675" y="322" on="1"/>
        <pt x="675" y="314" on="0"/>
        <pt x="666" y="314" on="1"/>
        <pt x="419" y="314" on="1"/>
        <pt x="410" y="314" on="0"/>
        <pt x="410" y="306" on="1"/>
        <pt x="410" y="36" on="1"/>
        <pt x="410" y="28" on="0"/>
        <pt x="419" y="28" on="1"/>
        <pt x="692" y="28" on="1"/>
        <pt x="701" y="28" on="0"/>
        <pt x="701" y="20" on="1"/>
        <pt x="701" y="8" on="1"/>
        <pt x="701" y="0" on="0"/>
        <pt x="692" y="0" on="1"/>
        <pt x="388" y="0" on="1"/>
        <pt x="380" y="0" on="0"/>
        <pt x="380" y="9" on="1"/>
        <pt x="380" y="183" on="1"/>
        <pt x="135" y="183" on="1"/>
        <pt x="36" y="9" on="1"/>
        <pt x="31" y="0" on="0"/>
      </contour>
      <contour>
        <pt x="380" y="213" on="1"/>
        <pt x="380" y="607" on="1"/>
        <pt x="376" y="607" on="1"/>
        <pt x="152" y="213" on="1"/>
      </contour>
    </TTGlyph>
    <TTGlyph name="AEacute" xMin="1" yMin="0" xMax="701" yMax="836">
      <contour>
        <pt x="485" y="836" on="1"/>
        <pt x="515" y="836" on="1"/>
        <pt x="519" y="836" on="0"/>
        <pt x="522" y="831" on="0"/>
        <pt x="519" y="827" on="1"/>
        <pt x="427" y="715" on="1"/>
        <pt x="421" y="707" on="0"/>
        <pt x="413" y="707" on="1"/>
        <pt x="405" y="707" on="1"/>
        <pt x="397" y="707" on="0"/>
        <pt x="402" y="716" on="1"/>
        <pt x="470" y="827" on="1"/>
        <pt x="474" y="836" on="0"/>
      </contour>
      <contour>
        <pt x="24" y="0" on="1"/>
        <pt x="5" y="0" on="1"/>
        <pt x="-4" y="0" on="0"/>
        <pt x="1" y="9" on="1"/>
        <pt x="356" y="634" on="1"/>
        <pt x="361" y="643" on="0"/>
        <pt x="370" y="643" on="1"/>
        <pt x="692" y="643" on="1"/>
        <pt x="701" y="643" on="0"/>
        <pt x="701" y="635" on="1"/>
        <pt x="701" y="623" on="1"/>
        <pt x="701" y="615" on="0"/>
        <pt x="692" y="615" on="1"/>
        <pt x="419" y="615" on="1"/>
        <pt x="410" y="615" on="0"/>
        <pt x="410" y="607" on="1"/>
        <pt x="410" y="350" on="1"/>
        <pt x="410" y="342" on="0"/>
        <pt x="419" y="342" on="1"/>
        <pt x="666" y="342" on="1"/>
        <pt x="675" y="342" on="0"/>
        <pt x="675" y="334" on="1"/>
        <pt x="675" y="322" on="1"/>
        <pt x="675" y="314" on="0"/>
        <pt x="666" y="314" on="1"/>
        <pt x="419" y="314" on="1"/>
        <pt x="410" y="314" on="0"/>
        <pt x="410" y="306" on="1"/>
        <pt x="410" y="36" on="1"/>
        <pt x="410" y="28" on="0"/>
        <pt x="419" y="28" on="1"/>
        <pt x="692" y="28" on="1"/>
        <pt x="701" y="28" on="0"/>
        <pt x="701" y="20" on="1"/>
        <pt x="701" y="8" on="1"/>
        <pt x="701" y="0" on="0"/>
        <pt x="692" y="0" on="1"/>
        <pt x="388" y="0" on="1"/>
        <pt x="380" y="0" on="0"/>
        <pt x="380" y="9" on="1"/>
        <pt x="380" y="183" on="1"/>
        <pt x="135" y="183" on="1"/>
        <pt x="36" y="9" on="1"/>
        <pt x="31" y="0" on="0"/>
      </contour>
      <contour>
        <pt x="380" y="213" on="1"/>
        <pt x="380" y="607" on="1"/>
        <pt x="376" y="607" on="1"/>
        <pt x="152" y="213" on="1"/>
      </contour>
    </TTGlyph>
    <TTGlyph name="Aacute" xMin="31" yMin="0" xMax="495" yMax="836">
      <contour>
        <pt x="344" y="836" on="1"/>
        <pt x="374" y="836" on="1"/>
        <pt x="378" y="836" on="0"/>
        <pt x="381" y="831" on="0"/>
        <pt x="378" y="827" on="1"/>
        <pt x="286" y="715" on="1"/>
        <pt x="280" y="707" on="0"/>
        <pt x="272" y="707" on="1"/>
        <pt x="264" y="707" on="1"/>
        <pt x="256" y="707" on="0"/>
        <pt x="261" y="716" on="1"/>
        <pt x="329" y="827" on="1"/>
        <pt x="334" y="836" on="0"/>
      </contour>
      <contour>
        <pt x="51" y="0" on="1"/>
        <pt x="37" y="0" on="1"/>
        <pt x="28" y="0" on="0"/>
        <pt x="31" y="9" on="1"/>
        <pt x="241" y="634" on="1"/>
        <pt x="244" y="643" on="0"/>
        <pt x="251" y="643" on="1"/>
        <pt x="275" y="643" on="1"/>
        <pt x="282" y="643" on="0"/>
        <pt x="285" y="634" on="1"/>
        <pt x="495" y="9" on="1"/>
        <pt x="498" y="0" on="0"/>
        <pt x="489" y="0" on="1"/>
        <pt x="474" y="0" on="1"/>
        <pt x="467" y="0" on="0"/>
        <pt x="464" y="9" on="1"/>
        <pt x="403" y="183" on="1"/>
        <pt x="123" y="183" on="1"/>
        <pt x="62" y="9" on="1"/>
        <pt x="58" y="0" on="0"/>
      </contour>
      <contour>
        <pt x="261" y="605" on="1"/>
        <pt x="134" y="213" on="1"/>
        <pt x="392" y="213" on="1"/>
        <pt x="265" y="605" on="1"/>
      </contour>
    </TTGlyph>
    <TTGlyph name="Abreve" xMin="31" yMin="0" xMax="495" yMax="836">
      <contour>
        <pt x="167" y="827" on="1"/>
        <pt x="167" y="836" on="0"/>
        <pt x="175" y="836" on="1"/>
        <pt x="185" y="836" on="1"/>
        <pt x="193" y="836" on="0"/>
        <pt x="193" y="827" on="1"/>
        <pt x="193" y="815" on="1"/>
        <pt x="193" y="768" on="0"/>
        <pt x="223" y="729" on="0"/>
        <pt x="260" y="729" on="1"/>
        <pt x="264" y="729" on="1"/>
        <pt x="303" y="729" on="0"/>
        <pt x="334" y="768" on="0"/>
        <pt x="334" y="815" on="1"/>
        <pt x="334" y="826" on="1"/>
        <pt x="334" y="835" on="0"/>
        <pt x="342" y="835" on="1"/>
        <pt x="350" y="835" on="1"/>
        <pt x="358" y="835" on="0"/>
        <pt x="358" y="826" on="1"/>
        <pt x="358" y="814" on="1"/>
        <pt x="358" y="758" on="0"/>
        <pt x="312" y="707" on="0"/>
        <pt x="264" y="707" on="1"/>
        <pt x="260" y="707" on="1"/>
        <pt x="212" y="707" on="0"/>
        <pt x="167" y="758" on="0"/>
        <pt x="167" y="814" on="1"/>
      </contour>
      <contour>
        <pt x="51" y="0" on="1"/>
        <pt x="37" y="0" on="1"/>
        <pt x="28" y="0" on="0"/>
        <pt x="31" y="9" on="1"/>
        <pt x="241" y="634" on="1"/>
        <pt x="244" y="643" on="0"/>
        <pt x="251" y="643" on="1"/>
        <pt x="275" y="643" on="1"/>
        <pt x="282" y="643" on="0"/>
        <pt x="285" y="634" on="1"/>
        <pt x="495" y="9" on="1"/>
        <pt x="498" y="0" on="0"/>
        <pt x="489" y="0" on="1"/>
        <pt x="474" y="0" on="1"/>
        <pt x="467" y="0" on="0"/>
        <pt x="464" y="9" on="1"/>
        <pt x="403" y="183" on="1"/>
        <pt x="123" y="183" on="1"/>
        <pt x="62" y="9" on="1"/>
        <pt x="58" y="0" on="0"/>
      </contour>
      <contour>
        <pt x="261" y="605" on="1"/>
        <pt x="134" y="213" on="1"/>
        <pt x="392" y="213" on="1"/>
        <pt x="265" y="605" on="1"/>
      </contour>
    </TTGlyph>
    <TTGlyph name="Acircumflex" xMin="31" yMin="0" xMax="495" yMax="836">
      <contour>
        <pt x="347" y="707" on="1"/>
        <pt x="333" y="707" on="1"/>
        <pt x="324" y="707" on="0"/>
        <pt x="322" y="712" on="1"/>
        <pt x="263" y="817" on="1"/>
        <pt x="204" y="712" on="1"/>
        <pt x="202" y="707" on="0"/>
        <pt x="193" y="707" on="1"/>
        <pt x="179" y="707" on="1"/>
        <pt x="168" y="707" on="0"/>
        <pt x="175" y="718" on="1"/>
        <pt x="239" y="827" on="1"/>
        <pt x="245" y="836" on="0"/>
        <pt x="258" y="836" on="1"/>
        <pt x="268" y="836" on="1"/>
        <pt x="281" y="836" on="0"/>
        <pt x="287" y="827" on="1"/>
        <pt x="351" y="718" on="1"/>
        <pt x="358" y="707" on="0"/>
      </contour>
      <contour>
        <pt x="51" y="0" on="1"/>
        <pt x="37" y="0" on="1"/>
        <pt x="28" y="0" on="0"/>
        <pt x="31" y="9" on="1"/>
        <pt x="241" y="634" on="1"/>
        <pt x="244" y="643" on="0"/>
        <pt x="251" y="643" on="1"/>
        <pt x="275" y="643" on="1"/>
        <pt x="282" y="643" on="0"/>
        <pt x="285" y="634" on="1"/>
        <pt x="495" y="9" on="1"/>
        <pt x="498" y="0" on="0"/>
        <pt x="489" y="0" on="1"/>
        <pt x="474" y="0" on="1"/>
        <pt x="467" y="0" on="0"/>
        <pt x="464" y="9" on="1"/>
        <pt x="403" y="183" on="1"/>
        <pt x="123" y="183" on="1"/>
        <pt x="62" y="9" on="1"/>
        <pt x="58" y="0" on="0"/>
      </contour>
      <contour>
        <pt x="261" y="605" on="1"/>
        <pt x="134" y="213" on="1"/>
        <pt x="392" y="213" on="1"/>
        <pt x="265" y="605" on="1"/>
      </contour>
    </TTGlyph>
    <TTGlyph name="Adieresis" xMin="31" yMin="0" xMax="495" yMax="836">
      <contour>
        <pt x="170" y="716" on="1"/>
        <pt x="170" y="827" on="1"/>
        <pt x="170" y="836" on="0"/>
        <pt x="178" y="836" on="1"/>
        <pt x="192" y="836" on="1"/>
        <pt x="200" y="836" on="0"/>
        <pt x="200" y="827" on="1"/>
        <pt x="200" y="716" on="1"/>
        <pt x="200" y="707" on="0"/>
        <pt x="192" y="707" on="1"/>
        <pt x="178" y="707" on="1"/>
        <pt x="170" y="707" on="0"/>
      </contour>
      <contour>
        <pt x="326" y="716" on="1"/>
        <pt x="326" y="827" on="1"/>
        <pt x="326" y="836" on="0"/>
        <pt x="334" y="836" on="1"/>
        <pt x="348" y="836" on="1"/>
        <pt x="356" y="836" on="0"/>
        <pt x="356" y="827" on="1"/>
        <pt x="356" y="716" on="1"/>
        <pt x="356" y="707" on="0"/>
        <pt x="348" y="707" on="1"/>
        <pt x="334" y="707" on="1"/>
        <pt x="326" y="707" on="0"/>
      </contour>
      <contour>
        <pt x="51" y="0" on="1"/>
        <pt x="37" y="0" on="1"/>
        <pt x="28" y="0" on="0"/>
        <pt x="31" y="9" on="1"/>
        <pt x="241" y="634" on="1"/>
        <pt x="244" y="643" on="0"/>
        <pt x="251" y="643" on="1"/>
        <pt x="275" y="643" on="1"/>
        <pt x="282" y="643" on="0"/>
        <pt x="285" y="634" on="1"/>
        <pt x="495" y="9" on="1"/>
        <pt x="498" y="0" on="0"/>
        <pt x="489" y="0" on="1"/>
        <pt x="474" y="0" on="1"/>
        <pt x="467" y="0" on="0"/>
        <pt x="464" y="9" on="1"/>
        <pt x="403" y="183" on="1"/>
        <pt x="123" y="183" on="1"/>
        <pt x="62" y="9" on="1"/>
        <pt x="58" y="0" on="0"/>
      </contour>
      <contour>
        <pt x="261" y="605" on="1"/>
        <pt x="134" y="213" on="1"/>
        <pt x="392" y="213" on="1"/>
        <pt x="265" y="605" on="1"/>
      </contour>
    </TTGlyph>
    <TTGlyph name="Agrave" xMin="31" yMin="0" xMax="495" yMax="836">
      <contour>
        <pt x="263" y="707" on="1"/>
        <pt x="255" y="707" on="1"/>
        <pt x="247" y="707" on="0"/>
        <pt x="241" y="715" on="1"/>
        <pt x="149" y="827" on="1"/>
        <pt x="146" y="831" on="0"/>
        <pt x="149" y="836" on="0"/>
        <pt x="153" y="836" on="1"/>
        <pt x="183" y="836" on="1"/>
        <pt x="194" y="836" on="0"/>
        <pt x="198" y="827" on="1"/>
        <pt x="266" y="716" on="1"/>
        <pt x="271" y="707" on="0"/>
      </contour>
      <contour>
        <pt x="51" y="0" on="1"/>
        <pt x="37" y="0" on="1"/>
        <pt x="28" y="0" on="0"/>
        <pt x="31" y="9" on="1"/>
        <pt x="241" y="634" on="1"/>
        <pt x="244" y="643" on="0"/>
        <pt x="251" y="643" on="1"/>
        <pt x="275" y="643" on="1"/>
        <pt x="282" y="643" on="0"/>
        <pt x="285" y="634" on="1"/>
        <pt x="495" y="9" on="1"/>
        <pt x="498" y="0" on="0"/>
        <pt x="489" y="0" on="1"/>
        <pt x="474" y="0" on="1"/>
        <pt x="467" y="0" on="0"/>
        <pt x="464" y="9" on="1"/>
        <pt x="403" y="183" on="1"/>
        <pt x="123" y="183" on="1"/>
        <pt x="62" y="9" on="1"/>
        <pt x="58" y="0" on="0"/>
      </contour>
      <contour>
        <pt x="261" y="605" on="1"/>
        <pt x="134" y="213" on="1"/>
        <pt x="392" y="213" on="1"/>
        <pt x="265" y="605" on="1"/>
      </contour>
    </TTGlyph>
    <TTGlyph name="Amacron" xMin="31" yMin="0" xMax="495" yMax="785">
      <contour>
        <pt x="365" y="757" on="1"/>
        <pt x="161" y="757" on="1"/>
        <pt x="152" y="757" on="0"/>
        <pt x="152" y="765" on="1"/>
        <pt x="152" y="777" on="1"/>
        <pt x="152" y="785" on="0"/>
        <pt x="161" y="785" on="1"/>
        <pt x="365" y="785" on="1"/>
        <pt x="374" y="785" on="0"/>
        <pt x="374" y="777" on="1"/>
        <pt x="374" y="765" on="1"/>
        <pt x="374" y="757" on="0"/>
      </contour>
      <contour>
        <pt x="51" y="0" on="1"/>
        <pt x="37" y="0" on="1"/>
        <pt x="28" y="0" on="0"/>
        <pt x="31" y="9" on="1"/>
        <pt x="241" y="634" on="1"/>
        <pt x="244" y="643" on="0"/>
        <pt x="251" y="643" on="1"/>
        <pt x="275" y="643" on="1"/>
        <pt x="282" y="643" on="0"/>
        <pt x="285" y="634" on="1"/>
        <pt x="495" y="9" on="1"/>
        <pt x="498" y="0" on="0"/>
        <pt x="489" y="0" on="1"/>
        <pt x="474" y="0" on="1"/>
        <pt x="467" y="0" on="0"/>
        <pt x="464" y="9" on="1"/>
        <pt x="403" y="183" on="1"/>
        <pt x="123" y="183" on="1"/>
        <pt x="62" y="9" on="1"/>
        <pt x="58" y="0" on="0"/>
      </contour>
      <contour>
        <pt x="261" y="605" on="1"/>
        <pt x="134" y="213" on="1"/>
        <pt x="392" y="213" on="1"/>
        <pt x="265" y="605" on="1"/>
      </contour>
    </TTGlyph>
    <TTGlyph name="Aogonek" xMin="31" yMin="-101" xMax="495" yMax="643">
      <contour>
        <pt x="489" y="0" on="1"/>
        <pt x="475" y="0" on="1"/>
        <pt x="418" y="-74" on="1"/>
        <pt x="456" y="-74" on="1"/>
        <pt x="485" y="-74" on="0"/>
        <pt x="485" y="-84" on="1"/>
        <pt x="485" y="-101" on="0"/>
        <pt x="418" y="-101" on="1"/>
        <pt x="395" y="-101" on="0"/>
        <pt x="382" y="-79" on="0"/>
        <pt x="394" y="-66" on="1"/>
        <pt x="461" y="18" on="1"/>
        <pt x="403" y="183" on="1"/>
        <pt x="123" y="183" on="1"/>
        <pt x="62" y="9" on="1"/>
        <pt x="58" y="0" on="0"/>
        <pt x="51" y="0" on="1"/>
        <pt x="37" y="0" on="1"/>
        <pt x="28" y="0" on="0"/>
        <pt x="31" y="9" on="1"/>
        <pt x="241" y="634" on="1"/>
        <pt x="244" y="643" on="0"/>
        <pt x="251" y="643" on="1"/>
        <pt x="275" y="643" on="1"/>
        <pt x="282" y="643" on="0"/>
        <pt x="285" y="634" on="1"/>
        <pt x="495" y="9" on="1"/>
        <pt x="498" y="0" on="0"/>
      </contour>
      <contour>
        <pt x="134" y="213" on="1"/>
        <pt x="392" y="213" on="1"/>
        <pt x="265" y="605" on="1"/>
        <pt x="261" y="605" on="1"/>
      </contour>
    </TTGlyph>
    <TTGlyph name="Aring" xMin="31" yMin="0" xMax="495" yMax="871">
      <contour>
        <pt x="266" y="692" on="1"/>
        <pt x="256" y="692" on="1"/>
        <pt x="219" y="692" on="0"/>
        <pt x="180" y="733" on="0"/>
        <pt x="180" y="771" on="1"/>
        <pt x="180" y="793" on="1"/>
        <pt x="180" y="831" on="0"/>
        <pt x="219" y="871" on="0"/>
        <pt x="256" y="871" on="1"/>
        <pt x="266" y="871" on="1"/>
        <pt x="303" y="871" on="0"/>
        <pt x="344" y="830" on="0"/>
        <pt x="344" y="793" on="1"/>
        <pt x="344" y="771" on="1"/>
        <pt x="344" y="734" on="0"/>
        <pt x="303" y="692" on="0"/>
      </contour>
      <contour>
        <pt x="256" y="715" on="1"/>
        <pt x="266" y="715" on="1"/>
        <pt x="319" y="715" on="0"/>
        <pt x="319" y="772" on="1"/>
        <pt x="319" y="792" on="1"/>
        <pt x="319" y="848" on="0"/>
        <pt x="266" y="848" on="1"/>
        <pt x="256" y="848" on="1"/>
        <pt x="204" y="848" on="0"/>
        <pt x="204" y="792" on="1"/>
        <pt x="204" y="772" on="1"/>
        <pt x="204" y="715" on="0"/>
      </contour>
      <contour>
        <pt x="51" y="0" on="1"/>
        <pt x="37" y="0" on="1"/>
        <pt x="28" y="0" on="0"/>
        <pt x="31" y="9" on="1"/>
        <pt x="241" y="634" on="1"/>
        <pt x="244" y="643" on="0"/>
        <pt x="251" y="643" on="1"/>
        <pt x="275" y="643" on="1"/>
        <pt x="282" y="643" on="0"/>
        <pt x="285" y="634" on="1"/>
        <pt x="495" y="9" on="1"/>
        <pt x="498" y="0" on="0"/>
        <pt x="489" y="0" on="1"/>
        <pt x="474" y="0" on="1"/>
        <pt x="467" y="0" on="0"/>
        <pt x="464" y="9" on="1"/>
        <pt x="403" y="183" on="1"/>
        <pt x="123" y="183" on="1"/>
        <pt x="62" y="9" on="1"/>
        <pt x="58" y="0" on="0"/>
      </contour>
      <contour>
        <pt x="261" y="605" on="1"/>
        <pt x="134" y="213" on="1"/>
        <pt x="392" y="213" on="1"/>
        <pt x="265" y="605" on="1"/>
      </contour>
    </TTGlyph>
    <TTGlyph name="Atilde" xMin="31" yMin="0" xMax="495" yMax="831">
      <contour>
        <pt x="264" y="726" on="0"/>
        <pt x="239" y="702" on="0"/>
        <pt x="183" y="702" on="0"/>
        <pt x="160" y="737" on="0"/>
        <pt x="160" y="780" on="1"/>
        <pt x="160" y="819" on="1"/>
        <pt x="160" y="828" on="0"/>
        <pt x="168" y="828" on="1"/>
        <pt x="175" y="828" on="1"/>
        <pt x="183" y="828" on="0"/>
        <pt x="183" y="819" on="1"/>
        <pt x="183" y="781" on="1"/>
        <pt x="183" y="748" on="0"/>
        <pt x="196" y="723" on="0"/>
        <pt x="230" y="723" on="0"/>
        <pt x="243" y="743" on="0"/>
        <pt x="264" y="810" on="0"/>
        <pt x="287" y="831" on="0"/>
        <pt x="343" y="831" on="0"/>
        <pt x="366" y="796" on="0"/>
        <pt x="366" y="753" on="1"/>
        <pt x="366" y="711" on="1"/>
        <pt x="366" y="702" on="0"/>
        <pt x="358" y="702" on="1"/>
        <pt x="351" y="702" on="1"/>
        <pt x="343" y="702" on="0"/>
        <pt x="343" y="711" on="1"/>
        <pt x="343" y="752" on="1"/>
        <pt x="343" y="785" on="0"/>
        <pt x="330" y="810" on="0"/>
        <pt x="292" y="810" on="0"/>
        <pt x="284" y="792" on="1"/>
        <pt x="282" y="787" on="0"/>
      </contour>
      <contour>
        <pt x="51" y="0" on="1"/>
        <pt x="37" y="0" on="1"/>
        <pt x="28" y="0" on="0"/>
        <pt x="31" y="9" on="1"/>
        <pt x="241" y="634" on="1"/>
        <pt x="244" y="643" on="0"/>
        <pt x="251" y="643" on="1"/>
        <pt x="275" y="643" on="1"/>
        <pt x="282" y="643" on="0"/>
        <pt x="285" y="634" on="1"/>
        <pt x="495" y="9" on="1"/>
        <pt x="498" y="0" on="0"/>
        <pt x="489" y="0" on="1"/>
        <pt x="474" y="0" on="1"/>
        <pt x="467" y="0" on="0"/>
        <pt x="464" y="9" on="1"/>
        <pt x="403" y="183" on="1"/>
        <pt x="123" y="183" on="1"/>
        <pt x="62" y="9" on="1"/>
        <pt x="58" y="0" on="0"/>
      </contour>
      <contour>
        <pt x="261" y="605" on="1"/>
        <pt x="134" y="213" on="1"/>
        <pt x="392" y="213" on="1"/>
        <pt x="265" y="605" on="1"/>
      </contour>
    </TTGlyph>
    <TTGlyph name="B" xMin="90" yMin="0" xMax="469" yMax="643">
      <contour>
        <pt x="129" y="28" on="1"/>
        <pt x="335" y="28" on="1"/>
        <pt x="385" y="28" on="0"/>
        <pt x="439" y="83" on="0"/>
        <pt x="439" y="134" on="1"/>
        <pt x="439" y="205" on="1"/>
        <pt x="439" y="311" on="0"/>
        <pt x="325" y="311" on="1"/>
        <pt x="129" y="311" on="1"/>
        <pt x="120" y="311" on="0"/>
        <pt x="120" y="303" on="1"/>
        <pt x="120" y="36" on="1"/>
        <pt x="120" y="28" on="0"/>
      </contour>
      <contour>
        <pt x="129" y="339" on="1"/>
        <pt x="325" y="339" on="1"/>
        <pt x="376" y="339" on="0"/>
        <pt x="433" y="394" on="0"/>
        <pt x="433" y="445" on="1"/>
        <pt x="433" y="509" on="1"/>
        <pt x="433" y="560" on="0"/>
        <pt x="379" y="615" on="0"/>
        <pt x="329" y="615" on="1"/>
        <pt x="129" y="615" on="1"/>
        <pt x="120" y="615" on="0"/>
        <pt x="120" y="607" on="1"/>
        <pt x="120" y="347" on="1"/>
        <pt x="120" y="339" on="0"/>
      </contour>
      <contour>
        <pt x="90" y="9" on="1"/>
        <pt x="90" y="634" on="1"/>
        <pt x="90" y="643" on="0"/>
        <pt x="98" y="643" on="1"/>
        <pt x="329" y="643" on="1"/>
        <pt x="390" y="643" on="0"/>
        <pt x="463" y="572" on="0"/>
        <pt x="463" y="510" on="1"/>
        <pt x="463" y="444" on="1"/>
        <pt x="463" y="351" on="0"/>
        <pt x="375" y="325" on="1"/>
        <pt x="411" y="323" on="0"/>
        <pt x="469" y="257" on="0"/>
        <pt x="469" y="206" on="1"/>
        <pt x="469" y="133" on="1"/>
        <pt x="469" y="71" on="0"/>
        <pt x="396" y="0" on="0"/>
        <pt x="335" y="0" on="1"/>
        <pt x="98" y="0" on="1"/>
        <pt x="90" y="0" on="0"/>
      </contour>
    </TTGlyph>
    <TTGlyph name="C" xMin="80" yMin="0" xMax="478" yMax="643">
      <contour>
        <pt x="344" y="0" on="1"/>
        <pt x="214" y="0" on="1"/>
        <pt x="153" y="0" on="0"/>
        <pt x="80" y="74" on="0"/>
        <pt x="80" y="136" on="1"/>
        <pt x="80" y="507" on="1"/>
        <pt x="80" y="569" on="0"/>
        <pt x="153" y="643" on="0"/>
        <pt x="214" y="643" on="1"/>
        <pt x="344" y="643" on="1"/>
        <pt x="405" y="643" on="0"/>
        <pt x="478" y="569" on="0"/>
        <pt x="478" y="507" on="1"/>
        <pt x="478" y="457" on="1"/>
        <pt x="478" y="448" on="0"/>
        <pt x="470" y="448" on="1"/>
        <pt x="456" y="448" on="1"/>
        <pt x="448" y="448" on="0"/>
        <pt x="448" y="457" on="1"/>
        <pt x="448" y="506" on="1"/>
        <pt x="448" y="557" on="0"/>
        <pt x="394" y="615" on="0"/>
        <pt x="344" y="615" on="1"/>
        <pt x="214" y="615" on="1"/>
        <pt x="164" y="615" on="0"/>
        <pt x="110" y="557" on="0"/>
        <pt x="110" y="506" on="1"/>
        <pt x="110" y="137" on="1"/>
        <pt x="110" y="86" on="0"/>
        <pt x="164" y="28" on="0"/>
        <pt x="214" y="28" on="1"/>
        <pt x="344" y="28" on="1"/>
        <pt x="394" y="28" on="0"/>
        <pt x="448" y="86" on="0"/>
        <pt x="448" y="137" on="1"/>
        <pt x="448" y="186" on="1"/>
        <pt x="448" y="195" on="0"/>
        <pt x="456" y="195" on="1"/>
        <pt x="470" y="195" on="1"/>
        <pt x="478" y="195" on="0"/>
        <pt x="478" y="186" on="1"/>
        <pt x="478" y="136" on="1"/>
        <pt x="478" y="74" on="0"/>
        <pt x="405" y="0" on="0"/>
      </contour>
    </TTGlyph>
    <TTGlyph name="Cacute" xMin="80" yMin="0" xMax="478" yMax="836">
      <contour>
        <pt x="349" y="836" on="1"/>
        <pt x="379" y="836" on="1"/>
        <pt x="383" y="836" on="0"/>
        <pt x="386" y="831" on="0"/>
        <pt x="383" y="827" on="1"/>
        <pt x="291" y="715" on="1"/>
        <pt x="285" y="707" on="0"/>
        <pt x="277" y="707" on="1"/>
        <pt x="269" y="707" on="1"/>
        <pt x="261" y="707" on="0"/>
        <pt x="266" y="716" on="1"/>
        <pt x="334" y="827" on="1"/>
        <pt x="338" y="836" on="0"/>
      </contour>
      <contour>
        <pt x="344" y="0" on="1"/>
        <pt x="214" y="0" on="1"/>
        <pt x="153" y="0" on="0"/>
        <pt x="80" y="74" on="0"/>
        <pt x="80" y="136" on="1"/>
        <pt x="80" y="507" on="1"/>
        <pt x="80" y="569" on="0"/>
        <pt x="153" y="643" on="0"/>
        <pt x="214" y="643" on="1"/>
        <pt x="344" y="643" on="1"/>
        <pt x="405" y="643" on="0"/>
        <pt x="478" y="569" on="0"/>
        <pt x="478" y="507" on="1"/>
        <pt x="478" y="457" on="1"/>
        <pt x="478" y="448" on="0"/>
        <pt x="470" y="448" on="1"/>
        <pt x="456" y="448" on="1"/>
        <pt x="448" y="448" on="0"/>
        <pt x="448" y="457" on="1"/>
        <pt x="448" y="506" on="1"/>
        <pt x="448" y="557" on="0"/>
        <pt x="394" y="615" on="0"/>
        <pt x="344" y="615" on="1"/>
        <pt x="214" y="615" on="1"/>
        <pt x="164" y="615" on="0"/>
        <pt x="110" y="557" on="0"/>
        <pt x="110" y="506" on="1"/>
        <pt x="110" y="137" on="1"/>
        <pt x="110" y="86" on="0"/>
        <pt x="164" y="28" on="0"/>
        <pt x="214" y="28" on="1"/>
        <pt x="344" y="28" on="1"/>
        <pt x="394" y="28" on="0"/>
        <pt x="448" y="86" on="0"/>
        <pt x="448" y="137" on="1"/>
        <pt x="448" y="186" on="1"/>
        <pt x="448" y="195" on="0"/>
        <pt x="456" y="195" on="1"/>
        <pt x="470" y="195" on="1"/>
        <pt x="478" y="195" on="0"/>
        <pt x="478" y="186" on="1"/>
        <pt x="478" y="136" on="1"/>
        <pt x="478" y="74" on="0"/>
        <pt x="405" y="0" on="0"/>
      </contour>
    </TTGlyph>
    <TTGlyph name="Ccaron" xMin="80" yMin="0" xMax="478" yMax="836">
      <contour>
        <pt x="274" y="707" on="1"/>
        <pt x="261" y="707" on="0"/>
        <pt x="255" y="716" on="1"/>
        <pt x="191" y="825" on="1"/>
        <pt x="184" y="836" on="0"/>
        <pt x="195" y="836" on="1"/>
        <pt x="209" y="836" on="1"/>
        <pt x="218" y="836" on="0"/>
        <pt x="220" y="831" on="1"/>
        <pt x="279" y="726" on="1"/>
        <pt x="338" y="831" on="1"/>
        <pt x="340" y="836" on="0"/>
        <pt x="349" y="836" on="1"/>
        <pt x="363" y="836" on="1"/>
        <pt x="374" y="836" on="0"/>
        <pt x="367" y="825" on="1"/>
        <pt x="303" y="716" on="1"/>
        <pt x="297" y="707" on="0"/>
        <pt x="284" y="707" on="1"/>
      </contour>
      <contour>
        <pt x="344" y="0" on="1"/>
        <pt x="214" y="0" on="1"/>
        <pt x="153" y="0" on="0"/>
        <pt x="80" y="74" on="0"/>
        <pt x="80" y="136" on="1"/>
        <pt x="80" y="507" on="1"/>
        <pt x="80" y="569" on="0"/>
        <pt x="153" y="643" on="0"/>
        <pt x="214" y="643" on="1"/>
        <pt x="344" y="643" on="1"/>
        <pt x="405" y="643" on="0"/>
        <pt x="478" y="569" on="0"/>
        <pt x="478" y="507" on="1"/>
        <pt x="478" y="457" on="1"/>
        <pt x="478" y="448" on="0"/>
        <pt x="470" y="448" on="1"/>
        <pt x="456" y="448" on="1"/>
        <pt x="448" y="448" on="0"/>
        <pt x="448" y="457" on="1"/>
        <pt x="448" y="506" on="1"/>
        <pt x="448" y="557" on="0"/>
        <pt x="394" y="615" on="0"/>
        <pt x="344" y="615" on="1"/>
        <pt x="214" y="615" on="1"/>
        <pt x="164" y="615" on="0"/>
        <pt x="110" y="557" on="0"/>
        <pt x="110" y="506" on="1"/>
        <pt x="110" y="137" on="1"/>
        <pt x="110" y="86" on="0"/>
        <pt x="164" y="28" on="0"/>
        <pt x="214" y="28" on="1"/>
        <pt x="344" y="28" on="1"/>
        <pt x="394" y="28" on="0"/>
        <pt x="448" y="86" on="0"/>
        <pt x="448" y="137" on="1"/>
        <pt x="448" y="186" on="1"/>
        <pt x="448" y="195" on="0"/>
        <pt x="456" y="195" on="1"/>
        <pt x="470" y="195" on="1"/>
        <pt x="478" y="195" on="0"/>
        <pt x="478" y="186" on="1"/>
        <pt x="478" y="136" on="1"/>
        <pt x="478" y="74" on="0"/>
        <pt x="405" y="0" on="0"/>
      </contour>
    </TTGlyph>
    <TTGlyph name="Ccedilla" xMin="80" yMin="-178" xMax="478" yMax="643">
      <contour>
        <pt x="470" y="448" on="1"/>
        <pt x="456" y="448" on="1"/>
        <pt x="448" y="448" on="0"/>
        <pt x="448" y="457" on="1"/>
        <pt x="448" y="506" on="1"/>
        <pt x="448" y="557" on="0"/>
        <pt x="394" y="615" on="0"/>
        <pt x="344" y="615" on="1"/>
        <pt x="214" y="615" on="1"/>
        <pt x="164" y="615" on="0"/>
        <pt x="110" y="557" on="0"/>
        <pt x="110" y="506" on="1"/>
        <pt x="110" y="137" on="1"/>
        <pt x="110" y="86" on="0"/>
        <pt x="164" y="28" on="0"/>
        <pt x="214" y="28" on="1"/>
        <pt x="344" y="28" on="1"/>
        <pt x="394" y="28" on="0"/>
        <pt x="448" y="86" on="0"/>
        <pt x="448" y="137" on="1"/>
        <pt x="448" y="186" on="1"/>
        <pt x="448" y="195" on="0"/>
        <pt x="456" y="195" on="1"/>
        <pt x="470" y="195" on="1"/>
        <pt x="478" y="195" on="0"/>
        <pt x="478" y="186" on="1"/>
        <pt x="478" y="136" on="1"/>
        <pt x="478" y="74" on="0"/>
        <pt x="405" y="0" on="0"/>
        <pt x="344" y="0" on="1"/>
        <pt x="318" y="0" on="1"/>
        <pt x="272" y="-50" on="1"/>
        <pt x="272" y="-54" on="1"/>
        <pt x="312" y="-54" on="0"/>
        <pt x="351" y="-80" on="0"/>
        <pt x="351" y="-111" on="1"/>
        <pt x="351" y="-121" on="1"/>
        <pt x="351" y="-178" on="0"/>
        <pt x="272" y="-178" on="1"/>
        <pt x="253" y="-178" on="1"/>
        <pt x="244" y="-178" on="0"/>
        <pt x="244" y="-170" on="1"/>
        <pt x="244" y="-160" on="1"/>
        <pt x="244" y="-152" on="0"/>
        <pt x="253" y="-152" on="1"/>
        <pt x="269" y="-152" on="1"/>
        <pt x="299" y="-152" on="0"/>
        <pt x="324" y="-137" on="0"/>
        <pt x="324" y="-118" on="1"/>
        <pt x="324" y="-116" on="1"/>
        <pt x="324" y="-96" on="0"/>
        <pt x="300" y="-80" on="0"/>
        <pt x="269" y="-80" on="1"/>
        <pt x="260" y="-80" on="1"/>
        <pt x="242" y="-80" on="0"/>
        <pt x="233" y="-56" on="0"/>
        <pt x="244" y="-45" on="1"/>
        <pt x="284" y="0" on="1"/>
        <pt x="214" y="0" on="1"/>
        <pt x="153" y="0" on="0"/>
        <pt x="80" y="74" on="0"/>
        <pt x="80" y="136" on="1"/>
        <pt x="80" y="507" on="1"/>
        <pt x="80" y="569" on="0"/>
        <pt x="153" y="643" on="0"/>
        <pt x="214" y="643" on="1"/>
        <pt x="344" y="643" on="1"/>
        <pt x="405" y="643" on="0"/>
        <pt x="478" y="569" on="0"/>
        <pt x="478" y="507" on="1"/>
        <pt x="478" y="457" on="1"/>
        <pt x="478" y="448" on="0"/>
      </contour>
    </TTGlyph>
    <TTGlyph name="Cdotaccent" xMin="80" yMin="0" xMax="478" yMax="830">
      <contour>
        <pt x="264" y="722" on="1"/>
        <pt x="264" y="821" on="1"/>
        <pt x="264" y="830" on="0"/>
        <pt x="272" y="830" on="1"/>
        <pt x="286" y="830" on="1"/>
        <pt x="294" y="830" on="0"/>
        <pt x="294" y="821" on="1"/>
        <pt x="294" y="722" on="1"/>
        <pt x="294" y="713" on="0"/>
        <pt x="286" y="713" on="1"/>
        <pt x="272" y="713" on="1"/>
        <pt x="264" y="713" on="0"/>
      </contour>
      <contour>
        <pt x="344" y="0" on="1"/>
        <pt x="214" y="0" on="1"/>
        <pt x="153" y="0" on="0"/>
        <pt x="80" y="74" on="0"/>
        <pt x="80" y="136" on="1"/>
        <pt x="80" y="507" on="1"/>
        <pt x="80" y="569" on="0"/>
        <pt x="153" y="643" on="0"/>
        <pt x="214" y="643" on="1"/>
        <pt x="344" y="643" on="1"/>
        <pt x="405" y="643" on="0"/>
        <pt x="478" y="569" on="0"/>
        <pt x="478" y="507" on="1"/>
        <pt x="478" y="457" on="1"/>
        <pt x="478" y="448" on="0"/>
        <pt x="470" y="448" on="1"/>
        <pt x="456" y="448" on="1"/>
        <pt x="448" y="448" on="0"/>
        <pt x="448" y="457" on="1"/>
        <pt x="448" y="506" on="1"/>
        <pt x="448" y="557" on="0"/>
        <pt x="394" y="615" on="0"/>
        <pt x="344" y="615" on="1"/>
        <pt x="214" y="615" on="1"/>
        <pt x="164" y="615" on="0"/>
        <pt x="110" y="557" on="0"/>
        <pt x="110" y="506" on="1"/>
        <pt x="110" y="137" on="1"/>
        <pt x="110" y="86" on="0"/>
        <pt x="164" y="28" on="0"/>
        <pt x="214" y="28" on="1"/>
        <pt x="344" y="28" on="1"/>
        <pt x="394" y="28" on="0"/>
        <pt x="448" y="86" on="0"/>
        <pt x="448" y="137" on="1"/>
        <pt x="448" y="186" on="1"/>
        <pt x="448" y="195" on="0"/>
        <pt x="456" y="195" on="1"/>
        <pt x="470" y="195" on="1"/>
        <pt x="478" y="195" on="0"/>
        <pt x="478" y="186" on="1"/>
        <pt x="478" y="136" on="1"/>
        <pt x="478" y="74" on="0"/>
        <pt x="405" y="0" on="0"/>
      </contour>
    </TTGlyph>
    <TTGlyph name="D" xMin="90" yMin="0" xMax="478" yMax="643">
      <contour>
        <pt x="129" y="28" on="1"/>
        <pt x="344" y="28" on="1"/>
        <pt x="394" y="28" on="0"/>
        <pt x="448" y="86" on="0"/>
        <pt x="448" y="137" on="1"/>
        <pt x="448" y="506" on="1"/>
        <pt x="448" y="557" on="0"/>
        <pt x="394" y="615" on="0"/>
        <pt x="344" y="615" on="1"/>
        <pt x="129" y="615" on="1"/>
        <pt x="120" y="615" on="0"/>
        <pt x="120" y="607" on="1"/>
        <pt x="120" y="36" on="1"/>
        <pt x="120" y="28" on="0"/>
      </contour>
      <contour>
        <pt x="90" y="9" on="1"/>
        <pt x="90" y="634" on="1"/>
        <pt x="90" y="643" on="0"/>
        <pt x="98" y="643" on="1"/>
        <pt x="344" y="643" on="1"/>
        <pt x="405" y="643" on="0"/>
        <pt x="478" y="569" on="0"/>
        <pt x="478" y="507" on="1"/>
        <pt x="478" y="136" on="1"/>
        <pt x="478" y="74" on="0"/>
        <pt x="405" y="0" on="0"/>
        <pt x="344" y="0" on="1"/>
        <pt x="98" y="0" on="1"/>
        <pt x="90" y="0" on="0"/>
      </contour>
    </TTGlyph>
    <TTGlyph name="Dcaron" xMin="90" yMin="0" xMax="478" yMax="836">
      <contour>
        <pt x="269" y="707" on="1"/>
        <pt x="256" y="707" on="0"/>
        <pt x="250" y="716" on="1"/>
        <pt x="186" y="825" on="1"/>
        <pt x="179" y="836" on="0"/>
        <pt x="190" y="836" on="1"/>
        <pt x="204" y="836" on="1"/>
        <pt x="212" y="836" on="0"/>
        <pt x="215" y="831" on="1"/>
        <pt x="274" y="726" on="1"/>
        <pt x="333" y="831" on="1"/>
        <pt x="336" y="836" on="0"/>
        <pt x="344" y="836" on="1"/>
        <pt x="358" y="836" on="1"/>
        <pt x="369" y="836" on="0"/>
        <pt x="362" y="825" on="1"/>
        <pt x="298" y="716" on="1"/>
        <pt x="292" y="707" on="0"/>
        <pt x="279" y="707" on="1"/>
      </contour>
      <contour>
        <pt x="129" y="28" on="1"/>
        <pt x="344" y="28" on="1"/>
        <pt x="394" y="28" on="0"/>
        <pt x="448" y="86" on="0"/>
        <pt x="448" y="137" on="1"/>
        <pt x="448" y="506" on="1"/>
        <pt x="448" y="557" on="0"/>
        <pt x="394" y="615" on="0"/>
        <pt x="344" y="615" on="1"/>
        <pt x="129" y="615" on="1"/>
        <pt x="120" y="615" on="0"/>
        <pt x="120" y="607" on="1"/>
        <pt x="120" y="36" on="1"/>
        <pt x="120" y="28" on="0"/>
      </contour>
      <contour>
        <pt x="90" y="9" on="1"/>
        <pt x="90" y="634" on="1"/>
        <pt x="90" y="643" on="0"/>
        <pt x="98" y="643" on="1"/>
        <pt x="344" y="643" on="1"/>
        <pt x="405" y="643" on="0"/>
        <pt x="478" y="569" on="0"/>
        <pt x="478" y="507" on="1"/>
        <pt x="478" y="136" on="1"/>
        <pt x="478" y="74" on="0"/>
        <pt x="405" y="0" on="0"/>
        <pt x="344" y="0" on="1"/>
        <pt x="98" y="0" on="1"/>
        <pt x="90" y="0" on="0"/>
      </contour>
    </TTGlyph>
    <TTGlyph name="Dcroat" xMin="26" yMin="0" xMax="478" yMax="643">
      <contour>
        <pt x="129" y="28" on="1"/>
        <pt x="344" y="28" on="1"/>
        <pt x="394" y="28" on="0"/>
        <pt x="448" y="86" on="0"/>
        <pt x="448" y="137" on="1"/>
        <pt x="448" y="506" on="1"/>
        <pt x="448" y="557" on="0"/>
        <pt x="394" y="615" on="0"/>
        <pt x="344" y="615" on="1"/>
        <pt x="129" y="615" on="1"/>
        <pt x="120" y="615" on="0"/>
        <pt x="120" y="607" on="1"/>
        <pt x="120" y="398" on="1"/>
        <pt x="120" y="390" on="0"/>
        <pt x="129" y="390" on="1"/>
        <pt x="295" y="390" on="1"/>
        <pt x="304" y="390" on="0"/>
        <pt x="304" y="382" on="1"/>
        <pt x="304" y="370" on="1"/>
        <pt x="304" y="362" on="0"/>
        <pt x="295" y="362" on="1"/>
        <pt x="129" y="362" on="1"/>
        <pt x="120" y="362" on="0"/>
        <pt x="120" y="354" on="1"/>
        <pt x="120" y="36" on="1"/>
        <pt x="120" y="28" on="0"/>
      </contour>
      <contour>
        <pt x="344" y="0" on="1"/>
        <pt x="98" y="0" on="1"/>
        <pt x="90" y="0" on="0"/>
        <pt x="90" y="9" on="1"/>
        <pt x="90" y="354" on="1"/>
        <pt x="90" y="362" on="0"/>
        <pt x="81" y="362" on="1"/>
        <pt x="35" y="362" on="1"/>
        <pt x="26" y="362" on="0"/>
        <pt x="26" y="370" on="1"/>
        <pt x="26" y="382" on="1"/>
        <pt x="26" y="390" on="0"/>
        <pt x="35" y="390" on="1"/>
        <pt x="81" y="390" on="1"/>
        <pt x="90" y="390" on="0"/>
        <pt x="90" y="398" on="1"/>
        <pt x="90" y="634" on="1"/>
        <pt x="90" y="643" on="0"/>
        <pt x="98" y="643" on="1"/>
        <pt x="344" y="643" on="1"/>
        <pt x="405" y="643" on="0"/>
        <pt x="478" y="569" on="0"/>
        <pt x="478" y="507" on="1"/>
        <pt x="478" y="136" on="1"/>
        <pt x="478" y="74" on="0"/>
        <pt x="405" y="0" on="0"/>
      </contour>
    </TTGlyph>
    <TTGlyph name="E" xMin="90" yMin="0" xMax="411" yMax="643">
      <contour>
        <pt x="402" y="0" on="1"/>
        <pt x="98" y="0" on="1"/>
        <pt x="90" y="0" on="0"/>
        <pt x="90" y="9" on="1"/>
        <pt x="90" y="634" on="1"/>
        <pt x="90" y="643" on="0"/>
        <pt x="98" y="643" on="1"/>
        <pt x="402" y="643" on="1"/>
        <pt x="411" y="643" on="0"/>
        <pt x="411" y="635" on="1"/>
        <pt x="411" y="623" on="1"/>
        <pt x="411" y="615" on="0"/>
        <pt x="402" y="615" on="1"/>
        <pt x="129" y="615" on="1"/>
        <pt x="120" y="615" on="0"/>
        <pt x="120" y="607" on="1"/>
        <pt x="120" y="350" on="1"/>
        <pt x="120" y="342" on="0"/>
        <pt x="129" y="342" on="1"/>
        <pt x="376" y="342" on="1"/>
        <pt x="385" y="342" on="0"/>
        <pt x="385" y="334" on="1"/>
        <pt x="385" y="322" on="1"/>
        <pt x="385" y="314" on="0"/>
        <pt x="376" y="314" on="1"/>
        <pt x="129" y="314" on="1"/>
        <pt x="120" y="314" on="0"/>
        <pt x="120" y="306" on="1"/>
        <pt x="120" y="36" on="1"/>
        <pt x="120" y="28" on="0"/>
        <pt x="129" y="28" on="1"/>
        <pt x="402" y="28" on="1"/>
        <pt x="411" y="28" on="0"/>
        <pt x="411" y="20" on="1"/>
        <pt x="411" y="8" on="1"/>
        <pt x="411" y="0" on="0"/>
      </contour>
    </TTGlyph>
    <TTGlyph name="Eacute" xMin="90" yMin="0" xMax="411" yMax="836">
      <contour>
        <pt x="319" y="836" on="1"/>
        <pt x="349" y="836" on="1"/>
        <pt x="353" y="836" on="0"/>
        <pt x="356" y="831" on="0"/>
        <pt x="353" y="827" on="1"/>
        <pt x="261" y="715" on="1"/>
        <pt x="255" y="707" on="0"/>
        <pt x="247" y="707" on="1"/>
        <pt x="239" y="707" on="1"/>
        <pt x="231" y="707" on="0"/>
        <pt x="236" y="716" on="1"/>
        <pt x="304" y="827" on="1"/>
        <pt x="308" y="836" on="0"/>
      </contour>
      <contour>
        <pt x="402" y="0" on="1"/>
        <pt x="98" y="0" on="1"/>
        <pt x="90" y="0" on="0"/>
        <pt x="90" y="9" on="1"/>
        <pt x="90" y="634" on="1"/>
        <pt x="90" y="643" on="0"/>
        <pt x="98" y="643" on="1"/>
        <pt x="402" y="643" on="1"/>
        <pt x="411" y="643" on="0"/>
        <pt x="411" y="635" on="1"/>
        <pt x="411" y="623" on="1"/>
        <pt x="411" y="615" on="0"/>
        <pt x="402" y="615" on="1"/>
        <pt x="129" y="615" on="1"/>
        <pt x="120" y="615" on="0"/>
        <pt x="120" y="607" on="1"/>
        <pt x="120" y="350" on="1"/>
        <pt x="120" y="342" on="0"/>
        <pt x="129" y="342" on="1"/>
        <pt x="376" y="342" on="1"/>
        <pt x="385" y="342" on="0"/>
        <pt x="385" y="334" on="1"/>
        <pt x="385" y="322" on="1"/>
        <pt x="385" y="314" on="0"/>
        <pt x="376" y="314" on="1"/>
        <pt x="129" y="314" on="1"/>
        <pt x="120" y="314" on="0"/>
        <pt x="120" y="306" on="1"/>
        <pt x="120" y="36" on="1"/>
        <pt x="120" y="28" on="0"/>
        <pt x="129" y="28" on="1"/>
        <pt x="402" y="28" on="1"/>
        <pt x="411" y="28" on="0"/>
        <pt x="411" y="20" on="1"/>
        <pt x="411" y="8" on="1"/>
        <pt x="411" y="0" on="0"/>
      </contour>
    </TTGlyph>
    <TTGlyph name="Ebreve" xMin="90" yMin="0" xMax="411" yMax="836">
      <contour>
        <pt x="148" y="827" on="1"/>
        <pt x="148" y="836" on="0"/>
        <pt x="156" y="836" on="1"/>
        <pt x="166" y="836" on="1"/>
        <pt x="174" y="836" on="0"/>
        <pt x="174" y="827" on="1"/>
        <pt x="174" y="815" on="1"/>
        <pt x="174" y="768" on="0"/>
        <pt x="204" y="729" on="0"/>
        <pt x="241" y="729" on="1"/>
        <pt x="245" y="729" on="1"/>
        <pt x="284" y="729" on="0"/>
        <pt x="315" y="768" on="0"/>
        <pt x="315" y="815" on="1"/>
        <pt x="315" y="826" on="1"/>
        <pt x="315" y="835" on="0"/>
        <pt x="323" y="835" on="1"/>
        <pt x="331" y="835" on="1"/>
        <pt x="339" y="835" on="0"/>
        <pt x="339" y="826" on="1"/>
        <pt x="339" y="814" on="1"/>
        <pt x="339" y="758" on="0"/>
        <pt x="293" y="707" on="0"/>
        <pt x="245" y="707" on="1"/>
        <pt x="241" y="707" on="1"/>
        <pt x="193" y="707" on="0"/>
        <pt x="148" y="758" on="0"/>
        <pt x="148" y="814" on="1"/>
      </contour>
      <contour>
        <pt x="402" y="0" on="1"/>
        <pt x="98" y="0" on="1"/>
        <pt x="90" y="0" on="0"/>
        <pt x="90" y="9" on="1"/>
        <pt x="90" y="634" on="1"/>
        <pt x="90" y="643" on="0"/>
        <pt x="98" y="643" on="1"/>
        <pt x="402" y="643" on="1"/>
        <pt x="411" y="643" on="0"/>
        <pt x="411" y="635" on="1"/>
        <pt x="411" y="623" on="1"/>
        <pt x="411" y="615" on="0"/>
        <pt x="402" y="615" on="1"/>
        <pt x="129" y="615" on="1"/>
        <pt x="120" y="615" on="0"/>
        <pt x="120" y="607" on="1"/>
        <pt x="120" y="350" on="1"/>
        <pt x="120" y="342" on="0"/>
        <pt x="129" y="342" on="1"/>
        <pt x="376" y="342" on="1"/>
        <pt x="385" y="342" on="0"/>
        <pt x="385" y="334" on="1"/>
        <pt x="385" y="322" on="1"/>
        <pt x="385" y="314" on="0"/>
        <pt x="376" y="314" on="1"/>
        <pt x="129" y="314" on="1"/>
        <pt x="120" y="314" on="0"/>
        <pt x="120" y="306" on="1"/>
        <pt x="120" y="36" on="1"/>
        <pt x="120" y="28" on="0"/>
        <pt x="129" y="28" on="1"/>
        <pt x="402" y="28" on="1"/>
        <pt x="411" y="28" on="0"/>
        <pt x="411" y="20" on="1"/>
        <pt x="411" y="8" on="1"/>
        <pt x="411" y="0" on="0"/>
      </contour>
    </TTGlyph>
    <TTGlyph name="Ecaron" xMin="90" yMin="0" xMax="411" yMax="836">
      <contour>
        <pt x="245" y="707" on="1"/>
        <pt x="232" y="707" on="0"/>
        <pt x="226" y="716" on="1"/>
        <pt x="162" y="825" on="1"/>
        <pt x="155" y="836" on="0"/>
        <pt x="166" y="836" on="1"/>
        <pt x="180" y="836" on="1"/>
        <pt x="188" y="836" on="0"/>
        <pt x="191" y="831" on="1"/>
        <pt x="250" y="726" on="1"/>
        <pt x="309" y="831" on="1"/>
        <pt x="312" y="836" on="0"/>
        <pt x="320" y="836" on="1"/>
        <pt x="334" y="836" on="1"/>
        <pt x="345" y="836" on="0"/>
        <pt x="338" y="825" on="1"/>
        <pt x="274" y="716" on="1"/>
        <pt x="268" y="707" on="0"/>
        <pt x="255" y="707" on="1"/>
      </contour>
      <contour>
        <pt x="402" y="0" on="1"/>
        <pt x="98" y="0" on="1"/>
        <pt x="90" y="0" on="0"/>
        <pt x="90" y="9" on="1"/>
        <pt x="90" y="634" on="1"/>
        <pt x="90" y="643" on="0"/>
        <pt x="98" y="643" on="1"/>
        <pt x="402" y="643" on="1"/>
        <pt x="411" y="643" on="0"/>
        <pt x="411" y="635" on="1"/>
        <pt x="411" y="623" on="1"/>
        <pt x="411" y="615" on="0"/>
        <pt x="402" y="615" on="1"/>
        <pt x="129" y="615" on="1"/>
        <pt x="120" y="615" on="0"/>
        <pt x="120" y="607" on="1"/>
        <pt x="120" y="350" on="1"/>
        <pt x="120" y="342" on="0"/>
        <pt x="129" y="342" on="1"/>
        <pt x="376" y="342" on="1"/>
        <pt x="385" y="342" on="0"/>
        <pt x="385" y="334" on="1"/>
        <pt x="385" y="322" on="1"/>
        <pt x="385" y="314" on="0"/>
        <pt x="376" y="314" on="1"/>
        <pt x="129" y="314" on="1"/>
        <pt x="120" y="314" on="0"/>
        <pt x="120" y="306" on="1"/>
        <pt x="120" y="36" on="1"/>
        <pt x="120" y="28" on="0"/>
        <pt x="129" y="28" on="1"/>
        <pt x="402" y="28" on="1"/>
        <pt x="411" y="28" on="0"/>
        <pt x="411" y="20" on="1"/>
        <pt x="411" y="8" on="1"/>
        <pt x="411" y="0" on="0"/>
      </contour>
    </TTGlyph>
    <TTGlyph name="Ecircumflex" xMin="90" yMin="0" xMax="411" yMax="836">
      <contour>
        <pt x="334" y="707" on="1"/>
        <pt x="320" y="707" on="1"/>
        <pt x="312" y="707" on="0"/>
        <pt x="309" y="712" on="1"/>
        <pt x="250" y="817" on="1"/>
        <pt x="191" y="712" on="1"/>
        <pt x="188" y="707" on="0"/>
        <pt x="180" y="707" on="1"/>
        <pt x="166" y="707" on="1"/>
        <pt x="155" y="707" on="0"/>
        <pt x="162" y="718" on="1"/>
        <pt x="226" y="827" on="1"/>
        <pt x="232" y="836" on="0"/>
        <pt x="245" y="836" on="1"/>
        <pt x="255" y="836" on="1"/>
        <pt x="268" y="836" on="0"/>
        <pt x="274" y="827" on="1"/>
        <pt x="338" y="718" on="1"/>
        <pt x="345" y="707" on="0"/>
      </contour>
      <contour>
        <pt x="402" y="0" on="1"/>
        <pt x="98" y="0" on="1"/>
        <pt x="90" y="0" on="0"/>
        <pt x="90" y="9" on="1"/>
        <pt x="90" y="634" on="1"/>
        <pt x="90" y="643" on="0"/>
        <pt x="98" y="643" on="1"/>
        <pt x="402" y="643" on="1"/>
        <pt x="411" y="643" on="0"/>
        <pt x="411" y="635" on="1"/>
        <pt x="411" y="623" on="1"/>
        <pt x="411" y="615" on="0"/>
        <pt x="402" y="615" on="1"/>
        <pt x="129" y="615" on="1"/>
        <pt x="120" y="615" on="0"/>
        <pt x="120" y="607" on="1"/>
        <pt x="120" y="350" on="1"/>
        <pt x="120" y="342" on="0"/>
        <pt x="129" y="342" on="1"/>
        <pt x="376" y="342" on="1"/>
        <pt x="385" y="342" on="0"/>
        <pt x="385" y="334" on="1"/>
        <pt x="385" y="322" on="1"/>
        <pt x="385" y="314" on="0"/>
        <pt x="376" y="314" on="1"/>
        <pt x="129" y="314" on="1"/>
        <pt x="120" y="314" on="0"/>
        <pt x="120" y="306" on="1"/>
        <pt x="120" y="36" on="1"/>
        <pt x="120" y="28" on="0"/>
        <pt x="129" y="28" on="1"/>
        <pt x="402" y="28" on="1"/>
        <pt x="411" y="28" on="0"/>
        <pt x="411" y="20" on="1"/>
        <pt x="411" y="8" on="1"/>
        <pt x="411" y="0" on="0"/>
      </contour>
    </TTGlyph>
    <TTGlyph name="Edieresis" xMin="90" yMin="0" xMax="411" yMax="836">
      <contour>
        <pt x="157" y="716" on="1"/>
        <pt x="157" y="827" on="1"/>
        <pt x="157" y="836" on="0"/>
        <pt x="165" y="836" on="1"/>
        <pt x="179" y="836" on="1"/>
        <pt x="187" y="836" on="0"/>
        <pt x="187" y="827" on="1"/>
        <pt x="187" y="716" on="1"/>
        <pt x="187" y="707" on="0"/>
        <pt x="179" y="707" on="1"/>
        <pt x="165" y="707" on="1"/>
        <pt x="157" y="707" on="0"/>
      </contour>
      <contour>
        <pt x="313" y="716" on="1"/>
        <pt x="313" y="827" on="1"/>
        <pt x="313" y="836" on="0"/>
        <pt x="321" y="836" on="1"/>
        <pt x="335" y="836" on="1"/>
        <pt x="343" y="836" on="0"/>
        <pt x="343" y="827" on="1"/>
        <pt x="343" y="716" on="1"/>
        <pt x="343" y="707" on="0"/>
        <pt x="335" y="707" on="1"/>
        <pt x="321" y="707" on="1"/>
        <pt x="313" y="707" on="0"/>
      </contour>
      <contour>
        <pt x="402" y="0" on="1"/>
        <pt x="98" y="0" on="1"/>
        <pt x="90" y="0" on="0"/>
        <pt x="90" y="9" on="1"/>
        <pt x="90" y="634" on="1"/>
        <pt x="90" y="643" on="0"/>
        <pt x="98" y="643" on="1"/>
        <pt x="402" y="643" on="1"/>
        <pt x="411" y="643" on="0"/>
        <pt x="411" y="635" on="1"/>
        <pt x="411" y="623" on="1"/>
        <pt x="411" y="615" on="0"/>
        <pt x="402" y="615" on="1"/>
        <pt x="129" y="615" on="1"/>
        <pt x="120" y="615" on="0"/>
        <pt x="120" y="607" on="1"/>
        <pt x="120" y="350" on="1"/>
        <pt x="120" y="342" on="0"/>
        <pt x="129" y="342" on="1"/>
        <pt x="376" y="342" on="1"/>
        <pt x="385" y="342" on="0"/>
        <pt x="385" y="334" on="1"/>
        <pt x="385" y="322" on="1"/>
        <pt x="385" y="314" on="0"/>
        <pt x="376" y="314" on="1"/>
        <pt x="129" y="314" on="1"/>
        <pt x="120" y="314" on="0"/>
        <pt x="120" y="306" on="1"/>
        <pt x="120" y="36" on="1"/>
        <pt x="120" y="28" on="0"/>
        <pt x="129" y="28" on="1"/>
        <pt x="402" y="28" on="1"/>
        <pt x="411" y="28" on="0"/>
        <pt x="411" y="20" on="1"/>
        <pt x="411" y="8" on="1"/>
        <pt x="411" y="0" on="0"/>
      </contour>
    </TTGlyph>
    <TTGlyph name="Edotaccent" xMin="90" yMin="0" xMax="411" yMax="830">
      <contour>
        <pt x="235" y="722" on="1"/>
        <pt x="235" y="821" on="1"/>
        <pt x="235" y="830" on="0"/>
        <pt x="243" y="830" on="1"/>
        <pt x="257" y="830" on="1"/>
        <pt x="265" y="830" on="0"/>
        <pt x="265" y="821" on="1"/>
        <pt x="265" y="722" on="1"/>
        <pt x="265" y="713" on="0"/>
        <pt x="257" y="713" on="1"/>
        <pt x="243" y="713" on="1"/>
        <pt x="235" y="713" on="0"/>
      </contour>
      <contour>
        <pt x="402" y="0" on="1"/>
        <pt x="98" y="0" on="1"/>
        <pt x="90" y="0" on="0"/>
        <pt x="90" y="9" on="1"/>
        <pt x="90" y="634" on="1"/>
        <pt x="90" y="643" on="0"/>
        <pt x="98" y="643" on="1"/>
        <pt x="402" y="643" on="1"/>
        <pt x="411" y="643" on="0"/>
        <pt x="411" y="635" on="1"/>
        <pt x="411" y="623" on="1"/>
        <pt x="411" y="615" on="0"/>
        <pt x="402" y="615" on="1"/>
        <pt x="129" y="615" on="1"/>
        <pt x="120" y="615" on="0"/>
        <pt x="120" y="607" on="1"/>
        <pt x="120" y="350" on="1"/>
        <pt x="120" y="342" on="0"/>
        <pt x="129" y="342" on="1"/>
        <pt x="376" y="342" on="1"/>
        <pt x="385" y="342" on="0"/>
        <pt x="385" y="334" on="1"/>
        <pt x="385" y="322" on="1"/>
        <pt x="385" y="314" on="0"/>
        <pt x="376" y="314" on="1"/>
        <pt x="129" y="314" on="1"/>
        <pt x="120" y="314" on="0"/>
        <pt x="120" y="306" on="1"/>
        <pt x="120" y="36" on="1"/>
        <pt x="120" y="28" on="0"/>
        <pt x="129" y="28" on="1"/>
        <pt x="402" y="28" on="1"/>
        <pt x="411" y="28" on="0"/>
        <pt x="411" y="20" on="1"/>
        <pt x="411" y="8" on="1"/>
        <pt x="411" y="0" on="0"/>
      </contour>
    </TTGlyph>
    <TTGlyph name="Egrave" xMin="90" yMin="0" xMax="411" yMax="836">
      <contour>
        <pt x="268" y="707" on="1"/>
        <pt x="260" y="707" on="1"/>
        <pt x="252" y="707" on="0"/>
        <pt x="246" y="715" on="1"/>
        <pt x="154" y="827" on="1"/>
        <pt x="151" y="831" on="0"/>
        <pt x="154" y="836" on="0"/>
        <pt x="158" y="836" on="1"/>
        <pt x="188" y="836" on="1"/>
        <pt x="198" y="836" on="0"/>
        <pt x="203" y="827" on="1"/>
        <pt x="271" y="716" on="1"/>
        <pt x="276" y="707" on="0"/>
      </contour>
      <contour>
        <pt x="402" y="0" on="1"/>
        <pt x="98" y="0" on="1"/>
        <pt x="90" y="0" on="0"/>
        <pt x="90" y="9" on="1"/>
        <pt x="90" y="634" on="1"/>
        <pt x="90" y="643" on="0"/>
        <pt x="98" y="643" on="1"/>
        <pt x="402" y="643" on="1"/>
        <pt x="411" y="643" on="0"/>
        <pt x="411" y="635" on="1"/>
        <pt x="411" y="623" on="1"/>
        <pt x="411" y="615" on="0"/>
        <pt x="402" y="615" on="1"/>
        <pt x="129" y="615" on="1"/>
        <pt x="120" y="615" on="0"/>
        <pt x="120" y="607" on="1"/>
        <pt x="120" y="350" on="1"/>
        <pt x="120" y="342" on="0"/>
        <pt x="129" y="342" on="1"/>
        <pt x="376" y="342" on="1"/>
        <pt x="385" y="342" on="0"/>
        <pt x="385" y="334" on="1"/>
        <pt x="385" y="322" on="1"/>
        <pt x="385" y="314" on="0"/>
        <pt x="376" y="314" on="1"/>
        <pt x="129" y="314" on="1"/>
        <pt x="120" y="314" on="0"/>
        <pt x="120" y="306" on="1"/>
        <pt x="120" y="36" on="1"/>
        <pt x="120" y="28" on="0"/>
        <pt x="129" y="28" on="1"/>
        <pt x="402" y="28" on="1"/>
        <pt x="411" y="28" on="0"/>
        <pt x="411" y="20" on="1"/>
        <pt x="411" y="8" on="1"/>
        <pt x="411" y="0" on="0"/>
      </contour>
    </TTGlyph>
    <TTGlyph name="Emacron" xMin="90" yMin="0" xMax="411" yMax="785">
      <contour>
        <pt x="352" y="757" on="1"/>
        <pt x="148" y="757" on="1"/>
        <pt x="139" y="757" on="0"/>
        <pt x="139" y="765" on="1"/>
        <pt x="139" y="777" on="1"/>
        <pt x="139" y="785" on="0"/>
        <pt x="148" y="785" on="1"/>
        <pt x="352" y="785" on="1"/>
        <pt x="361" y="785" on="0"/>
        <pt x="361" y="777" on="1"/>
        <pt x="361" y="765" on="1"/>
        <pt x="361" y="757" on="0"/>
      </contour>
      <contour>
        <pt x="402" y="0" on="1"/>
        <pt x="98" y="0" on="1"/>
        <pt x="90" y="0" on="0"/>
        <pt x="90" y="9" on="1"/>
        <pt x="90" y="634" on="1"/>
        <pt x="90" y="643" on="0"/>
        <pt x="98" y="643" on="1"/>
        <pt x="402" y="643" on="1"/>
        <pt x="411" y="643" on="0"/>
        <pt x="411" y="635" on="1"/>
        <pt x="411" y="623" on="1"/>
        <pt x="411" y="615" on="0"/>
        <pt x="402" y="615" on="1"/>
        <pt x="129" y="615" on="1"/>
        <pt x="120" y="615" on="0"/>
        <pt x="120" y="607" on="1"/>
        <pt x="120" y="350" on="1"/>
        <pt x="120" y="342" on="0"/>
        <pt x="129" y="342" on="1"/>
        <pt x="376" y="342" on="1"/>
        <pt x="385" y="342" on="0"/>
        <pt x="385" y="334" on="1"/>
        <pt x="385" y="322" on="1"/>
        <pt x="385" y="314" on="0"/>
        <pt x="376" y="314" on="1"/>
        <pt x="129" y="314" on="1"/>
        <pt x="120" y="314" on="0"/>
        <pt x="120" y="306" on="1"/>
        <pt x="120" y="36" on="1"/>
        <pt x="120" y="28" on="0"/>
        <pt x="129" y="28" on="1"/>
        <pt x="402" y="28" on="1"/>
        <pt x="411" y="28" on="0"/>
        <pt x="411" y="20" on="1"/>
        <pt x="411" y="8" on="1"/>
        <pt x="411" y="0" on="0"/>
      </contour>
    </TTGlyph>
    <TTGlyph name="Eng" xMin="90" yMin="-133" xMax="488" yMax="643">
      <contour>
        <pt x="354" y="-133" on="1"/>
        <pt x="334" y="-133" on="1"/>
        <pt x="325" y="-133" on="0"/>
        <pt x="325" y="-125" on="1"/>
        <pt x="325" y="-113" on="1"/>
        <pt x="325" y="-105" on="0"/>
        <pt x="334" y="-105" on="1"/>
        <pt x="354" y="-105" on="1"/>
        <pt x="404" y="-105" on="0"/>
        <pt x="458" y="-47" on="0"/>
        <pt x="458" y="4" on="1"/>
        <pt x="458" y="8" on="1"/>
        <pt x="124" y="573" on="1"/>
        <pt x="120" y="573" on="1"/>
        <pt x="120" y="9" on="1"/>
        <pt x="120" y="0" on="0"/>
        <pt x="112" y="0" on="1"/>
        <pt x="98" y="0" on="1"/>
        <pt x="90" y="0" on="0"/>
        <pt x="90" y="9" on="1"/>
        <pt x="90" y="634" on="1"/>
        <pt x="90" y="643" on="0"/>
        <pt x="98" y="643" on="1"/>
        <pt x="112" y="643" on="1"/>
        <pt x="117" y="643" on="0"/>
        <pt x="119" y="639" on="1"/>
        <pt x="454" y="72" on="1"/>
        <pt x="458" y="72" on="1"/>
        <pt x="458" y="634" on="1"/>
        <pt x="458" y="643" on="0"/>
        <pt x="466" y="643" on="1"/>
        <pt x="480" y="643" on="1"/>
        <pt x="488" y="643" on="0"/>
        <pt x="488" y="634" on="1"/>
        <pt x="488" y="3" on="1"/>
        <pt x="488" y="-59" on="0"/>
        <pt x="415" y="-133" on="0"/>
      </contour>
    </TTGlyph>
    <TTGlyph name="Eogonek" xMin="90" yMin="-101" xMax="411" yMax="643">
      <contour>
        <pt x="402" y="615" on="1"/>
        <pt x="129" y="615" on="1"/>
        <pt x="120" y="615" on="0"/>
        <pt x="120" y="607" on="1"/>
        <pt x="120" y="350" on="1"/>
        <pt x="120" y="342" on="0"/>
        <pt x="129" y="342" on="1"/>
        <pt x="376" y="342" on="1"/>
        <pt x="385" y="342" on="0"/>
        <pt x="385" y="334" on="1"/>
        <pt x="385" y="322" on="1"/>
        <pt x="385" y="314" on="0"/>
        <pt x="376" y="314" on="1"/>
        <pt x="129" y="314" on="1"/>
        <pt x="120" y="314" on="0"/>
        <pt x="120" y="306" on="1"/>
        <pt x="120" y="36" on="1"/>
        <pt x="120" y="28" on="0"/>
        <pt x="129" y="28" on="1"/>
        <pt x="402" y="28" on="1"/>
        <pt x="411" y="28" on="0"/>
        <pt x="411" y="20" on="1"/>
        <pt x="411" y="8" on="1"/>
        <pt x="411" y="0" on="0"/>
        <pt x="402" y="0" on="1"/>
        <pt x="348" y="0" on="1"/>
        <pt x="291" y="-74" on="1"/>
        <pt x="329" y="-74" on="1"/>
        <pt x="358" y="-74" on="0"/>
        <pt x="358" y="-84" on="1"/>
        <pt x="358" y="-101" on="0"/>
        <pt x="291" y="-101" on="1"/>
        <pt x="268" y="-101" on="0"/>
        <pt x="255" y="-79" on="0"/>
        <pt x="267" y="-66" on="1"/>
        <pt x="319" y="0" on="1"/>
        <pt x="98" y="0" on="1"/>
        <pt x="90" y="0" on="0"/>
        <pt x="90" y="9" on="1"/>
        <pt x="90" y="634" on="1"/>
        <pt x="90" y="643" on="0"/>
        <pt x="98" y="643" on="1"/>
        <pt x="402" y="643" on="1"/>
        <pt x="411" y="643" on="0"/>
        <pt x="411" y="635" on="1"/>
        <pt x="411" y="623" on="1"/>
        <pt x="411" y="615" on="0"/>
      </contour>
    </TTGlyph>
    <TTGlyph name="Eth" xMin="26" yMin="0" xMax="478" yMax="643">
      <contour>
        <pt x="129" y="28" on="1"/>
        <pt x="344" y="28" on="1"/>
        <pt x="394" y="28" on="0"/>
        <pt x="448" y="86" on="0"/>
        <pt x="448" y="137" on="1"/>
        <pt x="448" y="506" on="1"/>
        <pt x="448" y="557" on="0"/>
        <pt x="394" y="615" on="0"/>
        <pt x="344" y="615" on="1"/>
        <pt x="129" y="615" on="1"/>
        <pt x="120" y="615" on="0"/>
        <pt x="120" y="607" on="1"/>
        <pt x="120" y="348" on="1"/>
        <pt x="120" y="340" on="0"/>
        <pt x="129" y="340" on="1"/>
        <pt x="295" y="340" on="1"/>
        <pt x="304" y="340" on="0"/>
        <pt x="304" y="332" on="1"/>
        <pt x="304" y="320" on="1"/>
        <pt x="304" y="312" on="0"/>
        <pt x="295" y="312" on="1"/>
        <pt x="129" y="312" on="1"/>
        <pt x="120" y="312" on="0"/>
        <pt x="120" y="304" on="1"/>
        <pt x="120" y="36" on="1"/>
        <pt x="120" y="28" on="0"/>
      </contour>
      <contour>
        <pt x="344" y="0" on="1"/>
        <pt x="98" y="0" on="1"/>
        <pt x="90" y="0" on="0"/>
        <pt x="90" y="9" on="1"/>
        <pt x="90" y="304" on="1"/>
        <pt x="90" y="312" on="0"/>
        <pt x="81" y="312" on="1"/>
        <pt x="35" y="312" on="1"/>
        <pt x="26" y="312" on="0"/>
        <pt x="26" y="320" on="1"/>
        <pt x="26" y="332" on="1"/>
        <pt x="26" y="340" on="0"/>
        <pt x="35" y="340" on="1"/>
        <pt x="81" y="340" on="1"/>
        <pt x="90" y="340" on="0"/>
        <pt x="90" y="348" on="1"/>
        <pt x="90" y="634" on="1"/>
        <pt x="90" y="643" on="0"/>
        <pt x="98" y="643" on="1"/>
        <pt x="344" y="643" on="1"/>
        <pt x="405" y="643" on="0"/>
        <pt x="478" y="569" on="0"/>
        <pt x="478" y="507" on="1"/>
        <pt x="478" y="136" on="1"/>
        <pt x="478" y="74" on="0"/>
        <pt x="405" y="0" on="0"/>
      </contour>
    </TTGlyph>
    <TTGlyph name="Euro" xMin="40" yMin="0" xMax="447" yMax="643">
      <contour>
        <pt x="313" y="0" on="1"/>
        <pt x="248" y="0" on="1"/>
        <pt x="187" y="0" on="0"/>
        <pt x="114" y="71" on="0"/>
        <pt x="114" y="133" on="1"/>
        <pt x="114" y="247" on="1"/>
        <pt x="49" y="247" on="1"/>
        <pt x="40" y="247" on="0"/>
        <pt x="40" y="255" on="1"/>
        <pt x="40" y="267" on="1"/>
        <pt x="40" y="275" on="0"/>
        <pt x="49" y="275" on="1"/>
        <pt x="114" y="275" on="1"/>
        <pt x="114" y="367" on="1"/>
        <pt x="49" y="367" on="1"/>
        <pt x="40" y="367" on="0"/>
        <pt x="40" y="375" on="1"/>
        <pt x="40" y="387" on="1"/>
        <pt x="40" y="395" on="0"/>
        <pt x="49" y="395" on="1"/>
        <pt x="114" y="395" on="1"/>
        <pt x="114" y="510" on="1"/>
        <pt x="114" y="572" on="0"/>
        <pt x="187" y="643" on="0"/>
        <pt x="248" y="643" on="1"/>
        <pt x="313" y="643" on="1"/>
        <pt x="374" y="643" on="0"/>
        <pt x="447" y="572" on="0"/>
        <pt x="447" y="510" on="1"/>
        <pt x="447" y="481" on="1"/>
        <pt x="447" y="472" on="0"/>
        <pt x="439" y="472" on="1"/>
        <pt x="425" y="472" on="1"/>
        <pt x="417" y="472" on="0"/>
        <pt x="417" y="481" on="1"/>
        <pt x="417" y="509" on="1"/>
        <pt x="417" y="560" on="0"/>
        <pt x="363" y="615" on="0"/>
        <pt x="313" y="615" on="1"/>
        <pt x="248" y="615" on="1"/>
        <pt x="198" y="615" on="0"/>
        <pt x="144" y="560" on="0"/>
        <pt x="144" y="509" on="1"/>
        <pt x="144" y="395" on="1"/>
        <pt x="320" y="395" on="1"/>
        <pt x="329" y="395" on="0"/>
        <pt x="329" y="387" on="1"/>
        <pt x="329" y="375" on="1"/>
        <pt x="329" y="367" on="0"/>
        <pt x="320" y="367" on="1"/>
        <pt x="144" y="367" on="1"/>
        <pt x="144" y="275" on="1"/>
        <pt x="320" y="275" on="1"/>
        <pt x="329" y="275" on="0"/>
        <pt x="329" y="267" on="1"/>
        <pt x="329" y="255" on="1"/>
        <pt x="329" y="247" on="0"/>
        <pt x="320" y="247" on="1"/>
        <pt x="144" y="247" on="1"/>
        <pt x="144" y="134" on="1"/>
        <pt x="144" y="83" on="0"/>
        <pt x="198" y="28" on="0"/>
        <pt x="248" y="28" on="1"/>
        <pt x="313" y="28" on="1"/>
        <pt x="363" y="28" on="0"/>
        <pt x="417" y="83" on="0"/>
        <pt x="417" y="134" on="1"/>
        <pt x="417" y="162" on="1"/>
        <pt x="417" y="171" on="0"/>
        <pt x="425" y="171" on="1"/>
        <pt x="439" y="171" on="1"/>
        <pt x="447" y="171" on="0"/>
        <pt x="447" y="162" on="1"/>
        <pt x="447" y="133" on="1"/>
        <pt x="447" y="71" on="0"/>
        <pt x="374" y="0" on="0"/>
      </contour>
    </TTGlyph>
    <TTGlyph name="F" xMin="90" yMin="0" xMax="412" yMax="643">
      <contour>
        <pt x="112" y="0" on="1"/>
        <pt x="98" y="0" on="1"/>
        <pt x="90" y="0" on="0"/>
        <pt x="90" y="9" on="1"/>
        <pt x="90" y="634" on="1"/>
        <pt x="90" y="643" on="0"/>
        <pt x="98" y="643" on="1"/>
        <pt x="403" y="643" on="1"/>
        <pt x="412" y="643" on="0"/>
        <pt x="412" y="635" on="1"/>
        <pt x="412" y="623" on="1"/>
        <pt x="412" y="615" on="0"/>
        <pt x="403" y="615" on="1"/>
        <pt x="129" y="615" on="1"/>
        <pt x="120" y="615" on="0"/>
        <pt x="120" y="607" on="1"/>
        <pt x="120" y="341" on="1"/>
        <pt x="120" y="333" on="0"/>
        <pt x="129" y="333" on="1"/>
        <pt x="376" y="333" on="1"/>
        <pt x="385" y="333" on="0"/>
        <pt x="385" y="325" on="1"/>
        <pt x="385" y="313" on="1"/>
        <pt x="385" y="305" on="0"/>
        <pt x="376" y="305" on="1"/>
        <pt x="129" y="305" on="1"/>
        <pt x="120" y="305" on="0"/>
        <pt x="120" y="297" on="1"/>
        <pt x="120" y="9" on="1"/>
        <pt x="120" y="0" on="0"/>
      </contour>
    </TTGlyph>
    <TTGlyph name="G" xMin="80" yMin="0" xMax="458" yMax="643">
      <contour>
        <pt x="324" y="0" on="1"/>
        <pt x="214" y="0" on="1"/>
        <pt x="153" y="0" on="0"/>
        <pt x="80" y="74" on="0"/>
        <pt x="80" y="136" on="1"/>
        <pt x="80" y="507" on="1"/>
        <pt x="80" y="569" on="0"/>
        <pt x="153" y="643" on="0"/>
        <pt x="214" y="643" on="1"/>
        <pt x="324" y="643" on="1"/>
        <pt x="385" y="643" on="0"/>
        <pt x="458" y="569" on="0"/>
        <pt x="458" y="507" on="1"/>
        <pt x="458" y="457" on="1"/>
        <pt x="458" y="448" on="0"/>
        <pt x="450" y="448" on="1"/>
        <pt x="436" y="448" on="1"/>
        <pt x="428" y="448" on="0"/>
        <pt x="428" y="457" on="1"/>
        <pt x="428" y="506" on="1"/>
        <pt x="428" y="557" on="0"/>
        <pt x="374" y="615" on="0"/>
        <pt x="324" y="615" on="1"/>
        <pt x="214" y="615" on="1"/>
        <pt x="164" y="615" on="0"/>
        <pt x="110" y="557" on="0"/>
        <pt x="110" y="506" on="1"/>
        <pt x="110" y="137" on="1"/>
        <pt x="110" y="86" on="0"/>
        <pt x="164" y="28" on="0"/>
        <pt x="214" y="28" on="1"/>
        <pt x="324" y="28" on="1"/>
        <pt x="374" y="28" on="0"/>
        <pt x="428" y="86" on="0"/>
        <pt x="428" y="137" on="1"/>
        <pt x="428" y="288" on="1"/>
        <pt x="428" y="296" on="0"/>
        <pt x="419" y="296" on="1"/>
        <pt x="290" y="296" on="1"/>
        <pt x="281" y="296" on="0"/>
        <pt x="281" y="304" on="1"/>
        <pt x="281" y="316" on="1"/>
        <pt x="281" y="324" on="0"/>
        <pt x="290" y="324" on="1"/>
        <pt x="440" y="324" on="1"/>
        <pt x="458" y="324" on="0"/>
        <pt x="458" y="305" on="1"/>
        <pt x="458" y="136" on="1"/>
        <pt x="458" y="74" on="0"/>
        <pt x="385" y="0" on="0"/>
      </contour>
    </TTGlyph>
    <TTGlyph name="Gbreve" xMin="80" yMin="0" xMax="458" yMax="836">
      <contour>
        <pt x="174" y="827" on="1"/>
        <pt x="174" y="836" on="0"/>
        <pt x="182" y="836" on="1"/>
        <pt x="192" y="836" on="1"/>
        <pt x="200" y="836" on="0"/>
        <pt x="200" y="827" on="1"/>
        <pt x="200" y="815" on="1"/>
        <pt x="200" y="768" on="0"/>
        <pt x="230" y="729" on="0"/>
        <pt x="267" y="729" on="1"/>
        <pt x="271" y="729" on="1"/>
        <pt x="310" y="729" on="0"/>
        <pt x="341" y="768" on="0"/>
        <pt x="341" y="815" on="1"/>
        <pt x="341" y="826" on="1"/>
        <pt x="341" y="835" on="0"/>
        <pt x="349" y="835" on="1"/>
        <pt x="357" y="835" on="1"/>
        <pt x="365" y="835" on="0"/>
        <pt x="365" y="826" on="1"/>
        <pt x="365" y="814" on="1"/>
        <pt x="365" y="758" on="0"/>
        <pt x="319" y="707" on="0"/>
        <pt x="271" y="707" on="1"/>
        <pt x="267" y="707" on="1"/>
        <pt x="219" y="707" on="0"/>
        <pt x="174" y="758" on="0"/>
        <pt x="174" y="814" on="1"/>
      </contour>
      <contour>
        <pt x="324" y="0" on="1"/>
        <pt x="214" y="0" on="1"/>
        <pt x="153" y="0" on="0"/>
        <pt x="80" y="74" on="0"/>
        <pt x="80" y="136" on="1"/>
        <pt x="80" y="507" on="1"/>
        <pt x="80" y="569" on="0"/>
        <pt x="153" y="643" on="0"/>
        <pt x="214" y="643" on="1"/>
        <pt x="324" y="643" on="1"/>
        <pt x="385" y="643" on="0"/>
        <pt x="458" y="569" on="0"/>
        <pt x="458" y="507" on="1"/>
        <pt x="458" y="457" on="1"/>
        <pt x="458" y="448" on="0"/>
        <pt x="450" y="448" on="1"/>
        <pt x="436" y="448" on="1"/>
        <pt x="428" y="448" on="0"/>
        <pt x="428" y="457" on="1"/>
        <pt x="428" y="506" on="1"/>
        <pt x="428" y="557" on="0"/>
        <pt x="374" y="615" on="0"/>
        <pt x="324" y="615" on="1"/>
        <pt x="214" y="615" on="1"/>
        <pt x="164" y="615" on="0"/>
        <pt x="110" y="557" on="0"/>
        <pt x="110" y="506" on="1"/>
        <pt x="110" y="137" on="1"/>
        <pt x="110" y="86" on="0"/>
        <pt x="164" y="28" on="0"/>
        <pt x="214" y="28" on="1"/>
        <pt x="324" y="28" on="1"/>
        <pt x="374" y="28" on="0"/>
        <pt x="428" y="86" on="0"/>
        <pt x="428" y="137" on="1"/>
        <pt x="428" y="288" on="1"/>
        <pt x="428" y="296" on="0"/>
        <pt x="419" y="296" on="1"/>
        <pt x="290" y="296" on="1"/>
        <pt x="281" y="296" on="0"/>
        <pt x="281" y="304" on="1"/>
        <pt x="281" y="316" on="1"/>
        <pt x="281" y="324" on="0"/>
        <pt x="290" y="324" on="1"/>
        <pt x="440" y="324" on="1"/>
        <pt x="458" y="324" on="0"/>
        <pt x="458" y="305" on="1"/>
        <pt x="458" y="136" on="1"/>
        <pt x="458" y="74" on="0"/>
        <pt x="385" y="0" on="0"/>
      </contour>
    </TTGlyph>
    <TTGlyph name="Gcircumflex" xMin="80" yMin="0" xMax="458" yMax="836">
      <contour>
        <pt x="353" y="707" on="1"/>
        <pt x="339" y="707" on="1"/>
        <pt x="330" y="707" on="0"/>
        <pt x="328" y="712" on="1"/>
        <pt x="269" y="817" on="1"/>
        <pt x="210" y="712" on="1"/>
        <pt x="208" y="707" on="0"/>
        <pt x="199" y="707" on="1"/>
        <pt x="185" y="707" on="1"/>
        <pt x="174" y="707" on="0"/>
        <pt x="181" y="718" on="1"/>
        <pt x="245" y="827" on="1"/>
        <pt x="251" y="836" on="0"/>
        <pt x="264" y="836" on="1"/>
        <pt x="274" y="836" on="1"/>
        <pt x="287" y="836" on="0"/>
        <pt x="293" y="827" on="1"/>
        <pt x="357" y="718" on="1"/>
        <pt x="364" y="707" on="0"/>
      </contour>
      <contour>
        <pt x="324" y="0" on="1"/>
        <pt x="214" y="0" on="1"/>
        <pt x="153" y="0" on="0"/>
        <pt x="80" y="74" on="0"/>
        <pt x="80" y="136" on="1"/>
        <pt x="80" y="507" on="1"/>
        <pt x="80" y="569" on="0"/>
        <pt x="153" y="643" on="0"/>
        <pt x="214" y="643" on="1"/>
        <pt x="324" y="643" on="1"/>
        <pt x="385" y="643" on="0"/>
        <pt x="458" y="569" on="0"/>
        <pt x="458" y="507" on="1"/>
        <pt x="458" y="457" on="1"/>
        <pt x="458" y="448" on="0"/>
        <pt x="450" y="448" on="1"/>
        <pt x="436" y="448" on="1"/>
        <pt x="428" y="448" on="0"/>
        <pt x="428" y="457" on="1"/>
        <pt x="428" y="506" on="1"/>
        <pt x="428" y="557" on="0"/>
        <pt x="374" y="615" on="0"/>
        <pt x="324" y="615" on="1"/>
        <pt x="214" y="615" on="1"/>
        <pt x="164" y="615" on="0"/>
        <pt x="110" y="557" on="0"/>
        <pt x="110" y="506" on="1"/>
        <pt x="110" y="137" on="1"/>
        <pt x="110" y="86" on="0"/>
        <pt x="164" y="28" on="0"/>
        <pt x="214" y="28" on="1"/>
        <pt x="324" y="28" on="1"/>
        <pt x="374" y="28" on="0"/>
        <pt x="428" y="86" on="0"/>
        <pt x="428" y="137" on="1"/>
        <pt x="428" y="288" on="1"/>
        <pt x="428" y="296" on="0"/>
        <pt x="419" y="296" on="1"/>
        <pt x="290" y="296" on="1"/>
        <pt x="281" y="296" on="0"/>
        <pt x="281" y="304" on="1"/>
        <pt x="281" y="316" on="1"/>
        <pt x="281" y="324" on="0"/>
        <pt x="290" y="324" on="1"/>
        <pt x="440" y="324" on="1"/>
        <pt x="458" y="324" on="0"/>
        <pt x="458" y="305" on="1"/>
        <pt x="458" y="136" on="1"/>
        <pt x="458" y="74" on="0"/>
        <pt x="385" y="0" on="0"/>
      </contour>
    </TTGlyph>
    <TTGlyph name="Gdotaccent" xMin="80" yMin="0" xMax="458" yMax="830">
      <contour>
        <pt x="253" y="722" on="1"/>
        <pt x="253" y="821" on="1"/>
        <pt x="253" y="830" on="0"/>
        <pt x="261" y="830" on="1"/>
        <pt x="275" y="830" on="1"/>
        <pt x="283" y="830" on="0"/>
        <pt x="283" y="821" on="1"/>
        <pt x="283" y="722" on="1"/>
        <pt x="283" y="713" on="0"/>
        <pt x="275" y="713" on="1"/>
        <pt x="261" y="713" on="1"/>
        <pt x="253" y="713" on="0"/>
      </contour>
      <contour>
        <pt x="324" y="0" on="1"/>
        <pt x="214" y="0" on="1"/>
        <pt x="153" y="0" on="0"/>
        <pt x="80" y="74" on="0"/>
        <pt x="80" y="136" on="1"/>
        <pt x="80" y="507" on="1"/>
        <pt x="80" y="569" on="0"/>
        <pt x="153" y="643" on="0"/>
        <pt x="214" y="643" on="1"/>
        <pt x="324" y="643" on="1"/>
        <pt x="385" y="643" on="0"/>
        <pt x="458" y="569" on="0"/>
        <pt x="458" y="507" on="1"/>
        <pt x="458" y="457" on="1"/>
        <pt x="458" y="448" on="0"/>
        <pt x="450" y="448" on="1"/>
        <pt x="436" y="448" on="1"/>
        <pt x="428" y="448" on="0"/>
        <pt x="428" y="457" on="1"/>
        <pt x="428" y="506" on="1"/>
        <pt x="428" y="557" on="0"/>
        <pt x="374" y="615" on="0"/>
        <pt x="324" y="615" on="1"/>
        <pt x="214" y="615" on="1"/>
        <pt x="164" y="615" on="0"/>
        <pt x="110" y="557" on="0"/>
        <pt x="110" y="506" on="1"/>
        <pt x="110" y="137" on="1"/>
        <pt x="110" y="86" on="0"/>
        <pt x="164" y="28" on="0"/>
        <pt x="214" y="28" on="1"/>
        <pt x="324" y="28" on="1"/>
        <pt x="374" y="28" on="0"/>
        <pt x="428" y="86" on="0"/>
        <pt x="428" y="137" on="1"/>
        <pt x="428" y="288" on="1"/>
        <pt x="428" y="296" on="0"/>
        <pt x="419" y="296" on="1"/>
        <pt x="290" y="296" on="1"/>
        <pt x="281" y="296" on="0"/>
        <pt x="281" y="304" on="1"/>
        <pt x="281" y="316" on="1"/>
        <pt x="281" y="324" on="0"/>
        <pt x="290" y="324" on="1"/>
        <pt x="440" y="324" on="1"/>
        <pt x="458" y="324" on="0"/>
        <pt x="458" y="305" on="1"/>
        <pt x="458" y="136" on="1"/>
        <pt x="458" y="74" on="0"/>
        <pt x="385" y="0" on="0"/>
      </contour>
    </TTGlyph>
    <TTGlyph name="H" xMin="90" yMin="0" xMax="478" yMax="643">
      <contour>
        <pt x="112" y="0" on="1"/>
        <pt x="98" y="0" on="1"/>
        <pt x="90" y="0" on="0"/>
        <pt x="90" y="9" on="1"/>
        <pt x="90" y="634" on="1"/>
        <pt x="90" y="643" on="0"/>
        <pt x="98" y="643" on="1"/>
        <pt x="112" y="643" on="1"/>
        <pt x="120" y="643" on="0"/>
        <pt x="120" y="634" on="1"/>
        <pt x="120" y="350" on="1"/>
        <pt x="120" y="342" on="0"/>
        <pt x="129" y="342" on="1"/>
        <pt x="439" y="342" on="1"/>
        <pt x="448" y="342" on="0"/>
        <pt x="448" y="350" on="1"/>
        <pt x="448" y="634" on="1"/>
        <pt x="448" y="643" on="0"/>
        <pt x="456" y="643" on="1"/>
        <pt x="470" y="643" on="1"/>
        <pt x="478" y="643" on="0"/>
        <pt x="478" y="634" on="1"/>
        <pt x="478" y="9" on="1"/>
        <pt x="478" y="0" on="0"/>
        <pt x="470" y="0" on="1"/>
        <pt x="456" y="0" on="1"/>
        <pt x="448" y="0" on="0"/>
        <pt x="448" y="9" on="1"/>
        <pt x="448" y="306" on="1"/>
        <pt x="448" y="314" on="0"/>
        <pt x="439" y="314" on="1"/>
        <pt x="129" y="314" on="1"/>
        <pt x="120" y="314" on="0"/>
        <pt x="120" y="306" on="1"/>
        <pt x="120" y="9" on="1"/>
        <pt x="120" y="0" on="0"/>
      </contour>
    </TTGlyph>
    <TTGlyph name="Hbar" xMin="26" yMin="0" xMax="542" yMax="643">
      <contour>
        <pt x="112" y="0" on="1"/>
        <pt x="98" y="0" on="1"/>
        <pt x="90" y="0" on="0"/>
        <pt x="90" y="9" on="1"/>
        <pt x="90" y="464" on="1"/>
        <pt x="90" y="472" on="0"/>
        <pt x="81" y="472" on="1"/>
        <pt x="35" y="472" on="1"/>
        <pt x="26" y="472" on="0"/>
        <pt x="26" y="480" on="1"/>
        <pt x="26" y="492" on="1"/>
        <pt x="26" y="500" on="0"/>
        <pt x="35" y="500" on="1"/>
        <pt x="81" y="500" on="1"/>
        <pt x="90" y="500" on="0"/>
        <pt x="90" y="508" on="1"/>
        <pt x="90" y="634" on="1"/>
        <pt x="90" y="643" on="0"/>
        <pt x="98" y="643" on="1"/>
        <pt x="112" y="643" on="1"/>
        <pt x="120" y="643" on="0"/>
        <pt x="120" y="634" on="1"/>
        <pt x="120" y="508" on="1"/>
        <pt x="120" y="500" on="0"/>
        <pt x="129" y="500" on="1"/>
        <pt x="439" y="500" on="1"/>
        <pt x="448" y="500" on="0"/>
        <pt x="448" y="508" on="1"/>
        <pt x="448" y="634" on="1"/>
        <pt x="448" y="643" on="0"/>
        <pt x="456" y="643" on="1"/>
        <pt x="470" y="643" on="1"/>
        <pt x="478" y="643" on="0"/>
        <pt x="478" y="634" on="1"/>
        <pt x="478" y="508" on="1"/>
        <pt x="478" y="500" on="0"/>
        <pt x="487" y="500" on="1"/>
        <pt x="533" y="500" on="1"/>
        <pt x="542" y="500" on="0"/>
        <pt x="542" y="492" on="1"/>
        <pt x="542" y="480" on="1"/>
        <pt x="542" y="472" on="0"/>
        <pt x="533" y="472" on="1"/>
        <pt x="487" y="472" on="1"/>
        <pt x="478" y="472" on="0"/>
        <pt x="478" y="464" on="1"/>
        <pt x="478" y="9" on="1"/>
        <pt x="478" y="0" on="0"/>
        <pt x="470" y="0" on="1"/>
        <pt x="456" y="0" on="1"/>
        <pt x="448" y="0" on="0"/>
        <pt x="448" y="9" on="1"/>
        <pt x="448" y="306" on="1"/>
        <pt x="448" y="314" on="0"/>
        <pt x="439" y="314" on="1"/>
        <pt x="129" y="314" on="1"/>
        <pt x="120" y="314" on="0"/>
        <pt x="120" y="306" on="1"/>
        <pt x="120" y="9" on="1"/>
        <pt x="120" y="0" on="0"/>
      </contour>
      <contour>
        <pt x="129" y="342" on="1"/>
        <pt x="439" y="342" on="1"/>
        <pt x="448" y="342" on="0"/>
        <pt x="448" y="350" on="1"/>
        <pt x="448" y="464" on="1"/>
        <pt x="448" y="472" on="0"/>
        <pt x="439" y="472" on="1"/>
        <pt x="129" y="472" on="1"/>
        <pt x="120" y="472" on="0"/>
        <pt x="120" y="464" on="1"/>
        <pt x="120" y="350" on="1"/>
        <pt x="120" y="342" on="0"/>
      </contour>
    </TTGlyph>
    <TTGlyph name="I" xMin="95" yMin="0" xMax="125" yMax="643">
      <contour>
        <pt x="125" y="634" on="1"/>
        <pt x="125" y="9" on="1"/>
        <pt x="125" y="0" on="0"/>
        <pt x="117" y="0" on="1"/>
        <pt x="103" y="0" on="1"/>
        <pt x="95" y="0" on="0"/>
        <pt x="95" y="9" on="1"/>
        <pt x="95" y="634" on="1"/>
        <pt x="95" y="643" on="0"/>
        <pt x="103" y="643" on="1"/>
        <pt x="117" y="643" on="1"/>
        <pt x="125" y="643" on="0"/>
      </contour>
    </TTGlyph>
    <TTGlyph name="IJ" xMin="95" yMin="0" xMax="632" yMax="643">
      <contour>
        <pt x="610" y="643" on="1"/>
        <pt x="624" y="643" on="1"/>
        <pt x="632" y="643" on="0"/>
        <pt x="632" y="635" on="1"/>
        <pt x="632" y="136" on="1"/>
        <pt x="632" y="74" on="0"/>
        <pt x="559" y="0" on="0"/>
        <pt x="498" y="0" on="1"/>
        <pt x="398" y="0" on="1"/>
        <pt x="337" y="0" on="0"/>
        <pt x="264" y="74" on="0"/>
        <pt x="264" y="136" on="1"/>
        <pt x="264" y="216" on="1"/>
        <pt x="264" y="225" on="0"/>
        <pt x="272" y="225" on="1"/>
        <pt x="286" y="225" on="1"/>
        <pt x="294" y="225" on="0"/>
        <pt x="294" y="216" on="1"/>
        <pt x="294" y="137" on="1"/>
        <pt x="294" y="86" on="0"/>
        <pt x="348" y="28" on="0"/>
        <pt x="398" y="28" on="1"/>
        <pt x="498" y="28" on="1"/>
        <pt x="548" y="28" on="0"/>
        <pt x="602" y="86" on="0"/>
        <pt x="602" y="137" on="1"/>
        <pt x="602" y="634" on="1"/>
        <pt x="602" y="643" on="0"/>
      </contour>
      <contour>
        <pt x="125" y="634" on="1"/>
        <pt x="125" y="9" on="1"/>
        <pt x="125" y="0" on="0"/>
        <pt x="117" y="0" on="1"/>
        <pt x="103" y="0" on="1"/>
        <pt x="95" y="0" on="0"/>
        <pt x="95" y="9" on="1"/>
        <pt x="95" y="634" on="1"/>
        <pt x="95" y="643" on="0"/>
        <pt x="103" y="643" on="1"/>
        <pt x="117" y="643" on="1"/>
        <pt x="125" y="643" on="0"/>
      </contour>
    </TTGlyph>
    <TTGlyph name="Iacute" xMin="95" yMin="0" xMax="222" yMax="836">
      <contour>
        <pt x="186" y="836" on="1"/>
        <pt x="216" y="836" on="1"/>
        <pt x="220" y="836" on="0"/>
        <pt x="223" y="831" on="0"/>
        <pt x="220" y="827" on="1"/>
        <pt x="128" y="715" on="1"/>
        <pt x="122" y="707" on="0"/>
        <pt x="114" y="707" on="1"/>
        <pt x="106" y="707" on="1"/>
        <pt x="98" y="707" on="0"/>
        <pt x="103" y="716" on="1"/>
        <pt x="171" y="827" on="1"/>
        <pt x="176" y="836" on="0"/>
      </contour>
      <contour>
        <pt x="125" y="634" on="1"/>
        <pt x="125" y="9" on="1"/>
        <pt x="125" y="0" on="0"/>
        <pt x="117" y="0" on="1"/>
        <pt x="103" y="0" on="1"/>
        <pt x="95" y="0" on="0"/>
        <pt x="95" y="9" on="1"/>
        <pt x="95" y="634" on="1"/>
        <pt x="95" y="643" on="0"/>
        <pt x="103" y="643" on="1"/>
        <pt x="117" y="643" on="1"/>
        <pt x="125" y="643" on="0"/>
      </contour>
    </TTGlyph>
    <TTGlyph name="Ibreve" xMin="15" yMin="0" xMax="206" yMax="836">
      <contour>
        <pt x="15" y="827" on="1"/>
        <pt x="15" y="836" on="0"/>
        <pt x="23" y="836" on="1"/>
        <pt x="33" y="836" on="1"/>
        <pt x="41" y="836" on="0"/>
        <pt x="41" y="827" on="1"/>
        <pt x="41" y="815" on="1"/>
        <pt x="41" y="768" on="0"/>
        <pt x="71" y="729" on="0"/>
        <pt x="108" y="729" on="1"/>
        <pt x="112" y="729" on="1"/>
        <pt x="151" y="729" on="0"/>
        <pt x="182" y="768" on="0"/>
        <pt x="182" y="815" on="1"/>
        <pt x="182" y="826" on="1"/>
        <pt x="182" y="835" on="0"/>
        <pt x="190" y="835" on="1"/>
        <pt x="198" y="835" on="1"/>
        <pt x="206" y="835" on="0"/>
        <pt x="206" y="826" on="1"/>
        <pt x="206" y="814" on="1"/>
        <pt x="206" y="758" on="0"/>
        <pt x="160" y="707" on="0"/>
        <pt x="112" y="707" on="1"/>
        <pt x="108" y="707" on="1"/>
        <pt x="60" y="707" on="0"/>
        <pt x="15" y="758" on="0"/>
        <pt x="15" y="814" on="1"/>
      </contour>
      <contour>
        <pt x="125" y="634" on="1"/>
        <pt x="125" y="9" on="1"/>
        <pt x="125" y="0" on="0"/>
        <pt x="117" y="0" on="1"/>
        <pt x="103" y="0" on="1"/>
        <pt x="95" y="0" on="0"/>
        <pt x="95" y="9" on="1"/>
        <pt x="95" y="634" on="1"/>
        <pt x="95" y="643" on="0"/>
        <pt x="103" y="643" on="1"/>
        <pt x="117" y="643" on="1"/>
        <pt x="125" y="643" on="0"/>
      </contour>
    </TTGlyph>
    <TTGlyph name="Icircumflex" xMin="22" yMin="0" xMax="198" yMax="836">
      <contour>
        <pt x="194" y="707" on="1"/>
        <pt x="180" y="707" on="1"/>
        <pt x="172" y="707" on="0"/>
        <pt x="169" y="712" on="1"/>
        <pt x="110" y="817" on="1"/>
        <pt x="51" y="712" on="1"/>
        <pt x="48" y="707" on="0"/>
        <pt x="40" y="707" on="1"/>
        <pt x="26" y="707" on="1"/>
        <pt x="15" y="707" on="0"/>
        <pt x="22" y="718" on="1"/>
        <pt x="86" y="827" on="1"/>
        <pt x="92" y="836" on="0"/>
        <pt x="105" y="836" on="1"/>
        <pt x="115" y="836" on="1"/>
        <pt x="128" y="836" on="0"/>
        <pt x="134" y="827" on="1"/>
        <pt x="198" y="718" on="1"/>
        <pt x="205" y="707" on="0"/>
      </contour>
      <contour>
        <pt x="125" y="634" on="1"/>
        <pt x="125" y="9" on="1"/>
        <pt x="125" y="0" on="0"/>
        <pt x="117" y="0" on="1"/>
        <pt x="103" y="0" on="1"/>
        <pt x="95" y="0" on="0"/>
        <pt x="95" y="9" on="1"/>
        <pt x="95" y="634" on="1"/>
        <pt x="95" y="643" on="0"/>
        <pt x="103" y="643" on="1"/>
        <pt x="117" y="643" on="1"/>
        <pt x="125" y="643" on="0"/>
      </contour>
    </TTGlyph>
    <TTGlyph name="Idieresis" xMin="17" yMin="0" xMax="203" yMax="836">
      <contour>
        <pt x="17" y="716" on="1"/>
        <pt x="17" y="827" on="1"/>
        <pt x="17" y="836" on="0"/>
        <pt x="25" y="836" on="1"/>
        <pt x="39" y="836" on="1"/>
        <pt x="47" y="836" on="0"/>
        <pt x="47" y="827" on="1"/>
        <pt x="47" y="716" on="1"/>
        <pt x="47" y="707" on="0"/>
        <pt x="39" y="707" on="1"/>
        <pt x="25" y="707" on="1"/>
        <pt x="17" y="707" on="0"/>
      </contour>
      <contour>
        <pt x="173" y="716" on="1"/>
        <pt x="173" y="827" on="1"/>
        <pt x="173" y="836" on="0"/>
        <pt x="181" y="836" on="1"/>
        <pt x="195" y="836" on="1"/>
        <pt x="203" y="836" on="0"/>
        <pt x="203" y="827" on="1"/>
        <pt x="203" y="716" on="1"/>
        <pt x="203" y="707" on="0"/>
        <pt x="195" y="707" on="1"/>
        <pt x="181" y="707" on="1"/>
        <pt x="173" y="707" on="0"/>
      </contour>
      <contour>
        <pt x="125" y="634" on="1"/>
        <pt x="125" y="9" on="1"/>
        <pt x="125" y="0" on="0"/>
        <pt x="117" y="0" on="1"/>
        <pt x="103" y="0" on="1"/>
        <pt x="95" y="0" on="0"/>
        <pt x="95" y="9" on="1"/>
        <pt x="95" y="634" on="1"/>
        <pt x="95" y="643" on="0"/>
        <pt x="103" y="643" on="1"/>
        <pt x="117" y="643" on="1"/>
        <pt x="125" y="643" on="0"/>
      </contour>
    </TTGlyph>
    <TTGlyph name="Idotaccent" xMin="95" yMin="0" xMax="125" yMax="800">
      <contour>
        <pt x="125" y="634" on="1"/>
        <pt x="125" y="9" on="1"/>
        <pt x="125" y="0" on="0"/>
        <pt x="117" y="0" on="1"/>
        <pt x="103" y="0" on="1"/>
        <pt x="95" y="0" on="0"/>
        <pt x="95" y="9" on="1"/>
        <pt x="95" y="634" on="1"/>
        <pt x="95" y="643" on="0"/>
        <pt x="103" y="643" on="1"/>
        <pt x="117" y="643" on="1"/>
        <pt x="125" y="643" on="0"/>
      </contour>
      <contour>
        <pt x="95" y="692" on="1"/>
        <pt x="95" y="791" on="1"/>
        <pt x="95" y="800" on="0"/>
        <pt x="103" y="800" on="1"/>
        <pt x="117" y="800" on="1"/>
        <pt x="125" y="800" on="0"/>
        <pt x="125" y="791" on="1"/>
        <pt x="125" y="692" on="1"/>
        <pt x="125" y="683" on="0"/>
        <pt x="117" y="683" on="1"/>
        <pt x="103" y="683" on="1"/>
        <pt x="95" y="683" on="0"/>
      </contour>
    </TTGlyph>
    <TTGlyph name="Igrave" xMin="-1" yMin="0" xMax="125" yMax="836">
      <contour>
        <pt x="115" y="707" on="1"/>
        <pt x="107" y="707" on="1"/>
        <pt x="99" y="707" on="0"/>
        <pt x="93" y="715" on="1"/>
        <pt x="1" y="827" on="1"/>
        <pt x="-2" y="831" on="0"/>
        <pt x="1" y="836" on="0"/>
        <pt x="5" y="836" on="1"/>
        <pt x="35" y="836" on="1"/>
        <pt x="46" y="836" on="0"/>
        <pt x="50" y="827" on="1"/>
        <pt x="118" y="716" on="1"/>
        <pt x="123" y="707" on="0"/>
      </contour>
      <contour>
        <pt x="125" y="634" on="1"/>
        <pt x="125" y="9" on="1"/>
        <pt x="125" y="0" on="0"/>
        <pt x="117" y="0" on="1"/>
        <pt x="103" y="0" on="1"/>
        <pt x="95" y="0" on="0"/>
        <pt x="95" y="9" on="1"/>
        <pt x="95" y="634" on="1"/>
        <pt x="95" y="643" on="0"/>
        <pt x="103" y="643" on="1"/>
        <pt x="117" y="643" on="1"/>
        <pt x="125" y="643" on="0"/>
      </contour>
    </TTGlyph>
    <TTGlyph name="Imacron" xMin="-1" yMin="0" xMax="221" yMax="785">
      <contour>
        <pt x="212" y="757" on="1"/>
        <pt x="8" y="757" on="1"/>
        <pt x="-1" y="757" on="0"/>
        <pt x="-1" y="765" on="1"/>
        <pt x="-1" y="777" on="1"/>
        <pt x="-1" y="785" on="0"/>
        <pt x="8" y="785" on="1"/>
        <pt x="212" y="785" on="1"/>
        <pt x="221" y="785" on="0"/>
        <pt x="221" y="777" on="1"/>
        <pt x="221" y="765" on="1"/>
        <pt x="221" y="757" on="0"/>
      </contour>
      <contour>
        <pt x="125" y="634" on="1"/>
        <pt x="125" y="9" on="1"/>
        <pt x="125" y="0" on="0"/>
        <pt x="117" y="0" on="1"/>
        <pt x="103" y="0" on="1"/>
        <pt x="95" y="0" on="0"/>
        <pt x="95" y="9" on="1"/>
        <pt x="95" y="634" on="1"/>
        <pt x="95" y="643" on="0"/>
        <pt x="103" y="643" on="1"/>
        <pt x="117" y="643" on="1"/>
        <pt x="125" y="643" on="0"/>
      </contour>
    </TTGlyph>
    <TTGlyph name="Iogonek" xMin="23" yMin="-101" xMax="125" yMax="643">
      <contour>
        <pt x="103" y="643" on="1"/>
        <pt x="117" y="643" on="1"/>
        <pt x="125" y="643" on="0"/>
        <pt x="125" y="634" on="1"/>
        <pt x="125" y="9" on="1"/>
        <pt x="125" y="0" on="0"/>
        <pt x="117" y="0" on="1"/>
        <pt x="110" y="0" on="1"/>
        <pt x="53" y="-74" on="1"/>
        <pt x="91" y="-74" on="1"/>
        <pt x="120" y="-74" on="0"/>
        <pt x="120" y="-84" on="1"/>
        <pt x="120" y="-101" on="0"/>
        <pt x="53" y="-101" on="1"/>
        <pt x="30" y="-101" on="0"/>
        <pt x="17" y="-79" on="0"/>
        <pt x="29" y="-66" on="1"/>
        <pt x="95" y="17" on="1"/>
        <pt x="95" y="634" on="1"/>
        <pt x="95" y="643" on="0"/>
      </contour>
    </TTGlyph>
    <TTGlyph name="Itilde" xMin="7" yMin="0" xMax="213" yMax="831">
      <contour>
        <pt x="86" y="702" on="0"/>
        <pt x="30" y="702" on="0"/>
        <pt x="7" y="737" on="0"/>
        <pt x="7" y="780" on="1"/>
        <pt x="7" y="819" on="1"/>
        <pt x="7" y="828" on="0"/>
        <pt x="15" y="828" on="1"/>
        <pt x="22" y="828" on="1"/>
        <pt x="30" y="828" on="0"/>
        <pt x="30" y="819" on="1"/>
        <pt x="30" y="781" on="1"/>
        <pt x="30" y="748" on="0"/>
        <pt x="43" y="723" on="0"/>
        <pt x="77" y="723" on="0"/>
        <pt x="90" y="743" on="0"/>
        <pt x="111" y="810" on="0"/>
        <pt x="134" y="831" on="0"/>
        <pt x="190" y="831" on="0"/>
        <pt x="213" y="796" on="0"/>
        <pt x="213" y="753" on="1"/>
        <pt x="213" y="711" on="1"/>
        <pt x="213" y="702" on="0"/>
        <pt x="205" y="702" on="1"/>
        <pt x="198" y="702" on="1"/>
        <pt x="190" y="702" on="0"/>
        <pt x="190" y="711" on="1"/>
        <pt x="190" y="752" on="1"/>
        <pt x="190" y="785" on="0"/>
        <pt x="177" y="810" on="0"/>
        <pt x="143" y="810" on="0"/>
        <pt x="132" y="796" on="0"/>
        <pt x="128" y="782" on="1"/>
        <pt x="110" y="725" on="0"/>
      </contour>
      <contour>
        <pt x="125" y="634" on="1"/>
        <pt x="125" y="9" on="1"/>
        <pt x="125" y="0" on="0"/>
        <pt x="117" y="0" on="1"/>
        <pt x="103" y="0" on="1"/>
        <pt x="95" y="0" on="0"/>
        <pt x="95" y="9" on="1"/>
        <pt x="95" y="634" on="1"/>
        <pt x="95" y="643" on="0"/>
        <pt x="103" y="643" on="1"/>
        <pt x="117" y="643" on="1"/>
        <pt x="125" y="643" on="0"/>
      </contour>
    </TTGlyph>
    <TTGlyph name="J" xMin="40" yMin="0" xMax="408" yMax="643">
      <contour>
        <pt x="386" y="643" on="1"/>
        <pt x="400" y="643" on="1"/>
        <pt x="408" y="643" on="0"/>
        <pt x="408" y="635" on="1"/>
        <pt x="408" y="136" on="1"/>
        <pt x="408" y="74" on="0"/>
        <pt x="335" y="0" on="0"/>
        <pt x="274" y="0" on="1"/>
        <pt x="174" y="0" on="1"/>
        <pt x="113" y="0" on="0"/>
        <pt x="40" y="74" on="0"/>
        <pt x="40" y="136" on="1"/>
        <pt x="40" y="216" on="1"/>
        <pt x="40" y="225" on="0"/>
        <pt x="48" y="225" on="1"/>
        <pt x="62" y="225" on="1"/>
        <pt x="70" y="225" on="0"/>
        <pt x="70" y="216" on="1"/>
        <pt x="70" y="137" on="1"/>
        <pt x="70" y="86" on="0"/>
        <pt x="124" y="28" on="0"/>
        <pt x="174" y="28" on="1"/>
        <pt x="274" y="28" on="1"/>
        <pt x="324" y="28" on="0"/>
        <pt x="378" y="86" on="0"/>
        <pt x="378" y="137" on="1"/>
        <pt x="378" y="634" on="1"/>
        <pt x="378" y="643" on="0"/>
      </contour>
    </TTGlyph>
    <TTGlyph name="Jcircumflex" xMin="40" yMin="0" xMax="477" yMax="836">
      <contour>
        <pt x="386" y="643" on="1"/>
        <pt x="400" y="643" on="1"/>
        <pt x="408" y="643" on="0"/>
        <pt x="408" y="635" on="1"/>
        <pt x="408" y="136" on="1"/>
        <pt x="408" y="74" on="0"/>
        <pt x="335" y="0" on="0"/>
        <pt x="274" y="0" on="1"/>
        <pt x="174" y="0" on="1"/>
        <pt x="113" y="0" on="0"/>
        <pt x="40" y="74" on="0"/>
        <pt x="40" y="136" on="1"/>
        <pt x="40" y="216" on="1"/>
        <pt x="40" y="225" on="0"/>
        <pt x="48" y="225" on="1"/>
        <pt x="62" y="225" on="1"/>
        <pt x="70" y="225" on="0"/>
        <pt x="70" y="216" on="1"/>
        <pt x="70" y="137" on="1"/>
        <pt x="70" y="86" on="0"/>
        <pt x="124" y="28" on="0"/>
        <pt x="174" y="28" on="1"/>
        <pt x="274" y="28" on="1"/>
        <pt x="324" y="28" on="0"/>
        <pt x="378" y="86" on="0"/>
        <pt x="378" y="137" on="1"/>
        <pt x="378" y="634" on="1"/>
        <pt x="378" y="643" on="0"/>
      </contour>
      <contour>
        <pt x="473" y="707" on="1"/>
        <pt x="459" y="707" on="1"/>
        <pt x="450" y="707" on="0"/>
        <pt x="448" y="712" on="1"/>
        <pt x="389" y="817" on="1"/>
        <pt x="330" y="712" on="1"/>
        <pt x="328" y="707" on="0"/>
        <pt x="319" y="707" on="1"/>
        <pt x="305" y="707" on="1"/>
        <pt x="294" y="707" on="0"/>
        <pt x="301" y="718" on="1"/>
        <pt x="365" y="827" on="1"/>
        <pt x="371" y="836" on="0"/>
        <pt x="384" y="836" on="1"/>
        <pt x="394" y="836" on="1"/>
        <pt x="407" y="836" on="0"/>
        <pt x="413" y="827" on="1"/>
        <pt x="477" y="718" on="1"/>
        <pt x="484" y="707" on="0"/>
      </contour>
    </TTGlyph>
    <TTGlyph name="K" xMin="90" yMin="0" xMax="491" yMax="643">
      <contour>
        <pt x="112" y="0" on="1"/>
        <pt x="98" y="0" on="1"/>
        <pt x="90" y="0" on="0"/>
        <pt x="90" y="9" on="1"/>
        <pt x="90" y="634" on="1"/>
        <pt x="90" y="643" on="0"/>
        <pt x="98" y="643" on="1"/>
        <pt x="112" y="643" on="1"/>
        <pt x="120" y="643" on="0"/>
        <pt x="120" y="634" on="1"/>
        <pt x="120" y="242" on="1"/>
        <pt x="124" y="242" on="1"/>
        <pt x="130" y="255" on="0"/>
        <pt x="139" y="267" on="1"/>
        <pt x="420" y="634" on="1"/>
        <pt x="427" y="643" on="0"/>
        <pt x="436" y="643" on="1"/>
        <pt x="455" y="643" on="1"/>
        <pt x="465" y="643" on="0"/>
        <pt x="457" y="634" on="1"/>
        <pt x="253" y="363" on="1"/>
        <pt x="491" y="9" on="1"/>
        <pt x="497" y="0" on="0"/>
        <pt x="487" y="0" on="1"/>
        <pt x="471" y="0" on="1"/>
        <pt x="462" y="0" on="0"/>
        <pt x="456" y="9" on="1"/>
        <pt x="234" y="339" on="1"/>
        <pt x="120" y="202" on="1"/>
        <pt x="120" y="9" on="1"/>
        <pt x="120" y="0" on="0"/>
      </contour>
    </TTGlyph>
    <TTGlyph name="L" xMin="90" yMin="0" xMax="422" yMax="643">
      <contour>
        <pt x="413" y="0" on="1"/>
        <pt x="98" y="0" on="1"/>
        <pt x="90" y="0" on="0"/>
        <pt x="90" y="9" on="1"/>
        <pt x="90" y="634" on="1"/>
        <pt x="90" y="643" on="0"/>
        <pt x="98" y="643" on="1"/>
        <pt x="112" y="643" on="1"/>
        <pt x="120" y="643" on="0"/>
        <pt x="120" y="634" on="1"/>
        <pt x="120" y="38" on="1"/>
        <pt x="120" y="30" on="0"/>
        <pt x="129" y="30" on="1"/>
        <pt x="413" y="30" on="1"/>
        <pt x="422" y="30" on="0"/>
        <pt x="422" y="22" on="1"/>
        <pt x="422" y="8" on="1"/>
        <pt x="422" y="0" on="0"/>
      </contour>
    </TTGlyph>
    <TTGlyph name="Lacute" xMin="90" yMin="0" xMax="422" yMax="836">
      <contour>
        <pt x="180" y="836" on="1"/>
        <pt x="210" y="836" on="1"/>
        <pt x="214" y="836" on="0"/>
        <pt x="217" y="831" on="0"/>
        <pt x="214" y="827" on="1"/>
        <pt x="122" y="715" on="1"/>
        <pt x="116" y="707" on="0"/>
        <pt x="108" y="707" on="1"/>
        <pt x="100" y="707" on="1"/>
        <pt x="92" y="707" on="0"/>
        <pt x="97" y="716" on="1"/>
        <pt x="165" y="827" on="1"/>
        <pt x="170" y="836" on="0"/>
      </contour>
      <contour>
        <pt x="413" y="0" on="1"/>
        <pt x="98" y="0" on="1"/>
        <pt x="90" y="0" on="0"/>
        <pt x="90" y="9" on="1"/>
        <pt x="90" y="634" on="1"/>
        <pt x="90" y="643" on="0"/>
        <pt x="98" y="643" on="1"/>
        <pt x="112" y="643" on="1"/>
        <pt x="120" y="643" on="0"/>
        <pt x="120" y="634" on="1"/>
        <pt x="120" y="38" on="1"/>
        <pt x="120" y="30" on="0"/>
        <pt x="129" y="30" on="1"/>
        <pt x="413" y="30" on="1"/>
        <pt x="422" y="30" on="0"/>
        <pt x="422" y="22" on="1"/>
        <pt x="422" y="8" on="1"/>
        <pt x="422" y="0" on="0"/>
      </contour>
    </TTGlyph>
    <TTGlyph name="Lcaron" xMin="90" yMin="0" xMax="422" yMax="643">
      <contour>
        <pt x="353" y="634" on="1"/>
        <pt x="353" y="555" on="1"/>
        <pt x="353" y="540" on="0"/>
        <pt x="327" y="411" on="1"/>
        <pt x="326" y="405" on="0"/>
        <pt x="316" y="405" on="0"/>
        <pt x="316" y="411" on="1"/>
        <pt x="316" y="634" on="1"/>
        <pt x="316" y="643" on="0"/>
        <pt x="324" y="643" on="1"/>
        <pt x="345" y="643" on="1"/>
        <pt x="353" y="643" on="0"/>
      </contour>
      <contour>
        <pt x="413" y="0" on="1"/>
        <pt x="98" y="0" on="1"/>
        <pt x="90" y="0" on="0"/>
        <pt x="90" y="9" on="1"/>
        <pt x="90" y="634" on="1"/>
        <pt x="90" y="643" on="0"/>
        <pt x="98" y="643" on="1"/>
        <pt x="112" y="643" on="1"/>
        <pt x="120" y="643" on="0"/>
        <pt x="120" y="634" on="1"/>
        <pt x="120" y="38" on="1"/>
        <pt x="120" y="30" on="0"/>
        <pt x="129" y="30" on="1"/>
        <pt x="413" y="30" on="1"/>
        <pt x="422" y="30" on="0"/>
        <pt x="422" y="22" on="1"/>
        <pt x="422" y="8" on="1"/>
        <pt x="422" y="0" on="0"/>
      </contour>
    </TTGlyph>
    <TTGlyph name="Ldot" xMin="90" yMin="0" xMax="422" yMax="643">
      <contour>
        <pt x="413" y="0" on="1"/>
        <pt x="98" y="0" on="1"/>
        <pt x="90" y="0" on="0"/>
        <pt x="90" y="9" on="1"/>
        <pt x="90" y="634" on="1"/>
        <pt x="90" y="643" on="0"/>
        <pt x="98" y="643" on="1"/>
        <pt x="112" y="643" on="1"/>
        <pt x="120" y="643" on="0"/>
        <pt x="120" y="634" on="1"/>
        <pt x="120" y="38" on="1"/>
        <pt x="120" y="30" on="0"/>
        <pt x="129" y="30" on="1"/>
        <pt x="413" y="30" on="1"/>
        <pt x="422" y="30" on="0"/>
        <pt x="422" y="22" on="1"/>
        <pt x="422" y="8" on="1"/>
        <pt x="422" y="0" on="0"/>
      </contour>
      <contour>
        <pt x="311" y="378" on="1"/>
        <pt x="311" y="259" on="1"/>
        <pt x="311" y="250" on="0"/>
        <pt x="303" y="250" on="1"/>
        <pt x="282" y="250" on="1"/>
        <pt x="274" y="250" on="0"/>
        <pt x="274" y="259" on="1"/>
        <pt x="274" y="378" on="1"/>
        <pt x="274" y="387" on="0"/>
        <pt x="282" y="387" on="1"/>
        <pt x="303" y="387" on="1"/>
        <pt x="311" y="387" on="0"/>
      </contour>
    </TTGlyph>
    <TTGlyph name="Lslash" xMin="6" yMin="0" xMax="422" yMax="643">
      <contour>
        <pt x="413" y="0" on="1"/>
        <pt x="98" y="0" on="1"/>
        <pt x="90" y="0" on="0"/>
        <pt x="90" y="9" on="1"/>
        <pt x="90" y="401" on="1"/>
        <pt x="15" y="358" on="1"/>
        <pt x="6" y="353" on="0"/>
        <pt x="6" y="362" on="1"/>
        <pt x="6" y="378" on="1"/>
        <pt x="6" y="385" on="0"/>
        <pt x="15" y="390" on="1"/>
        <pt x="90" y="433" on="1"/>
        <pt x="90" y="634" on="1"/>
        <pt x="90" y="643" on="0"/>
        <pt x="98" y="643" on="1"/>
        <pt x="112" y="643" on="1"/>
        <pt x="120" y="643" on="0"/>
        <pt x="120" y="634" on="1"/>
        <pt x="120" y="450" on="1"/>
        <pt x="226" y="510" on="1"/>
        <pt x="235" y="515" on="0"/>
        <pt x="235" y="505" on="1"/>
        <pt x="235" y="490" on="1"/>
        <pt x="235" y="483" on="0"/>
        <pt x="226" y="478" on="1"/>
        <pt x="120" y="418" on="1"/>
        <pt x="120" y="38" on="1"/>
        <pt x="120" y="30" on="0"/>
        <pt x="129" y="30" on="1"/>
        <pt x="413" y="30" on="1"/>
        <pt x="422" y="30" on="0"/>
        <pt x="422" y="22" on="1"/>
        <pt x="422" y="8" on="1"/>
        <pt x="422" y="0" on="0"/>
      </contour>
    </TTGlyph>
    <TTGlyph name="M" xMin="90" yMin="0" xMax="598" yMax="643">
      <contour>
        <pt x="562" y="643" on="1"/>
        <pt x="590" y="643" on="1"/>
        <pt x="598" y="643" on="0"/>
        <pt x="598" y="634" on="1"/>
        <pt x="598" y="9" on="1"/>
        <pt x="598" y="0" on="0"/>
        <pt x="590" y="0" on="1"/>
        <pt x="576" y="0" on="1"/>
        <pt x="568" y="0" on="0"/>
        <pt x="568" y="9" on="1"/>
        <pt x="568" y="585" on="1"/>
        <pt x="564" y="585" on="1"/>
        <pt x="366" y="148" on="1"/>
        <pt x="362" y="140" on="0"/>
        <pt x="354" y="140" on="1"/>
        <pt x="335" y="140" on="1"/>
        <pt x="327" y="140" on="0"/>
        <pt x="323" y="148" on="1"/>
        <pt x="124" y="586" on="1"/>
        <pt x="120" y="586" on="1"/>
        <pt x="120" y="9" on="1"/>
        <pt x="120" y="0" on="0"/>
        <pt x="112" y="0" on="1"/>
        <pt x="98" y="0" on="1"/>
        <pt x="90" y="0" on="0"/>
        <pt x="90" y="9" on="1"/>
        <pt x="90" y="634" on="1"/>
        <pt x="90" y="643" on="0"/>
        <pt x="98" y="643" on="1"/>
        <pt x="126" y="643" on="1"/>
        <pt x="131" y="643" on="0"/>
        <pt x="133" y="639" on="1"/>
        <pt x="342" y="177" on="1"/>
        <pt x="346" y="177" on="1"/>
        <pt x="555" y="639" on="1"/>
        <pt x="557" y="643" on="0"/>
      </contour>
    </TTGlyph>
    <TTGlyph name="Mu" xMin="85" yMin="-133" xMax="433" yMax="510">
      <contour>
        <pt x="115" y="-124" on="1"/>
        <pt x="115" y="-133" on="0"/>
        <pt x="107" y="-133" on="1"/>
        <pt x="93" y="-133" on="1"/>
        <pt x="85" y="-133" on="0"/>
        <pt x="85" y="-124" on="1"/>
        <pt x="85" y="501" on="1"/>
        <pt x="85" y="510" on="0"/>
        <pt x="93" y="510" on="1"/>
        <pt x="107" y="510" on="1"/>
        <pt x="115" y="510" on="0"/>
        <pt x="115" y="501" on="1"/>
        <pt x="115" y="137" on="1"/>
        <pt x="115" y="86" on="0"/>
        <pt x="169" y="28" on="0"/>
        <pt x="219" y="28" on="1"/>
        <pt x="291" y="28" on="1"/>
        <pt x="341" y="28" on="0"/>
        <pt x="403" y="82" on="0"/>
        <pt x="403" y="132" on="1"/>
        <pt x="403" y="501" on="1"/>
        <pt x="403" y="510" on="0"/>
        <pt x="411" y="510" on="1"/>
        <pt x="425" y="510" on="1"/>
        <pt x="433" y="510" on="0"/>
        <pt x="433" y="501" on="1"/>
        <pt x="433" y="9" on="1"/>
        <pt x="433" y="0" on="0"/>
        <pt x="425" y="0" on="1"/>
        <pt x="411" y="0" on="1"/>
        <pt x="403" y="0" on="0"/>
        <pt x="403" y="9" on="1"/>
        <pt x="403" y="52" on="1"/>
        <pt x="399" y="52" on="1"/>
        <pt x="371" y="0" on="0"/>
        <pt x="293" y="0" on="1"/>
        <pt x="286" y="0" on="0"/>
        <pt x="233" y="-1" on="0"/>
        <pt x="216" y="0" on="0"/>
        <pt x="175" y="4" on="0"/>
        <pt x="164" y="9" on="1"/>
        <pt x="131" y="25" on="0"/>
        <pt x="115" y="44" on="1"/>
      </contour>
    </TTGlyph>
    <TTGlyph name="N" xMin="90" yMin="0" xMax="488" yMax="643">
      <contour>
        <pt x="112" y="0" on="1"/>
        <pt x="98" y="0" on="1"/>
        <pt x="90" y="0" on="0"/>
        <pt x="90" y="9" on="1"/>
        <pt x="90" y="634" on="1"/>
        <pt x="90" y="643" on="0"/>
        <pt x="98" y="643" on="1"/>
        <pt x="112" y="643" on="1"/>
        <pt x="117" y="643" on="0"/>
        <pt x="119" y="639" on="1"/>
        <pt x="454" y="72" on="1"/>
        <pt x="458" y="72" on="1"/>
        <pt x="458" y="634" on="1"/>
        <pt x="458" y="643" on="0"/>
        <pt x="466" y="643" on="1"/>
        <pt x="480" y="643" on="1"/>
        <pt x="488" y="643" on="0"/>
        <pt x="488" y="634" on="1"/>
        <pt x="488" y="9" on="1"/>
        <pt x="488" y="0" on="0"/>
        <pt x="480" y="0" on="1"/>
        <pt x="470" y="0" on="1"/>
        <pt x="463" y="0" on="0"/>
        <pt x="458" y="8" on="1"/>
        <pt x="124" y="573" on="1"/>
        <pt x="120" y="573" on="1"/>
        <pt x="120" y="9" on="1"/>
        <pt x="120" y="0" on="0"/>
      </contour>
    </TTGlyph>
    <TTGlyph name="Nacute" xMin="90" yMin="0" xMax="488" yMax="836">
      <contour>
        <pt x="375" y="836" on="1"/>
        <pt x="405" y="836" on="1"/>
        <pt x="409" y="836" on="0"/>
        <pt x="412" y="831" on="0"/>
        <pt x="409" y="827" on="1"/>
        <pt x="317" y="715" on="1"/>
        <pt x="311" y="707" on="0"/>
        <pt x="303" y="707" on="1"/>
        <pt x="295" y="707" on="1"/>
        <pt x="287" y="707" on="0"/>
        <pt x="292" y="716" on="1"/>
        <pt x="360" y="827" on="1"/>
        <pt x="364" y="836" on="0"/>
      </contour>
      <contour>
        <pt x="112" y="0" on="1"/>
        <pt x="98" y="0" on="1"/>
        <pt x="90" y="0" on="0"/>
        <pt x="90" y="9" on="1"/>
        <pt x="90" y="634" on="1"/>
        <pt x="90" y="643" on="0"/>
        <pt x="98" y="643" on="1"/>
        <pt x="112" y="643" on="1"/>
        <pt x="117" y="643" on="0"/>
        <pt x="119" y="639" on="1"/>
        <pt x="454" y="72" on="1"/>
        <pt x="458" y="72" on="1"/>
        <pt x="458" y="634" on="1"/>
        <pt x="458" y="643" on="0"/>
        <pt x="466" y="643" on="1"/>
        <pt x="480" y="643" on="1"/>
        <pt x="488" y="643" on="0"/>
        <pt x="488" y="634" on="1"/>
        <pt x="488" y="9" on="1"/>
        <pt x="488" y="0" on="0"/>
        <pt x="480" y="0" on="1"/>
        <pt x="470" y="0" on="1"/>
        <pt x="463" y="0" on="0"/>
        <pt x="458" y="8" on="1"/>
        <pt x="124" y="573" on="1"/>
        <pt x="120" y="573" on="1"/>
        <pt x="120" y="9" on="1"/>
        <pt x="120" y="0" on="0"/>
      </contour>
    </TTGlyph>
    <TTGlyph name="Ncaron" xMin="90" yMin="0" xMax="488" yMax="836">
      <contour>
        <pt x="112" y="0" on="1"/>
        <pt x="98" y="0" on="1"/>
        <pt x="90" y="0" on="0"/>
        <pt x="90" y="9" on="1"/>
        <pt x="90" y="634" on="1"/>
        <pt x="90" y="643" on="0"/>
        <pt x="98" y="643" on="1"/>
        <pt x="112" y="643" on="1"/>
        <pt x="117" y="643" on="0"/>
        <pt x="119" y="639" on="1"/>
        <pt x="454" y="72" on="1"/>
        <pt x="458" y="72" on="1"/>
        <pt x="458" y="634" on="1"/>
        <pt x="458" y="643" on="0"/>
        <pt x="466" y="643" on="1"/>
        <pt x="480" y="643" on="1"/>
        <pt x="488" y="643" on="0"/>
        <pt x="488" y="634" on="1"/>
        <pt x="488" y="9" on="1"/>
        <pt x="488" y="0" on="0"/>
        <pt x="480" y="0" on="1"/>
        <pt x="470" y="0" on="1"/>
        <pt x="463" y="0" on="0"/>
        <pt x="458" y="8" on="1"/>
        <pt x="124" y="573" on="1"/>
        <pt x="120" y="573" on="1"/>
        <pt x="120" y="9" on="1"/>
        <pt x="120" y="0" on="0"/>
      </contour>
      <contour>
        <pt x="284" y="707" on="1"/>
        <pt x="271" y="707" on="0"/>
        <pt x="265" y="716" on="1"/>
        <pt x="201" y="825" on="1"/>
        <pt x="194" y="836" on="0"/>
        <pt x="205" y="836" on="1"/>
        <pt x="219" y="836" on="1"/>
        <pt x="228" y="836" on="0"/>
        <pt x="230" y="831" on="1"/>
        <pt x="289" y="726" on="1"/>
        <pt x="348" y="831" on="1"/>
        <pt x="350" y="836" on="0"/>
        <pt x="359" y="836" on="1"/>
        <pt x="373" y="836" on="1"/>
        <pt x="384" y="836" on="0"/>
        <pt x="377" y="825" on="1"/>
        <pt x="313" y="716" on="1"/>
        <pt x="307" y="707" on="0"/>
        <pt x="294" y="707" on="1"/>
      </contour>
    </TTGlyph>
    <TTGlyph name="Ntilde" xMin="90" yMin="0" xMax="488" yMax="831">
      <contour>
        <pt x="290" y="726" on="0"/>
        <pt x="265" y="702" on="0"/>
        <pt x="209" y="702" on="0"/>
        <pt x="186" y="737" on="0"/>
        <pt x="186" y="780" on="1"/>
        <pt x="186" y="819" on="1"/>
        <pt x="186" y="828" on="0"/>
        <pt x="194" y="828" on="1"/>
        <pt x="201" y="828" on="1"/>
        <pt x="209" y="828" on="0"/>
        <pt x="209" y="819" on="1"/>
        <pt x="209" y="781" on="1"/>
        <pt x="209" y="748" on="0"/>
        <pt x="222" y="723" on="0"/>
        <pt x="256" y="723" on="0"/>
        <pt x="269" y="743" on="0"/>
        <pt x="290" y="810" on="0"/>
        <pt x="313" y="831" on="0"/>
        <pt x="369" y="831" on="0"/>
        <pt x="392" y="796" on="0"/>
        <pt x="392" y="753" on="1"/>
        <pt x="392" y="711" on="1"/>
        <pt x="392" y="702" on="0"/>
        <pt x="384" y="702" on="1"/>
        <pt x="377" y="702" on="1"/>
        <pt x="369" y="702" on="0"/>
        <pt x="369" y="711" on="1"/>
        <pt x="369" y="752" on="1"/>
        <pt x="369" y="785" on="0"/>
        <pt x="356" y="810" on="0"/>
        <pt x="318" y="810" on="0"/>
        <pt x="310" y="792" on="1"/>
        <pt x="308" y="787" on="0"/>
      </contour>
      <contour>
        <pt x="112" y="0" on="1"/>
        <pt x="98" y="0" on="1"/>
        <pt x="90" y="0" on="0"/>
        <pt x="90" y="9" on="1"/>
        <pt x="90" y="634" on="1"/>
        <pt x="90" y="643" on="0"/>
        <pt x="98" y="643" on="1"/>
        <pt x="112" y="643" on="1"/>
        <pt x="117" y="643" on="0"/>
        <pt x="119" y="639" on="1"/>
        <pt x="454" y="72" on="1"/>
        <pt x="458" y="72" on="1"/>
        <pt x="458" y="634" on="1"/>
        <pt x="458" y="643" on="0"/>
        <pt x="466" y="643" on="1"/>
        <pt x="480" y="643" on="1"/>
        <pt x="488" y="643" on="0"/>
        <pt x="488" y="634" on="1"/>
        <pt x="488" y="9" on="1"/>
        <pt x="488" y="0" on="0"/>
        <pt x="480" y="0" on="1"/>
        <pt x="470" y="0" on="1"/>
        <pt x="463" y="0" on="0"/>
        <pt x="458" y="8" on="1"/>
        <pt x="124" y="573" on="1"/>
        <pt x="120" y="573" on="1"/>
        <pt x="120" y="9" on="1"/>
        <pt x="120" y="0" on="0"/>
      </contour>
    </TTGlyph>
    <TTGlyph name="O" xMin="80" yMin="0" xMax="473" yMax="643">
      <contour>
        <pt x="214" y="28" on="1"/>
        <pt x="339" y="28" on="1"/>
        <pt x="389" y="28" on="0"/>
        <pt x="443" y="86" on="0"/>
        <pt x="443" y="137" on="1"/>
        <pt x="443" y="506" on="1"/>
        <pt x="443" y="557" on="0"/>
        <pt x="389" y="615" on="0"/>
        <pt x="339" y="615" on="1"/>
        <pt x="214" y="615" on="1"/>
        <pt x="164" y="615" on="0"/>
        <pt x="110" y="557" on="0"/>
        <pt x="110" y="506" on="1"/>
        <pt x="110" y="137" on="1"/>
        <pt x="110" y="86" on="0"/>
        <pt x="164" y="28" on="0"/>
      </contour>
      <contour>
        <pt x="339" y="0" on="1"/>
        <pt x="214" y="0" on="1"/>
        <pt x="153" y="0" on="0"/>
        <pt x="80" y="74" on="0"/>
        <pt x="80" y="136" on="1"/>
        <pt x="80" y="507" on="1"/>
        <pt x="80" y="569" on="0"/>
        <pt x="153" y="643" on="0"/>
        <pt x="214" y="643" on="1"/>
        <pt x="339" y="643" on="1"/>
        <pt x="400" y="643" on="0"/>
        <pt x="473" y="569" on="0"/>
        <pt x="473" y="507" on="1"/>
        <pt x="473" y="136" on="1"/>
        <pt x="473" y="74" on="0"/>
        <pt x="400" y="0" on="0"/>
      </contour>
    </TTGlyph>
    <TTGlyph name="OE" xMin="80" yMin="0" xMax="693" yMax="643">
      <contour>
        <pt x="80" y="136" on="1"/>
        <pt x="80" y="507" on="1"/>
        <pt x="80" y="569" on="0"/>
        <pt x="153" y="643" on="0"/>
        <pt x="214" y="643" on="1"/>
        <pt x="684" y="643" on="1"/>
        <pt x="693" y="643" on="0"/>
        <pt x="693" y="635" on="1"/>
        <pt x="693" y="623" on="1"/>
        <pt x="693" y="615" on="0"/>
        <pt x="684" y="615" on="1"/>
        <pt x="411" y="615" on="1"/>
        <pt x="402" y="615" on="0"/>
        <pt x="402" y="607" on="1"/>
        <pt x="402" y="350" on="1"/>
        <pt x="402" y="342" on="0"/>
        <pt x="411" y="342" on="1"/>
        <pt x="658" y="342" on="1"/>
        <pt x="667" y="342" on="0"/>
        <pt x="667" y="334" on="1"/>
        <pt x="667" y="322" on="1"/>
        <pt x="667" y="314" on="0"/>
        <pt x="658" y="314" on="1"/>
        <pt x="411" y="314" on="1"/>
        <pt x="402" y="314" on="0"/>
        <pt x="402" y="306" on="1"/>
        <pt x="402" y="36" on="1"/>
        <pt x="402" y="28" on="0"/>
        <pt x="411" y="28" on="1"/>
        <pt x="684" y="28" on="1"/>
        <pt x="693" y="28" on="0"/>
        <pt x="693" y="20" on="1"/>
        <pt x="693" y="8" on="1"/>
        <pt x="693" y="0" on="0"/>
        <pt x="684" y="0" on="1"/>
        <pt x="214" y="0" on="1"/>
        <pt x="153" y="0" on="0"/>
        <pt x="80" y="74" on="0"/>
      </contour>
      <contour>
        <pt x="214" y="28" on="1"/>
        <pt x="363" y="28" on="1"/>
        <pt x="372" y="28" on="0"/>
        <pt x="372" y="36" on="1"/>
        <pt x="372" y="607" on="1"/>
        <pt x="372" y="615" on="0"/>
        <pt x="363" y="615" on="1"/>
        <pt x="214" y="615" on="1"/>
        <pt x="164" y="615" on="0"/>
        <pt x="110" y="557" on="0"/>
        <pt x="110" y="506" on="1"/>
        <pt x="110" y="137" on="1"/>
        <pt x="110" y="86" on="0"/>
        <pt x="164" y="28" on="0"/>
      </contour>
    </TTGlyph>
    <TTGlyph name="Oacute" xMin="80" yMin="0" xMax="473" yMax="836">
      <contour>
        <pt x="345" y="836" on="1"/>
        <pt x="375" y="836" on="1"/>
        <pt x="379" y="836" on="0"/>
        <pt x="382" y="831" on="0"/>
        <pt x="379" y="827" on="1"/>
        <pt x="287" y="715" on="1"/>
        <pt x="281" y="707" on="0"/>
        <pt x="273" y="707" on="1"/>
        <pt x="265" y="707" on="1"/>
        <pt x="257" y="707" on="0"/>
        <pt x="262" y="716" on="1"/>
        <pt x="330" y="827" on="1"/>
        <pt x="334" y="836" on="0"/>
      </contour>
      <contour>
        <pt x="214" y="28" on="1"/>
        <pt x="339" y="28" on="1"/>
        <pt x="389" y="28" on="0"/>
        <pt x="443" y="86" on="0"/>
        <pt x="443" y="137" on="1"/>
        <pt x="443" y="506" on="1"/>
        <pt x="443" y="557" on="0"/>
        <pt x="389" y="615" on="0"/>
        <pt x="339" y="615" on="1"/>
        <pt x="214" y="615" on="1"/>
        <pt x="164" y="615" on="0"/>
        <pt x="110" y="557" on="0"/>
        <pt x="110" y="506" on="1"/>
        <pt x="110" y="137" on="1"/>
        <pt x="110" y="86" on="0"/>
        <pt x="164" y="28" on="0"/>
      </contour>
      <contour>
        <pt x="339" y="0" on="1"/>
        <pt x="214" y="0" on="1"/>
        <pt x="153" y="0" on="0"/>
        <pt x="80" y="74" on="0"/>
        <pt x="80" y="136" on="1"/>
        <pt x="80" y="507" on="1"/>
        <pt x="80" y="569" on="0"/>
        <pt x="153" y="643" on="0"/>
        <pt x="214" y="643" on="1"/>
        <pt x="339" y="643" on="1"/>
        <pt x="400" y="643" on="0"/>
        <pt x="473" y="569" on="0"/>
        <pt x="473" y="507" on="1"/>
        <pt x="473" y="136" on="1"/>
        <pt x="473" y="74" on="0"/>
        <pt x="400" y="0" on="0"/>
      </contour>
    </TTGlyph>
    <TTGlyph name="Obreve" xMin="80" yMin="0" xMax="473" yMax="836">
      <contour>
        <pt x="181" y="827" on="1"/>
        <pt x="181" y="836" on="0"/>
        <pt x="189" y="836" on="1"/>
        <pt x="199" y="836" on="1"/>
        <pt x="207" y="836" on="0"/>
        <pt x="207" y="827" on="1"/>
        <pt x="207" y="815" on="1"/>
        <pt x="207" y="768" on="0"/>
        <pt x="237" y="729" on="0"/>
        <pt x="274" y="729" on="1"/>
        <pt x="278" y="729" on="1"/>
        <pt x="317" y="729" on="0"/>
        <pt x="348" y="768" on="0"/>
        <pt x="348" y="815" on="1"/>
        <pt x="348" y="826" on="1"/>
        <pt x="348" y="835" on="0"/>
        <pt x="356" y="835" on="1"/>
        <pt x="364" y="835" on="1"/>
        <pt x="372" y="835" on="0"/>
        <pt x="372" y="826" on="1"/>
        <pt x="372" y="814" on="1"/>
        <pt x="372" y="758" on="0"/>
        <pt x="326" y="707" on="0"/>
        <pt x="278" y="707" on="1"/>
        <pt x="274" y="707" on="1"/>
        <pt x="226" y="707" on="0"/>
        <pt x="181" y="758" on="0"/>
        <pt x="181" y="814" on="1"/>
      </contour>
      <contour>
        <pt x="214" y="28" on="1"/>
        <pt x="339" y="28" on="1"/>
        <pt x="389" y="28" on="0"/>
        <pt x="443" y="86" on="0"/>
        <pt x="443" y="137" on="1"/>
        <pt x="443" y="506" on="1"/>
        <pt x="443" y="557" on="0"/>
        <pt x="389" y="615" on="0"/>
        <pt x="339" y="615" on="1"/>
        <pt x="214" y="615" on="1"/>
        <pt x="164" y="615" on="0"/>
        <pt x="110" y="557" on="0"/>
        <pt x="110" y="506" on="1"/>
        <pt x="110" y="137" on="1"/>
        <pt x="110" y="86" on="0"/>
        <pt x="164" y="28" on="0"/>
      </contour>
      <contour>
        <pt x="339" y="0" on="1"/>
        <pt x="214" y="0" on="1"/>
        <pt x="153" y="0" on="0"/>
        <pt x="80" y="74" on="0"/>
        <pt x="80" y="136" on="1"/>
        <pt x="80" y="507" on="1"/>
        <pt x="80" y="569" on="0"/>
        <pt x="153" y="643" on="0"/>
        <pt x="214" y="643" on="1"/>
        <pt x="339" y="643" on="1"/>
        <pt x="400" y="643" on="0"/>
        <pt x="473" y="569" on="0"/>
        <pt x="473" y="507" on="1"/>
        <pt x="473" y="136" on="1"/>
        <pt x="473" y="74" on="0"/>
        <pt x="400" y="0" on="0"/>
      </contour>
    </TTGlyph>
    <TTGlyph name="Ocircumflex" xMin="80" yMin="0" xMax="473" yMax="836">
      <contour>
        <pt x="360" y="707" on="1"/>
        <pt x="346" y="707" on="1"/>
        <pt x="338" y="707" on="0"/>
        <pt x="335" y="712" on="1"/>
        <pt x="276" y="817" on="1"/>
        <pt x="217" y="712" on="1"/>
        <pt x="214" y="707" on="0"/>
        <pt x="206" y="707" on="1"/>
        <pt x="192" y="707" on="1"/>
        <pt x="181" y="707" on="0"/>
        <pt x="188" y="718" on="1"/>
        <pt x="252" y="827" on="1"/>
        <pt x="258" y="836" on="0"/>
        <pt x="271" y="836" on="1"/>
        <pt x="281" y="836" on="1"/>
        <pt x="294" y="836" on="0"/>
        <pt x="300" y="827" on="1"/>
        <pt x="364" y="718" on="1"/>
        <pt x="371" y="707" on="0"/>
      </contour>
      <contour>
        <pt x="214" y="28" on="1"/>
        <pt x="339" y="28" on="1"/>
        <pt x="389" y="28" on="0"/>
        <pt x="443" y="86" on="0"/>
        <pt x="443" y="137" on="1"/>
        <pt x="443" y="506" on="1"/>
        <pt x="443" y="557" on="0"/>
        <pt x="389" y="615" on="0"/>
        <pt x="339" y="615" on="1"/>
        <pt x="214" y="615" on="1"/>
        <pt x="164" y="615" on="0"/>
        <pt x="110" y="557" on="0"/>
        <pt x="110" y="506" on="1"/>
        <pt x="110" y="137" on="1"/>
        <pt x="110" y="86" on="0"/>
        <pt x="164" y="28" on="0"/>
      </contour>
      <contour>
        <pt x="339" y="0" on="1"/>
        <pt x="214" y="0" on="1"/>
        <pt x="153" y="0" on="0"/>
        <pt x="80" y="74" on="0"/>
        <pt x="80" y="136" on="1"/>
        <pt x="80" y="507" on="1"/>
        <pt x="80" y="569" on="0"/>
        <pt x="153" y="643" on="0"/>
        <pt x="214" y="643" on="1"/>
        <pt x="339" y="643" on="1"/>
        <pt x="400" y="643" on="0"/>
        <pt x="473" y="569" on="0"/>
        <pt x="473" y="507" on="1"/>
        <pt x="473" y="136" on="1"/>
        <pt x="473" y="74" on="0"/>
        <pt x="400" y="0" on="0"/>
      </contour>
    </TTGlyph>
    <TTGlyph name="Odieresis" xMin="80" yMin="0" xMax="473" yMax="836">
      <contour>
        <pt x="183" y="716" on="1"/>
        <pt x="183" y="827" on="1"/>
        <pt x="183" y="836" on="0"/>
        <pt x="191" y="836" on="1"/>
        <pt x="205" y="836" on="1"/>
        <pt x="213" y="836" on="0"/>
        <pt x="213" y="827" on="1"/>
        <pt x="213" y="716" on="1"/>
        <pt x="213" y="707" on="0"/>
        <pt x="205" y="707" on="1"/>
        <pt x="191" y="707" on="1"/>
        <pt x="183" y="707" on="0"/>
      </contour>
      <contour>
        <pt x="339" y="716" on="1"/>
        <pt x="339" y="827" on="1"/>
        <pt x="339" y="836" on="0"/>
        <pt x="347" y="836" on="1"/>
        <pt x="361" y="836" on="1"/>
        <pt x="369" y="836" on="0"/>
        <pt x="369" y="827" on="1"/>
        <pt x="369" y="716" on="1"/>
        <pt x="369" y="707" on="0"/>
        <pt x="361" y="707" on="1"/>
        <pt x="347" y="707" on="1"/>
        <pt x="339" y="707" on="0"/>
      </contour>
      <contour>
        <pt x="214" y="28" on="1"/>
        <pt x="339" y="28" on="1"/>
        <pt x="389" y="28" on="0"/>
        <pt x="443" y="86" on="0"/>
        <pt x="443" y="137" on="1"/>
        <pt x="443" y="506" on="1"/>
        <pt x="443" y="557" on="0"/>
        <pt x="389" y="615" on="0"/>
        <pt x="339" y="615" on="1"/>
        <pt x="214" y="615" on="1"/>
        <pt x="164" y="615" on="0"/>
        <pt x="110" y="557" on="0"/>
        <pt x="110" y="506" on="1"/>
        <pt x="110" y="137" on="1"/>
        <pt x="110" y="86" on="0"/>
        <pt x="164" y="28" on="0"/>
      </contour>
      <contour>
        <pt x="339" y="0" on="1"/>
        <pt x="214" y="0" on="1"/>
        <pt x="153" y="0" on="0"/>
        <pt x="80" y="74" on="0"/>
        <pt x="80" y="136" on="1"/>
        <pt x="80" y="507" on="1"/>
        <pt x="80" y="569" on="0"/>
        <pt x="153" y="643" on="0"/>
        <pt x="214" y="643" on="1"/>
        <pt x="339" y="643" on="1"/>
        <pt x="400" y="643" on="0"/>
        <pt x="473" y="569" on="0"/>
        <pt x="473" y="507" on="1"/>
        <pt x="473" y="136" on="1"/>
        <pt x="473" y="74" on="0"/>
        <pt x="400" y="0" on="0"/>
      </contour>
    </TTGlyph>
    <TTGlyph name="Ograve" xMin="80" yMin="0" xMax="473" yMax="836">
      <contour>
        <pt x="286" y="707" on="1"/>
        <pt x="278" y="707" on="1"/>
        <pt x="270" y="707" on="0"/>
        <pt x="264" y="715" on="1"/>
        <pt x="172" y="827" on="1"/>
        <pt x="169" y="831" on="0"/>
        <pt x="172" y="836" on="0"/>
        <pt x="176" y="836" on="1"/>
        <pt x="206" y="836" on="1"/>
        <pt x="216" y="836" on="0"/>
        <pt x="221" y="827" on="1"/>
        <pt x="289" y="716" on="1"/>
        <pt x="294" y="707" on="0"/>
      </contour>
      <contour>
        <pt x="214" y="28" on="1"/>
        <pt x="339" y="28" on="1"/>
        <pt x="389" y="28" on="0"/>
        <pt x="443" y="86" on="0"/>
        <pt x="443" y="137" on="1"/>
        <pt x="443" y="506" on="1"/>
        <pt x="443" y="557" on="0"/>
        <pt x="389" y="615" on="0"/>
        <pt x="339" y="615" on="1"/>
        <pt x="214" y="615" on="1"/>
        <pt x="164" y="615" on="0"/>
        <pt x="110" y="557" on="0"/>
        <pt x="110" y="506" on="1"/>
        <pt x="110" y="137" on="1"/>
        <pt x="110" y="86" on="0"/>
        <pt x="164" y="28" on="0"/>
      </contour>
      <contour>
        <pt x="339" y="0" on="1"/>
        <pt x="214" y="0" on="1"/>
        <pt x="153" y="0" on="0"/>
        <pt x="80" y="74" on="0"/>
        <pt x="80" y="136" on="1"/>
        <pt x="80" y="507" on="1"/>
        <pt x="80" y="569" on="0"/>
        <pt x="153" y="643" on="0"/>
        <pt x="214" y="643" on="1"/>
        <pt x="339" y="643" on="1"/>
        <pt x="400" y="643" on="0"/>
        <pt x="473" y="569" on="0"/>
        <pt x="473" y="507" on="1"/>
        <pt x="473" y="136" on="1"/>
        <pt x="473" y="74" on="0"/>
        <pt x="400" y="0" on="0"/>
      </contour>
    </TTGlyph>
    <TTGlyph name="Ohungarumlaut" xMin="80" yMin="0" xMax="473" yMax="836">
      <contour>
        <pt x="287" y="836" on="1"/>
        <pt x="309" y="836" on="1"/>
        <pt x="313" y="836" on="0"/>
        <pt x="316" y="831" on="0"/>
        <pt x="313" y="827" on="1"/>
        <pt x="231" y="715" on="1"/>
        <pt x="225" y="707" on="0"/>
        <pt x="218" y="707" on="1"/>
        <pt x="209" y="707" on="1"/>
        <pt x="201" y="707" on="0"/>
        <pt x="206" y="716" on="1"/>
        <pt x="272" y="827" on="1"/>
        <pt x="277" y="836" on="0"/>
      </contour>
      <contour>
        <pt x="403" y="836" on="1"/>
        <pt x="425" y="836" on="1"/>
        <pt x="429" y="836" on="0"/>
        <pt x="432" y="831" on="0"/>
        <pt x="429" y="827" on="1"/>
        <pt x="347" y="715" on="1"/>
        <pt x="341" y="707" on="0"/>
        <pt x="334" y="707" on="1"/>
        <pt x="325" y="707" on="1"/>
        <pt x="317" y="707" on="0"/>
        <pt x="322" y="716" on="1"/>
        <pt x="388" y="827" on="1"/>
        <pt x="393" y="836" on="0"/>
      </contour>
      <contour>
        <pt x="214" y="28" on="1"/>
        <pt x="339" y="28" on="1"/>
        <pt x="389" y="28" on="0"/>
        <pt x="443" y="86" on="0"/>
        <pt x="443" y="137" on="1"/>
        <pt x="443" y="506" on="1"/>
        <pt x="443" y="557" on="0"/>
        <pt x="389" y="615" on="0"/>
        <pt x="339" y="615" on="1"/>
        <pt x="214" y="615" on="1"/>
        <pt x="164" y="615" on="0"/>
        <pt x="110" y="557" on="0"/>
        <pt x="110" y="506" on="1"/>
        <pt x="110" y="137" on="1"/>
        <pt x="110" y="86" on="0"/>
        <pt x="164" y="28" on="0"/>
      </contour>
      <contour>
        <pt x="339" y="0" on="1"/>
        <pt x="214" y="0" on="1"/>
        <pt x="153" y="0" on="0"/>
        <pt x="80" y="74" on="0"/>
        <pt x="80" y="136" on="1"/>
        <pt x="80" y="507" on="1"/>
        <pt x="80" y="569" on="0"/>
        <pt x="153" y="643" on="0"/>
        <pt x="214" y="643" on="1"/>
        <pt x="339" y="643" on="1"/>
        <pt x="400" y="643" on="0"/>
        <pt x="473" y="569" on="0"/>
        <pt x="473" y="507" on="1"/>
        <pt x="473" y="136" on="1"/>
        <pt x="473" y="74" on="0"/>
        <pt x="400" y="0" on="0"/>
      </contour>
    </TTGlyph>
    <TTGlyph name="Omacron" xMin="80" yMin="0" xMax="473" yMax="785">
      <contour>
        <pt x="378" y="757" on="1"/>
        <pt x="174" y="757" on="1"/>
        <pt x="165" y="757" on="0"/>
        <pt x="165" y="765" on="1"/>
        <pt x="165" y="777" on="1"/>
        <pt x="165" y="785" on="0"/>
        <pt x="174" y="785" on="1"/>
        <pt x="378" y="785" on="1"/>
        <pt x="387" y="785" on="0"/>
        <pt x="387" y="777" on="1"/>
        <pt x="387" y="765" on="1"/>
        <pt x="387" y="757" on="0"/>
      </contour>
      <contour>
        <pt x="214" y="28" on="1"/>
        <pt x="339" y="28" on="1"/>
        <pt x="389" y="28" on="0"/>
        <pt x="443" y="86" on="0"/>
        <pt x="443" y="137" on="1"/>
        <pt x="443" y="506" on="1"/>
        <pt x="443" y="557" on="0"/>
        <pt x="389" y="615" on="0"/>
        <pt x="339" y="615" on="1"/>
        <pt x="214" y="615" on="1"/>
        <pt x="164" y="615" on="0"/>
        <pt x="110" y="557" on="0"/>
        <pt x="110" y="506" on="1"/>
        <pt x="110" y="137" on="1"/>
        <pt x="110" y="86" on="0"/>
        <pt x="164" y="28" on="0"/>
      </contour>
      <contour>
        <pt x="339" y="0" on="1"/>
        <pt x="214" y="0" on="1"/>
        <pt x="153" y="0" on="0"/>
        <pt x="80" y="74" on="0"/>
        <pt x="80" y="136" on="1"/>
        <pt x="80" y="507" on="1"/>
        <pt x="80" y="569" on="0"/>
        <pt x="153" y="643" on="0"/>
        <pt x="214" y="643" on="1"/>
        <pt x="339" y="643" on="1"/>
        <pt x="400" y="643" on="0"/>
        <pt x="473" y="569" on="0"/>
        <pt x="473" y="507" on="1"/>
        <pt x="473" y="136" on="1"/>
        <pt x="473" y="74" on="0"/>
        <pt x="400" y="0" on="0"/>
      </contour>
    </TTGlyph>
    <TTGlyph name="Oslash" xMin="49" yMin="0" xMax="503" yMax="643">
      <contour>
        <pt x="473" y="507" on="1"/>
        <pt x="473" y="136" on="1"/>
        <pt x="473" y="74" on="0"/>
        <pt x="400" y="0" on="0"/>
        <pt x="339" y="0" on="1"/>
        <pt x="214" y="0" on="1"/>
        <pt x="136" y="0" on="0"/>
        <pt x="102" y="56" on="1"/>
        <pt x="71" y="13" on="1"/>
        <pt x="65" y="6" on="0"/>
        <pt x="58" y="10" on="1"/>
        <pt x="49" y="16" on="1"/>
        <pt x="43" y="21" on="0"/>
        <pt x="49" y="30" on="1"/>
        <pt x="88" y="84" on="1"/>
        <pt x="80" y="110" on="0"/>
        <pt x="80" y="136" on="1"/>
        <pt x="80" y="507" on="1"/>
        <pt x="80" y="569" on="0"/>
        <pt x="153" y="643" on="0"/>
        <pt x="214" y="643" on="1"/>
        <pt x="339" y="643" on="1"/>
        <pt x="415" y="643" on="0"/>
        <pt x="451" y="588" on="1"/>
        <pt x="481" y="629" on="1"/>
        <pt x="487" y="637" on="0"/>
        <pt x="494" y="633" on="1"/>
        <pt x="503" y="627" on="1"/>
        <pt x="510" y="622" on="0"/>
        <pt x="503" y="613" on="1"/>
        <pt x="465" y="560" on="1"/>
        <pt x="473" y="534" on="0"/>
      </contour>
      <contour>
        <pt x="110" y="506" on="1"/>
        <pt x="110" y="137" on="1"/>
        <pt x="110" y="123" on="0"/>
        <pt x="111" y="116" on="1"/>
        <pt x="432" y="562" on="1"/>
        <pt x="409" y="615" on="0"/>
        <pt x="339" y="615" on="1"/>
        <pt x="214" y="615" on="1"/>
        <pt x="164" y="615" on="0"/>
        <pt x="110" y="557" on="0"/>
      </contour>
      <contour>
        <pt x="443" y="137" on="1"/>
        <pt x="443" y="506" on="1"/>
        <pt x="443" y="521" on="0"/>
        <pt x="442" y="528" on="1"/>
        <pt x="121" y="82" on="1"/>
        <pt x="144" y="28" on="0"/>
        <pt x="214" y="28" on="1"/>
        <pt x="339" y="28" on="1"/>
        <pt x="389" y="28" on="0"/>
        <pt x="443" y="86" on="0"/>
      </contour>
    </TTGlyph>
    <TTGlyph name="Oslashacute" xMin="49" yMin="0" xMax="503" yMax="836">
      <contour>
        <pt x="473" y="507" on="1"/>
        <pt x="473" y="136" on="1"/>
        <pt x="473" y="74" on="0"/>
        <pt x="400" y="0" on="0"/>
        <pt x="339" y="0" on="1"/>
        <pt x="214" y="0" on="1"/>
        <pt x="136" y="0" on="0"/>
        <pt x="102" y="56" on="1"/>
        <pt x="71" y="13" on="1"/>
        <pt x="65" y="6" on="0"/>
        <pt x="58" y="10" on="1"/>
        <pt x="49" y="16" on="1"/>
        <pt x="43" y="21" on="0"/>
        <pt x="49" y="30" on="1"/>
        <pt x="88" y="84" on="1"/>
        <pt x="80" y="110" on="0"/>
        <pt x="80" y="136" on="1"/>
        <pt x="80" y="507" on="1"/>
        <pt x="80" y="569" on="0"/>
        <pt x="153" y="643" on="0"/>
        <pt x="214" y="643" on="1"/>
        <pt x="339" y="643" on="1"/>
        <pt x="415" y="643" on="0"/>
        <pt x="451" y="588" on="1"/>
        <pt x="481" y="629" on="1"/>
        <pt x="487" y="637" on="0"/>
        <pt x="494" y="633" on="1"/>
        <pt x="503" y="627" on="1"/>
        <pt x="510" y="622" on="0"/>
        <pt x="503" y="613" on="1"/>
        <pt x="465" y="560" on="1"/>
        <pt x="473" y="534" on="0"/>
      </contour>
      <contour>
        <pt x="110" y="506" on="1"/>
        <pt x="110" y="137" on="1"/>
        <pt x="110" y="123" on="0"/>
        <pt x="111" y="116" on="1"/>
        <pt x="432" y="562" on="1"/>
        <pt x="409" y="615" on="0"/>
        <pt x="339" y="615" on="1"/>
        <pt x="214" y="615" on="1"/>
        <pt x="164" y="615" on="0"/>
        <pt x="110" y="557" on="0"/>
      </contour>
      <contour>
        <pt x="443" y="137" on="1"/>
        <pt x="443" y="506" on="1"/>
        <pt x="443" y="521" on="0"/>
        <pt x="442" y="528" on="1"/>
        <pt x="121" y="82" on="1"/>
        <pt x="144" y="28" on="0"/>
        <pt x="214" y="28" on="1"/>
        <pt x="339" y="28" on="1"/>
        <pt x="389" y="28" on="0"/>
        <pt x="443" y="86" on="0"/>
      </contour>
      <contour>
        <pt x="271" y="707" on="1"/>
        <pt x="263" y="707" on="1"/>
        <pt x="255" y="707" on="0"/>
        <pt x="260" y="716" on="1"/>
        <pt x="328" y="827" on="1"/>
        <pt x="332" y="836" on="0"/>
        <pt x="343" y="836" on="1"/>
        <pt x="373" y="836" on="1"/>
        <pt x="377" y="836" on="0"/>
        <pt x="380" y="831" on="0"/>
        <pt x="377" y="827" on="1"/>
        <pt x="285" y="715" on="1"/>
        <pt x="279" y="707" on="0"/>
      </contour>
    </TTGlyph>
    <TTGlyph name="Otilde" xMin="80" yMin="0" xMax="473" yMax="831">
      <contour>
        <pt x="277" y="726" on="0"/>
        <pt x="252" y="702" on="0"/>
        <pt x="196" y="702" on="0"/>
        <pt x="173" y="737" on="0"/>
        <pt x="173" y="780" on="1"/>
        <pt x="173" y="819" on="1"/>
        <pt x="173" y="828" on="0"/>
        <pt x="181" y="828" on="1"/>
        <pt x="188" y="828" on="1"/>
        <pt x="196" y="828" on="0"/>
        <pt x="196" y="819" on="1"/>
        <pt x="196" y="781" on="1"/>
        <pt x="196" y="748" on="0"/>
        <pt x="209" y="723" on="0"/>
        <pt x="243" y="723" on="0"/>
        <pt x="256" y="743" on="0"/>
        <pt x="277" y="810" on="0"/>
        <pt x="300" y="831" on="0"/>
        <pt x="356" y="831" on="0"/>
        <pt x="379" y="796" on="0"/>
        <pt x="379" y="753" on="1"/>
        <pt x="379" y="711" on="1"/>
        <pt x="379" y="702" on="0"/>
        <pt x="371" y="702" on="1"/>
        <pt x="364" y="702" on="1"/>
        <pt x="356" y="702" on="0"/>
        <pt x="356" y="711" on="1"/>
        <pt x="356" y="752" on="1"/>
        <pt x="356" y="785" on="0"/>
        <pt x="343" y="810" on="0"/>
        <pt x="305" y="810" on="0"/>
        <pt x="297" y="792" on="1"/>
        <pt x="295" y="787" on="0"/>
      </contour>
      <contour>
        <pt x="214" y="28" on="1"/>
        <pt x="339" y="28" on="1"/>
        <pt x="389" y="28" on="0"/>
        <pt x="443" y="86" on="0"/>
        <pt x="443" y="137" on="1"/>
        <pt x="443" y="506" on="1"/>
        <pt x="443" y="557" on="0"/>
        <pt x="389" y="615" on="0"/>
        <pt x="339" y="615" on="1"/>
        <pt x="214" y="615" on="1"/>
        <pt x="164" y="615" on="0"/>
        <pt x="110" y="557" on="0"/>
        <pt x="110" y="506" on="1"/>
        <pt x="110" y="137" on="1"/>
        <pt x="110" y="86" on="0"/>
        <pt x="164" y="28" on="0"/>
      </contour>
      <contour>
        <pt x="339" y="0" on="1"/>
        <pt x="214" y="0" on="1"/>
        <pt x="153" y="0" on="0"/>
        <pt x="80" y="74" on="0"/>
        <pt x="80" y="136" on="1"/>
        <pt x="80" y="507" on="1"/>
        <pt x="80" y="569" on="0"/>
        <pt x="153" y="643" on="0"/>
        <pt x="214" y="643" on="1"/>
        <pt x="339" y="643" on="1"/>
        <pt x="400" y="643" on="0"/>
        <pt x="473" y="569" on="0"/>
        <pt x="473" y="507" on="1"/>
        <pt x="473" y="136" on="1"/>
        <pt x="473" y="74" on="0"/>
        <pt x="400" y="0" on="0"/>
      </contour>
    </TTGlyph>
    <TTGlyph name="P" xMin="90" yMin="0" xMax="458" yMax="643">
      <contour>
        <pt x="112" y="0" on="1"/>
        <pt x="98" y="0" on="1"/>
        <pt x="90" y="0" on="0"/>
        <pt x="90" y="9" on="1"/>
        <pt x="90" y="634" on="1"/>
        <pt x="90" y="643" on="0"/>
        <pt x="98" y="643" on="1"/>
        <pt x="324" y="643" on="1"/>
        <pt x="385" y="643" on="0"/>
        <pt x="458" y="569" on="0"/>
        <pt x="458" y="507" on="1"/>
        <pt x="458" y="384" on="1"/>
        <pt x="458" y="322" on="0"/>
        <pt x="385" y="248" on="0"/>
        <pt x="324" y="248" on="1"/>
        <pt x="129" y="248" on="1"/>
        <pt x="120" y="248" on="0"/>
        <pt x="120" y="240" on="1"/>
        <pt x="120" y="9" on="1"/>
        <pt x="120" y="0" on="0"/>
      </contour>
      <contour>
        <pt x="129" y="276" on="1"/>
        <pt x="324" y="276" on="1"/>
        <pt x="374" y="276" on="0"/>
        <pt x="428" y="334" on="0"/>
        <pt x="428" y="385" on="1"/>
        <pt x="428" y="506" on="1"/>
        <pt x="428" y="557" on="0"/>
        <pt x="374" y="615" on="0"/>
        <pt x="324" y="615" on="1"/>
        <pt x="129" y="615" on="1"/>
        <pt x="120" y="615" on="0"/>
        <pt x="120" y="607" on="1"/>
        <pt x="120" y="284" on="1"/>
        <pt x="120" y="276" on="0"/>
      </contour>
    </TTGlyph>
    <TTGlyph name="Pi" xMin="40" yMin="0" xMax="550" yMax="643">
      <contour>
        <pt x="172" y="0" on="1"/>
        <pt x="158" y="0" on="1"/>
        <pt x="150" y="0" on="0"/>
        <pt x="150" y="9" on="1"/>
        <pt x="150" y="605" on="1"/>
        <pt x="150" y="613" on="0"/>
        <pt x="141" y="613" on="1"/>
        <pt x="49" y="613" on="1"/>
        <pt x="40" y="613" on="0"/>
        <pt x="40" y="621" on="1"/>
        <pt x="40" y="635" on="1"/>
        <pt x="40" y="643" on="0"/>
        <pt x="49" y="643" on="1"/>
        <pt x="541" y="643" on="1"/>
        <pt x="550" y="643" on="0"/>
        <pt x="550" y="635" on="1"/>
        <pt x="550" y="621" on="1"/>
        <pt x="550" y="613" on="0"/>
        <pt x="541" y="613" on="1"/>
        <pt x="449" y="613" on="1"/>
        <pt x="440" y="613" on="0"/>
        <pt x="440" y="605" on="1"/>
        <pt x="440" y="9" on="1"/>
        <pt x="440" y="0" on="0"/>
        <pt x="432" y="0" on="1"/>
        <pt x="418" y="0" on="1"/>
        <pt x="410" y="0" on="0"/>
        <pt x="410" y="9" on="1"/>
        <pt x="410" y="605" on="1"/>
        <pt x="410" y="613" on="0"/>
        <pt x="401" y="613" on="1"/>
        <pt x="189" y="613" on="1"/>
        <pt x="180" y="613" on="0"/>
        <pt x="180" y="605" on="1"/>
        <pt x="180" y="9" on="1"/>
        <pt x="180" y="0" on="0"/>
      </contour>
    </TTGlyph>
    <TTGlyph name="Q" xMin="80" yMin="-133" xMax="473" yMax="643">
      <contour>
        <pt x="214" y="28" on="1"/>
        <pt x="339" y="28" on="1"/>
        <pt x="389" y="28" on="0"/>
        <pt x="443" y="86" on="0"/>
        <pt x="443" y="137" on="1"/>
        <pt x="443" y="506" on="1"/>
        <pt x="443" y="557" on="0"/>
        <pt x="389" y="615" on="0"/>
        <pt x="339" y="615" on="1"/>
        <pt x="214" y="615" on="1"/>
        <pt x="164" y="615" on="0"/>
        <pt x="110" y="557" on="0"/>
        <pt x="110" y="506" on="1"/>
        <pt x="110" y="137" on="1"/>
        <pt x="110" y="86" on="0"/>
        <pt x="164" y="28" on="0"/>
      </contour>
      <contour>
        <pt x="412" y="-133" on="1"/>
        <pt x="396" y="-133" on="1"/>
        <pt x="387" y="-133" on="0"/>
        <pt x="381" y="-124" on="1"/>
        <pt x="304" y="0" on="1"/>
        <pt x="214" y="0" on="1"/>
        <pt x="153" y="0" on="0"/>
        <pt x="80" y="74" on="0"/>
        <pt x="80" y="136" on="1"/>
        <pt x="80" y="507" on="1"/>
        <pt x="80" y="569" on="0"/>
        <pt x="153" y="643" on="0"/>
        <pt x="214" y="643" on="1"/>
        <pt x="339" y="643" on="1"/>
        <pt x="400" y="643" on="0"/>
        <pt x="473" y="569" on="0"/>
        <pt x="473" y="507" on="1"/>
        <pt x="473" y="136" on="1"/>
        <pt x="473" y="74" on="0"/>
        <pt x="400" y="0" on="0"/>
        <pt x="339" y="0" on="1"/>
        <pt x="416" y="-124" on="1"/>
        <pt x="422" y="-133" on="0"/>
      </contour>
    </TTGlyph>
    <TTGlyph name="R" xMin="90" yMin="0" xMax="469" yMax="643">
      <contour>
        <pt x="112" y="0" on="1"/>
        <pt x="98" y="0" on="1"/>
        <pt x="90" y="0" on="0"/>
        <pt x="90" y="9" on="1"/>
        <pt x="90" y="634" on="1"/>
        <pt x="90" y="643" on="0"/>
        <pt x="98" y="643" on="1"/>
        <pt x="323" y="643" on="1"/>
        <pt x="384" y="643" on="0"/>
        <pt x="457" y="569" on="0"/>
        <pt x="457" y="507" on="1"/>
        <pt x="457" y="407" on="1"/>
        <pt x="457" y="351" on="0"/>
        <pt x="397" y="280" on="0"/>
        <pt x="346" y="273" on="1"/>
        <pt x="346" y="269" on="1"/>
        <pt x="469" y="9" on="1"/>
        <pt x="474" y="0" on="0"/>
        <pt x="465" y="0" on="1"/>
        <pt x="447" y="0" on="1"/>
        <pt x="439" y="0" on="0"/>
        <pt x="434" y="9" on="1"/>
        <pt x="312" y="271" on="1"/>
        <pt x="129" y="271" on="1"/>
        <pt x="120" y="271" on="0"/>
        <pt x="120" y="263" on="1"/>
        <pt x="120" y="9" on="1"/>
        <pt x="120" y="0" on="0"/>
      </contour>
      <contour>
        <pt x="129" y="299" on="1"/>
        <pt x="323" y="299" on="1"/>
        <pt x="373" y="299" on="0"/>
        <pt x="427" y="357" on="0"/>
        <pt x="427" y="408" on="1"/>
        <pt x="427" y="506" on="1"/>
        <pt x="427" y="557" on="0"/>
        <pt x="373" y="615" on="0"/>
        <pt x="323" y="615" on="1"/>
        <pt x="129" y="615" on="1"/>
        <pt x="120" y="615" on="0"/>
        <pt x="120" y="607" on="1"/>
        <pt x="120" y="307" on="1"/>
        <pt x="120" y="299" on="0"/>
      </contour>
    </TTGlyph>
    <TTGlyph name="Racute" xMin="90" yMin="0" xMax="469" yMax="836">
      <contour>
        <pt x="315" y="836" on="1"/>
        <pt x="345" y="836" on="1"/>
        <pt x="349" y="836" on="0"/>
        <pt x="352" y="831" on="0"/>
        <pt x="349" y="827" on="1"/>
        <pt x="257" y="715" on="1"/>
        <pt x="251" y="707" on="0"/>
        <pt x="243" y="707" on="1"/>
        <pt x="235" y="707" on="1"/>
        <pt x="227" y="707" on="0"/>
        <pt x="232" y="716" on="1"/>
        <pt x="300" y="827" on="1"/>
        <pt x="304" y="836" on="0"/>
      </contour>
      <contour>
        <pt x="112" y="0" on="1"/>
        <pt x="98" y="0" on="1"/>
        <pt x="90" y="0" on="0"/>
        <pt x="90" y="9" on="1"/>
        <pt x="90" y="634" on="1"/>
        <pt x="90" y="643" on="0"/>
        <pt x="98" y="643" on="1"/>
        <pt x="323" y="643" on="1"/>
        <pt x="384" y="643" on="0"/>
        <pt x="457" y="569" on="0"/>
        <pt x="457" y="507" on="1"/>
        <pt x="457" y="407" on="1"/>
        <pt x="457" y="351" on="0"/>
        <pt x="397" y="280" on="0"/>
        <pt x="346" y="273" on="1"/>
        <pt x="346" y="269" on="1"/>
        <pt x="469" y="9" on="1"/>
        <pt x="474" y="0" on="0"/>
        <pt x="465" y="0" on="1"/>
        <pt x="447" y="0" on="1"/>
        <pt x="439" y="0" on="0"/>
        <pt x="434" y="9" on="1"/>
        <pt x="312" y="271" on="1"/>
        <pt x="129" y="271" on="1"/>
        <pt x="120" y="271" on="0"/>
        <pt x="120" y="263" on="1"/>
        <pt x="120" y="9" on="1"/>
        <pt x="120" y="0" on="0"/>
      </contour>
      <contour>
        <pt x="129" y="299" on="1"/>
        <pt x="323" y="299" on="1"/>
        <pt x="373" y="299" on="0"/>
        <pt x="427" y="357" on="0"/>
        <pt x="427" y="408" on="1"/>
        <pt x="427" y="506" on="1"/>
        <pt x="427" y="557" on="0"/>
        <pt x="373" y="615" on="0"/>
        <pt x="323" y="615" on="1"/>
        <pt x="129" y="615" on="1"/>
        <pt x="120" y="615" on="0"/>
        <pt x="120" y="607" on="1"/>
        <pt x="120" y="307" on="1"/>
        <pt x="120" y="299" on="0"/>
      </contour>
    </TTGlyph>
    <TTGlyph name="Rcaron" xMin="90" yMin="0" xMax="469" yMax="836">
      <contour>
        <pt x="245" y="707" on="1"/>
        <pt x="232" y="707" on="0"/>
        <pt x="226" y="716" on="1"/>
        <pt x="162" y="825" on="1"/>
        <pt x="155" y="836" on="0"/>
        <pt x="166" y="836" on="1"/>
        <pt x="180" y="836" on="1"/>
        <pt x="188" y="836" on="0"/>
        <pt x="191" y="831" on="1"/>
        <pt x="250" y="726" on="1"/>
        <pt x="309" y="831" on="1"/>
        <pt x="312" y="836" on="0"/>
        <pt x="320" y="836" on="1"/>
        <pt x="334" y="836" on="1"/>
        <pt x="345" y="836" on="0"/>
        <pt x="338" y="825" on="1"/>
        <pt x="274" y="716" on="1"/>
        <pt x="268" y="707" on="0"/>
        <pt x="255" y="707" on="1"/>
      </contour>
      <contour>
        <pt x="112" y="0" on="1"/>
        <pt x="98" y="0" on="1"/>
        <pt x="90" y="0" on="0"/>
        <pt x="90" y="9" on="1"/>
        <pt x="90" y="634" on="1"/>
        <pt x="90" y="643" on="0"/>
        <pt x="98" y="643" on="1"/>
        <pt x="323" y="643" on="1"/>
        <pt x="384" y="643" on="0"/>
        <pt x="457" y="569" on="0"/>
        <pt x="457" y="507" on="1"/>
        <pt x="457" y="407" on="1"/>
        <pt x="457" y="351" on="0"/>
        <pt x="397" y="280" on="0"/>
        <pt x="346" y="273" on="1"/>
        <pt x="346" y="269" on="1"/>
        <pt x="469" y="9" on="1"/>
        <pt x="474" y="0" on="0"/>
        <pt x="465" y="0" on="1"/>
        <pt x="447" y="0" on="1"/>
        <pt x="439" y="0" on="0"/>
        <pt x="434" y="9" on="1"/>
        <pt x="312" y="271" on="1"/>
        <pt x="129" y="271" on="1"/>
        <pt x="120" y="271" on="0"/>
        <pt x="120" y="263" on="1"/>
        <pt x="120" y="9" on="1"/>
        <pt x="120" y="0" on="0"/>
      </contour>
      <contour>
        <pt x="129" y="299" on="1"/>
        <pt x="323" y="299" on="1"/>
        <pt x="373" y="299" on="0"/>
        <pt x="427" y="357" on="0"/>
        <pt x="427" y="408" on="1"/>
        <pt x="427" y="506" on="1"/>
        <pt x="427" y="557" on="0"/>
        <pt x="373" y="615" on="0"/>
        <pt x="323" y="615" on="1"/>
        <pt x="129" y="615" on="1"/>
        <pt x="120" y="615" on="0"/>
        <pt x="120" y="607" on="1"/>
        <pt x="120" y="307" on="1"/>
        <pt x="120" y="299" on="0"/>
      </contour>
    </TTGlyph>
    <TTGlyph name="S" xMin="90" yMin="0" xMax="478" yMax="643">
      <contour>
        <pt x="90" y="136" on="1"/>
        <pt x="90" y="176" on="1"/>
        <pt x="90" y="185" on="0"/>
        <pt x="98" y="185" on="1"/>
        <pt x="112" y="185" on="1"/>
        <pt x="120" y="185" on="0"/>
        <pt x="120" y="176" on="1"/>
        <pt x="120" y="137" on="1"/>
        <pt x="120" y="86" on="0"/>
        <pt x="174" y="28" on="0"/>
        <pt x="224" y="28" on="1"/>
        <pt x="344" y="28" on="1"/>
        <pt x="394" y="28" on="0"/>
        <pt x="448" y="86" on="0"/>
        <pt x="448" y="137" on="1"/>
        <pt x="448" y="187" on="1"/>
        <pt x="448" y="234" on="0"/>
        <pt x="374" y="289" on="0"/>
        <pt x="269" y="314" on="0"/>
        <pt x="164" y="339" on="0"/>
        <pt x="90" y="397" on="0"/>
        <pt x="90" y="447" on="1"/>
        <pt x="90" y="507" on="1"/>
        <pt x="90" y="569" on="0"/>
        <pt x="163" y="643" on="0"/>
        <pt x="224" y="643" on="1"/>
        <pt x="344" y="643" on="1"/>
        <pt x="405" y="643" on="0"/>
        <pt x="478" y="569" on="0"/>
        <pt x="478" y="507" on="1"/>
        <pt x="478" y="477" on="1"/>
        <pt x="478" y="468" on="0"/>
        <pt x="470" y="468" on="1"/>
        <pt x="456" y="468" on="1"/>
        <pt x="448" y="468" on="0"/>
        <pt x="448" y="477" on="1"/>
        <pt x="448" y="506" on="1"/>
        <pt x="448" y="557" on="0"/>
        <pt x="394" y="615" on="0"/>
        <pt x="344" y="615" on="1"/>
        <pt x="224" y="615" on="1"/>
        <pt x="174" y="615" on="0"/>
        <pt x="120" y="557" on="0"/>
        <pt x="120" y="506" on="1"/>
        <pt x="120" y="448" on="1"/>
        <pt x="120" y="374" on="0"/>
        <pt x="246" y="346" on="1"/>
        <pt x="299" y="335" on="0"/>
        <pt x="404" y="308" on="0"/>
        <pt x="478" y="243" on="0"/>
        <pt x="478" y="189" on="1"/>
        <pt x="478" y="136" on="1"/>
        <pt x="478" y="74" on="0"/>
        <pt x="405" y="0" on="0"/>
        <pt x="344" y="0" on="1"/>
        <pt x="224" y="0" on="1"/>
        <pt x="163" y="0" on="0"/>
        <pt x="90" y="74" on="0"/>
      </contour>
    </TTGlyph>
    <TTGlyph name="Sacute" xMin="90" yMin="0" xMax="478" yMax="836">
      <contour>
        <pt x="351" y="836" on="1"/>
        <pt x="381" y="836" on="1"/>
        <pt x="385" y="836" on="0"/>
        <pt x="388" y="831" on="0"/>
        <pt x="385" y="827" on="1"/>
        <pt x="293" y="715" on="1"/>
        <pt x="287" y="707" on="0"/>
        <pt x="279" y="707" on="1"/>
        <pt x="271" y="707" on="1"/>
        <pt x="263" y="707" on="0"/>
        <pt x="268" y="716" on="1"/>
        <pt x="336" y="827" on="1"/>
        <pt x="340" y="836" on="0"/>
      </contour>
      <contour>
        <pt x="90" y="136" on="1"/>
        <pt x="90" y="176" on="1"/>
        <pt x="90" y="185" on="0"/>
        <pt x="98" y="185" on="1"/>
        <pt x="112" y="185" on="1"/>
        <pt x="120" y="185" on="0"/>
        <pt x="120" y="176" on="1"/>
        <pt x="120" y="137" on="1"/>
        <pt x="120" y="86" on="0"/>
        <pt x="174" y="28" on="0"/>
        <pt x="224" y="28" on="1"/>
        <pt x="344" y="28" on="1"/>
        <pt x="394" y="28" on="0"/>
        <pt x="448" y="86" on="0"/>
        <pt x="448" y="137" on="1"/>
        <pt x="448" y="187" on="1"/>
        <pt x="448" y="234" on="0"/>
        <pt x="374" y="289" on="0"/>
        <pt x="269" y="314" on="0"/>
        <pt x="164" y="339" on="0"/>
        <pt x="90" y="397" on="0"/>
        <pt x="90" y="447" on="1"/>
        <pt x="90" y="507" on="1"/>
        <pt x="90" y="569" on="0"/>
        <pt x="163" y="643" on="0"/>
        <pt x="224" y="643" on="1"/>
        <pt x="344" y="643" on="1"/>
        <pt x="405" y="643" on="0"/>
        <pt x="478" y="569" on="0"/>
        <pt x="478" y="507" on="1"/>
        <pt x="478" y="477" on="1"/>
        <pt x="478" y="468" on="0"/>
        <pt x="470" y="468" on="1"/>
        <pt x="456" y="468" on="1"/>
        <pt x="448" y="468" on="0"/>
        <pt x="448" y="477" on="1"/>
        <pt x="448" y="506" on="1"/>
        <pt x="448" y="557" on="0"/>
        <pt x="394" y="615" on="0"/>
        <pt x="344" y="615" on="1"/>
        <pt x="224" y="615" on="1"/>
        <pt x="174" y="615" on="0"/>
        <pt x="120" y="557" on="0"/>
        <pt x="120" y="506" on="1"/>
        <pt x="120" y="448" on="1"/>
        <pt x="120" y="374" on="0"/>
        <pt x="246" y="346" on="1"/>
        <pt x="299" y="335" on="0"/>
        <pt x="404" y="308" on="0"/>
        <pt x="478" y="243" on="0"/>
        <pt x="478" y="189" on="1"/>
        <pt x="478" y="136" on="1"/>
        <pt x="478" y="74" on="0"/>
        <pt x="405" y="0" on="0"/>
        <pt x="344" y="0" on="1"/>
        <pt x="224" y="0" on="1"/>
        <pt x="163" y="0" on="0"/>
        <pt x="90" y="74" on="0"/>
      </contour>
    </TTGlyph>
    <TTGlyph name="Scaron" xMin="90" yMin="0" xMax="478" yMax="836">
      <contour>
        <pt x="279" y="707" on="1"/>
        <pt x="266" y="707" on="0"/>
        <pt x="260" y="716" on="1"/>
        <pt x="196" y="825" on="1"/>
        <pt x="189" y="836" on="0"/>
        <pt x="200" y="836" on="1"/>
        <pt x="214" y="836" on="1"/>
        <pt x="222" y="836" on="0"/>
        <pt x="225" y="831" on="1"/>
        <pt x="284" y="726" on="1"/>
        <pt x="343" y="831" on="1"/>
        <pt x="346" y="836" on="0"/>
        <pt x="354" y="836" on="1"/>
        <pt x="368" y="836" on="1"/>
        <pt x="379" y="836" on="0"/>
        <pt x="372" y="825" on="1"/>
        <pt x="308" y="716" on="1"/>
        <pt x="302" y="707" on="0"/>
        <pt x="289" y="707" on="1"/>
      </contour>
      <contour>
        <pt x="90" y="136" on="1"/>
        <pt x="90" y="176" on="1"/>
        <pt x="90" y="185" on="0"/>
        <pt x="98" y="185" on="1"/>
        <pt x="112" y="185" on="1"/>
        <pt x="120" y="185" on="0"/>
        <pt x="120" y="176" on="1"/>
        <pt x="120" y="137" on="1"/>
        <pt x="120" y="86" on="0"/>
        <pt x="174" y="28" on="0"/>
        <pt x="224" y="28" on="1"/>
        <pt x="344" y="28" on="1"/>
        <pt x="394" y="28" on="0"/>
        <pt x="448" y="86" on="0"/>
        <pt x="448" y="137" on="1"/>
        <pt x="448" y="187" on="1"/>
        <pt x="448" y="234" on="0"/>
        <pt x="374" y="289" on="0"/>
        <pt x="269" y="314" on="0"/>
        <pt x="164" y="339" on="0"/>
        <pt x="90" y="397" on="0"/>
        <pt x="90" y="447" on="1"/>
        <pt x="90" y="507" on="1"/>
        <pt x="90" y="569" on="0"/>
        <pt x="163" y="643" on="0"/>
        <pt x="224" y="643" on="1"/>
        <pt x="344" y="643" on="1"/>
        <pt x="405" y="643" on="0"/>
        <pt x="478" y="569" on="0"/>
        <pt x="478" y="507" on="1"/>
        <pt x="478" y="477" on="1"/>
        <pt x="478" y="468" on="0"/>
        <pt x="470" y="468" on="1"/>
        <pt x="456" y="468" on="1"/>
        <pt x="448" y="468" on="0"/>
        <pt x="448" y="477" on="1"/>
        <pt x="448" y="506" on="1"/>
        <pt x="448" y="557" on="0"/>
        <pt x="394" y="615" on="0"/>
        <pt x="344" y="615" on="1"/>
        <pt x="224" y="615" on="1"/>
        <pt x="174" y="615" on="0"/>
        <pt x="120" y="557" on="0"/>
        <pt x="120" y="506" on="1"/>
        <pt x="120" y="448" on="1"/>
        <pt x="120" y="374" on="0"/>
        <pt x="246" y="346" on="1"/>
        <pt x="299" y="335" on="0"/>
        <pt x="404" y="308" on="0"/>
        <pt x="478" y="243" on="0"/>
        <pt x="478" y="189" on="1"/>
        <pt x="478" y="136" on="1"/>
        <pt x="478" y="74" on="0"/>
        <pt x="405" y="0" on="0"/>
        <pt x="344" y="0" on="1"/>
        <pt x="224" y="0" on="1"/>
        <pt x="163" y="0" on="0"/>
        <pt x="90" y="74" on="0"/>
      </contour>
    </TTGlyph>
    <TTGlyph name="Scircumflex" xMin="90" yMin="0" xMax="478" yMax="836">
      <contour>
        <pt x="368" y="707" on="1"/>
        <pt x="354" y="707" on="1"/>
        <pt x="346" y="707" on="0"/>
        <pt x="343" y="712" on="1"/>
        <pt x="284" y="817" on="1"/>
        <pt x="225" y="712" on="1"/>
        <pt x="222" y="707" on="0"/>
        <pt x="214" y="707" on="1"/>
        <pt x="200" y="707" on="1"/>
        <pt x="189" y="707" on="0"/>
        <pt x="196" y="718" on="1"/>
        <pt x="260" y="827" on="1"/>
        <pt x="266" y="836" on="0"/>
        <pt x="279" y="836" on="1"/>
        <pt x="289" y="836" on="1"/>
        <pt x="302" y="836" on="0"/>
        <pt x="308" y="827" on="1"/>
        <pt x="372" y="718" on="1"/>
        <pt x="379" y="707" on="0"/>
      </contour>
      <contour>
        <pt x="90" y="136" on="1"/>
        <pt x="90" y="176" on="1"/>
        <pt x="90" y="185" on="0"/>
        <pt x="98" y="185" on="1"/>
        <pt x="112" y="185" on="1"/>
        <pt x="120" y="185" on="0"/>
        <pt x="120" y="176" on="1"/>
        <pt x="120" y="137" on="1"/>
        <pt x="120" y="86" on="0"/>
        <pt x="174" y="28" on="0"/>
        <pt x="224" y="28" on="1"/>
        <pt x="344" y="28" on="1"/>
        <pt x="394" y="28" on="0"/>
        <pt x="448" y="86" on="0"/>
        <pt x="448" y="137" on="1"/>
        <pt x="448" y="187" on="1"/>
        <pt x="448" y="234" on="0"/>
        <pt x="374" y="289" on="0"/>
        <pt x="269" y="314" on="0"/>
        <pt x="164" y="339" on="0"/>
        <pt x="90" y="397" on="0"/>
        <pt x="90" y="447" on="1"/>
        <pt x="90" y="507" on="1"/>
        <pt x="90" y="569" on="0"/>
        <pt x="163" y="643" on="0"/>
        <pt x="224" y="643" on="1"/>
        <pt x="344" y="643" on="1"/>
        <pt x="405" y="643" on="0"/>
        <pt x="478" y="569" on="0"/>
        <pt x="478" y="507" on="1"/>
        <pt x="478" y="477" on="1"/>
        <pt x="478" y="468" on="0"/>
        <pt x="470" y="468" on="1"/>
        <pt x="456" y="468" on="1"/>
        <pt x="448" y="468" on="0"/>
        <pt x="448" y="477" on="1"/>
        <pt x="448" y="506" on="1"/>
        <pt x="448" y="557" on="0"/>
        <pt x="394" y="615" on="0"/>
        <pt x="344" y="615" on="1"/>
        <pt x="224" y="615" on="1"/>
        <pt x="174" y="615" on="0"/>
        <pt x="120" y="557" on="0"/>
        <pt x="120" y="506" on="1"/>
        <pt x="120" y="448" on="1"/>
        <pt x="120" y="374" on="0"/>
        <pt x="246" y="346" on="1"/>
        <pt x="299" y="335" on="0"/>
        <pt x="404" y="308" on="0"/>
        <pt x="478" y="243" on="0"/>
        <pt x="478" y="189" on="1"/>
        <pt x="478" y="136" on="1"/>
        <pt x="478" y="74" on="0"/>
        <pt x="405" y="0" on="0"/>
        <pt x="344" y="0" on="1"/>
        <pt x="224" y="0" on="1"/>
        <pt x="163" y="0" on="0"/>
        <pt x="90" y="74" on="0"/>
      </contour>
    </TTGlyph>
    <TTGlyph name="Sigma" xMin="60" yMin="0" xMax="418" yMax="643">
      <contour>
        <pt x="60" y="625" on="1"/>
        <pt x="60" y="635" on="1"/>
        <pt x="60" y="643" on="0"/>
        <pt x="69" y="643" on="1"/>
        <pt x="409" y="643" on="1"/>
        <pt x="418" y="643" on="0"/>
        <pt x="418" y="635" on="1"/>
        <pt x="418" y="622" on="1"/>
        <pt x="418" y="614" on="0"/>
        <pt x="409" y="614" on="1"/>
        <pt x="97" y="614" on="1"/>
        <pt x="97" y="610" on="1"/>
        <pt x="267" y="338" on="1"/>
        <pt x="277" y="322" on="0"/>
        <pt x="267" y="306" on="1"/>
        <pt x="96" y="32" on="1"/>
        <pt x="96" y="28" on="1"/>
        <pt x="409" y="28" on="1"/>
        <pt x="418" y="28" on="0"/>
        <pt x="418" y="18" on="1"/>
        <pt x="418" y="6" on="1"/>
        <pt x="418" y="0" on="0"/>
        <pt x="409" y="0" on="1"/>
        <pt x="69" y="0" on="1"/>
        <pt x="60" y="0" on="0"/>
        <pt x="60" y="8" on="1"/>
        <pt x="60" y="17" on="1"/>
        <pt x="60" y="23" on="0"/>
        <pt x="62" y="27" on="1"/>
        <pt x="241" y="321" on="1"/>
        <pt x="241" y="325" on="1"/>
        <pt x="62" y="615" on="1"/>
        <pt x="60" y="619" on="0"/>
      </contour>
    </TTGlyph>
    <TTGlyph name="T" xMin="20" yMin="0" xMax="394" yMax="643">
      <contour>
        <pt x="214" y="0" on="1"/>
        <pt x="200" y="0" on="1"/>
        <pt x="192" y="0" on="0"/>
        <pt x="192" y="9" on="1"/>
        <pt x="192" y="607" on="1"/>
        <pt x="192" y="615" on="0"/>
        <pt x="183" y="615" on="1"/>
        <pt x="29" y="615" on="1"/>
        <pt x="20" y="615" on="0"/>
        <pt x="20" y="623" on="1"/>
        <pt x="20" y="635" on="1"/>
        <pt x="20" y="643" on="0"/>
        <pt x="29" y="643" on="1"/>
        <pt x="385" y="643" on="1"/>
        <pt x="394" y="643" on="0"/>
        <pt x="394" y="635" on="1"/>
        <pt x="394" y="623" on="1"/>
        <pt x="394" y="615" on="0"/>
        <pt x="385" y="615" on="1"/>
        <pt x="231" y="615" on="1"/>
        <pt x="222" y="615" on="0"/>
        <pt x="222" y="607" on="1"/>
        <pt x="222" y="9" on="1"/>
        <pt x="222" y="0" on="0"/>
      </contour>
    </TTGlyph>
    <TTGlyph name="Tbar" xMin="20" yMin="0" xMax="394" yMax="643">
      <contour>
        <pt x="214" y="0" on="1"/>
        <pt x="200" y="0" on="1"/>
        <pt x="192" y="0" on="0"/>
        <pt x="192" y="9" on="1"/>
        <pt x="192" y="324" on="1"/>
        <pt x="192" y="332" on="0"/>
        <pt x="183" y="332" on="1"/>
        <pt x="79" y="332" on="1"/>
        <pt x="70" y="332" on="0"/>
        <pt x="70" y="340" on="1"/>
        <pt x="70" y="352" on="1"/>
        <pt x="70" y="360" on="0"/>
        <pt x="79" y="360" on="1"/>
        <pt x="183" y="360" on="1"/>
        <pt x="192" y="360" on="0"/>
        <pt x="192" y="368" on="1"/>
        <pt x="192" y="607" on="1"/>
        <pt x="192" y="615" on="0"/>
        <pt x="183" y="615" on="1"/>
        <pt x="29" y="615" on="1"/>
        <pt x="20" y="615" on="0"/>
        <pt x="20" y="623" on="1"/>
        <pt x="20" y="635" on="1"/>
        <pt x="20" y="643" on="0"/>
        <pt x="29" y="643" on="1"/>
        <pt x="385" y="643" on="1"/>
        <pt x="394" y="643" on="0"/>
        <pt x="394" y="635" on="1"/>
        <pt x="394" y="623" on="1"/>
        <pt x="394" y="615" on="0"/>
        <pt x="385" y="615" on="1"/>
        <pt x="231" y="615" on="1"/>
        <pt x="222" y="615" on="0"/>
        <pt x="222" y="607" on="1"/>
        <pt x="222" y="368" on="1"/>
        <pt x="222" y="360" on="0"/>
        <pt x="231" y="360" on="1"/>
        <pt x="345" y="360" on="1"/>
        <pt x="354" y="360" on="0"/>
        <pt x="354" y="352" on="1"/>
        <pt x="354" y="340" on="1"/>
        <pt x="354" y="332" on="0"/>
        <pt x="345" y="332" on="1"/>
        <pt x="231" y="332" on="1"/>
        <pt x="222" y="332" on="0"/>
        <pt x="222" y="324" on="1"/>
        <pt x="222" y="9" on="1"/>
        <pt x="222" y="0" on="0"/>
      </contour>
    </TTGlyph>
    <TTGlyph name="Tcaron" xMin="20" yMin="0" xMax="394" yMax="836">
      <contour>
        <pt x="203" y="707" on="1"/>
        <pt x="190" y="707" on="0"/>
        <pt x="184" y="716" on="1"/>
        <pt x="120" y="825" on="1"/>
        <pt x="113" y="836" on="0"/>
        <pt x="124" y="836" on="1"/>
        <pt x="138" y="836" on="1"/>
        <pt x="146" y="836" on="0"/>
        <pt x="149" y="831" on="1"/>
        <pt x="208" y="726" on="1"/>
        <pt x="267" y="831" on="1"/>
        <pt x="270" y="836" on="0"/>
        <pt x="278" y="836" on="1"/>
        <pt x="292" y="836" on="1"/>
        <pt x="303" y="836" on="0"/>
        <pt x="296" y="825" on="1"/>
        <pt x="232" y="716" on="1"/>
        <pt x="226" y="707" on="0"/>
        <pt x="213" y="707" on="1"/>
      </contour>
      <contour>
        <pt x="214" y="0" on="1"/>
        <pt x="200" y="0" on="1"/>
        <pt x="192" y="0" on="0"/>
        <pt x="192" y="9" on="1"/>
        <pt x="192" y="607" on="1"/>
        <pt x="192" y="615" on="0"/>
        <pt x="183" y="615" on="1"/>
        <pt x="29" y="615" on="1"/>
        <pt x="20" y="615" on="0"/>
        <pt x="20" y="623" on="1"/>
        <pt x="20" y="635" on="1"/>
        <pt x="20" y="643" on="0"/>
        <pt x="29" y="643" on="1"/>
        <pt x="385" y="643" on="1"/>
        <pt x="394" y="643" on="0"/>
        <pt x="394" y="635" on="1"/>
        <pt x="394" y="623" on="1"/>
        <pt x="394" y="615" on="0"/>
        <pt x="385" y="615" on="1"/>
        <pt x="231" y="615" on="1"/>
        <pt x="222" y="615" on="0"/>
        <pt x="222" y="607" on="1"/>
        <pt x="222" y="9" on="1"/>
        <pt x="222" y="0" on="0"/>
      </contour>
    </TTGlyph>
    <TTGlyph name="Thorn" xMin="125" yMin="0" xMax="422" yMax="643">
      <contour>
        <pt x="164" y="161" on="1"/>
        <pt x="288" y="161" on="1"/>
        <pt x="338" y="161" on="0"/>
        <pt x="392" y="219" on="0"/>
        <pt x="392" y="270" on="1"/>
        <pt x="392" y="373" on="1"/>
        <pt x="392" y="424" on="0"/>
        <pt x="338" y="482" on="0"/>
        <pt x="288" y="482" on="1"/>
        <pt x="164" y="482" on="1"/>
        <pt x="155" y="482" on="0"/>
        <pt x="155" y="474" on="1"/>
        <pt x="155" y="169" on="1"/>
        <pt x="155" y="161" on="0"/>
      </contour>
      <contour>
        <pt x="147" y="0" on="1"/>
        <pt x="133" y="0" on="1"/>
        <pt x="125" y="0" on="0"/>
        <pt x="125" y="9" on="1"/>
        <pt x="125" y="634" on="1"/>
        <pt x="125" y="643" on="0"/>
        <pt x="133" y="643" on="1"/>
        <pt x="147" y="643" on="1"/>
        <pt x="155" y="643" on="0"/>
        <pt x="155" y="634" on="1"/>
        <pt x="155" y="518" on="1"/>
        <pt x="155" y="510" on="0"/>
        <pt x="164" y="510" on="1"/>
        <pt x="288" y="510" on="1"/>
        <pt x="349" y="510" on="0"/>
        <pt x="422" y="436" on="0"/>
        <pt x="422" y="374" on="1"/>
        <pt x="422" y="269" on="1"/>
        <pt x="422" y="207" on="0"/>
        <pt x="349" y="133" on="0"/>
        <pt x="288" y="133" on="1"/>
        <pt x="164" y="133" on="1"/>
        <pt x="155" y="133" on="0"/>
        <pt x="155" y="125" on="1"/>
        <pt x="155" y="9" on="1"/>
        <pt x="155" y="0" on="0"/>
      </contour>
    </TTGlyph>
    <TTGlyph name="U" xMin="85" yMin="0" xMax="465" yMax="643">
      <contour>
        <pt x="443" y="643" on="1"/>
        <pt x="457" y="643" on="1"/>
        <pt x="465" y="643" on="0"/>
        <pt x="465" y="635" on="1"/>
        <pt x="465" y="136" on="1"/>
        <pt x="465" y="74" on="0"/>
        <pt x="392" y="0" on="0"/>
        <pt x="331" y="0" on="1"/>
        <pt x="219" y="0" on="1"/>
        <pt x="158" y="0" on="0"/>
        <pt x="85" y="74" on="0"/>
        <pt x="85" y="136" on="1"/>
        <pt x="85" y="634" on="1"/>
        <pt x="85" y="643" on="0"/>
        <pt x="93" y="643" on="1"/>
        <pt x="107" y="643" on="1"/>
        <pt x="115" y="643" on="0"/>
        <pt x="115" y="634" on="1"/>
        <pt x="115" y="137" on="1"/>
        <pt x="115" y="86" on="0"/>
        <pt x="169" y="28" on="0"/>
        <pt x="219" y="28" on="1"/>
        <pt x="331" y="28" on="1"/>
        <pt x="381" y="28" on="0"/>
        <pt x="435" y="86" on="0"/>
        <pt x="435" y="137" on="1"/>
        <pt x="435" y="634" on="1"/>
        <pt x="435" y="643" on="0"/>
      </contour>
    </TTGlyph>
    <TTGlyph name="Uacute" xMin="85" yMin="0" xMax="465" yMax="836">
      <contour>
        <pt x="343" y="836" on="1"/>
        <pt x="373" y="836" on="1"/>
        <pt x="377" y="836" on="0"/>
        <pt x="380" y="831" on="0"/>
        <pt x="377" y="827" on="1"/>
        <pt x="285" y="715" on="1"/>
        <pt x="279" y="707" on="0"/>
        <pt x="271" y="707" on="1"/>
        <pt x="263" y="707" on="1"/>
        <pt x="255" y="707" on="0"/>
        <pt x="260" y="716" on="1"/>
        <pt x="328" y="827" on="1"/>
        <pt x="332" y="836" on="0"/>
      </contour>
      <contour>
        <pt x="443" y="643" on="1"/>
        <pt x="457" y="643" on="1"/>
        <pt x="465" y="643" on="0"/>
        <pt x="465" y="635" on="1"/>
        <pt x="465" y="136" on="1"/>
        <pt x="465" y="74" on="0"/>
        <pt x="392" y="0" on="0"/>
        <pt x="331" y="0" on="1"/>
        <pt x="219" y="0" on="1"/>
        <pt x="158" y="0" on="0"/>
        <pt x="85" y="74" on="0"/>
        <pt x="85" y="136" on="1"/>
        <pt x="85" y="634" on="1"/>
        <pt x="85" y="643" on="0"/>
        <pt x="93" y="643" on="1"/>
        <pt x="107" y="643" on="1"/>
        <pt x="115" y="643" on="0"/>
        <pt x="115" y="634" on="1"/>
        <pt x="115" y="137" on="1"/>
        <pt x="115" y="86" on="0"/>
        <pt x="169" y="28" on="0"/>
        <pt x="219" y="28" on="1"/>
        <pt x="331" y="28" on="1"/>
        <pt x="381" y="28" on="0"/>
        <pt x="435" y="86" on="0"/>
        <pt x="435" y="137" on="1"/>
        <pt x="435" y="634" on="1"/>
        <pt x="435" y="643" on="0"/>
      </contour>
    </TTGlyph>
    <TTGlyph name="Ubreve" xMin="85" yMin="0" xMax="465" yMax="836">
      <contour>
        <pt x="180" y="827" on="1"/>
        <pt x="180" y="836" on="0"/>
        <pt x="188" y="836" on="1"/>
        <pt x="198" y="836" on="1"/>
        <pt x="206" y="836" on="0"/>
        <pt x="206" y="827" on="1"/>
        <pt x="206" y="815" on="1"/>
        <pt x="206" y="768" on="0"/>
        <pt x="236" y="729" on="0"/>
        <pt x="273" y="729" on="1"/>
        <pt x="277" y="729" on="1"/>
        <pt x="316" y="729" on="0"/>
        <pt x="347" y="768" on="0"/>
        <pt x="347" y="815" on="1"/>
        <pt x="347" y="826" on="1"/>
        <pt x="347" y="835" on="0"/>
        <pt x="355" y="835" on="1"/>
        <pt x="363" y="835" on="1"/>
        <pt x="371" y="835" on="0"/>
        <pt x="371" y="826" on="1"/>
        <pt x="371" y="814" on="1"/>
        <pt x="371" y="758" on="0"/>
        <pt x="325" y="707" on="0"/>
        <pt x="277" y="707" on="1"/>
        <pt x="273" y="707" on="1"/>
        <pt x="225" y="707" on="0"/>
        <pt x="180" y="758" on="0"/>
        <pt x="180" y="814" on="1"/>
      </contour>
      <contour>
        <pt x="443" y="643" on="1"/>
        <pt x="457" y="643" on="1"/>
        <pt x="465" y="643" on="0"/>
        <pt x="465" y="635" on="1"/>
        <pt x="465" y="136" on="1"/>
        <pt x="465" y="74" on="0"/>
        <pt x="392" y="0" on="0"/>
        <pt x="331" y="0" on="1"/>
        <pt x="219" y="0" on="1"/>
        <pt x="158" y="0" on="0"/>
        <pt x="85" y="74" on="0"/>
        <pt x="85" y="136" on="1"/>
        <pt x="85" y="634" on="1"/>
        <pt x="85" y="643" on="0"/>
        <pt x="93" y="643" on="1"/>
        <pt x="107" y="643" on="1"/>
        <pt x="115" y="643" on="0"/>
        <pt x="115" y="634" on="1"/>
        <pt x="115" y="137" on="1"/>
        <pt x="115" y="86" on="0"/>
        <pt x="169" y="28" on="0"/>
        <pt x="219" y="28" on="1"/>
        <pt x="331" y="28" on="1"/>
        <pt x="381" y="28" on="0"/>
        <pt x="435" y="86" on="0"/>
        <pt x="435" y="137" on="1"/>
        <pt x="435" y="634" on="1"/>
        <pt x="435" y="643" on="0"/>
      </contour>
    </TTGlyph>
    <TTGlyph name="Ucircumflex" xMin="85" yMin="0" xMax="465" yMax="836">
      <contour>
        <pt x="359" y="707" on="1"/>
        <pt x="345" y="707" on="1"/>
        <pt x="336" y="707" on="0"/>
        <pt x="334" y="712" on="1"/>
        <pt x="275" y="817" on="1"/>
        <pt x="216" y="712" on="1"/>
        <pt x="214" y="707" on="0"/>
        <pt x="205" y="707" on="1"/>
        <pt x="191" y="707" on="1"/>
        <pt x="180" y="707" on="0"/>
        <pt x="187" y="718" on="1"/>
        <pt x="251" y="827" on="1"/>
        <pt x="257" y="836" on="0"/>
        <pt x="270" y="836" on="1"/>
        <pt x="280" y="836" on="1"/>
        <pt x="293" y="836" on="0"/>
        <pt x="299" y="827" on="1"/>
        <pt x="363" y="718" on="1"/>
        <pt x="370" y="707" on="0"/>
      </contour>
      <contour>
        <pt x="443" y="643" on="1"/>
        <pt x="457" y="643" on="1"/>
        <pt x="465" y="643" on="0"/>
        <pt x="465" y="635" on="1"/>
        <pt x="465" y="136" on="1"/>
        <pt x="465" y="74" on="0"/>
        <pt x="392" y="0" on="0"/>
        <pt x="331" y="0" on="1"/>
        <pt x="219" y="0" on="1"/>
        <pt x="158" y="0" on="0"/>
        <pt x="85" y="74" on="0"/>
        <pt x="85" y="136" on="1"/>
        <pt x="85" y="634" on="1"/>
        <pt x="85" y="643" on="0"/>
        <pt x="93" y="643" on="1"/>
        <pt x="107" y="643" on="1"/>
        <pt x="115" y="643" on="0"/>
        <pt x="115" y="634" on="1"/>
        <pt x="115" y="137" on="1"/>
        <pt x="115" y="86" on="0"/>
        <pt x="169" y="28" on="0"/>
        <pt x="219" y="28" on="1"/>
        <pt x="331" y="28" on="1"/>
        <pt x="381" y="28" on="0"/>
        <pt x="435" y="86" on="0"/>
        <pt x="435" y="137" on="1"/>
        <pt x="435" y="634" on="1"/>
        <pt x="435" y="643" on="0"/>
      </contour>
    </TTGlyph>
    <TTGlyph name="Udieresis" xMin="85" yMin="0" xMax="465" yMax="836">
      <contour>
        <pt x="182" y="716" on="1"/>
        <pt x="182" y="827" on="1"/>
        <pt x="182" y="836" on="0"/>
        <pt x="190" y="836" on="1"/>
        <pt x="204" y="836" on="1"/>
        <pt x="212" y="836" on="0"/>
        <pt x="212" y="827" on="1"/>
        <pt x="212" y="716" on="1"/>
        <pt x="212" y="707" on="0"/>
        <pt x="204" y="707" on="1"/>
        <pt x="190" y="707" on="1"/>
        <pt x="182" y="707" on="0"/>
      </contour>
      <contour>
        <pt x="338" y="716" on="1"/>
        <pt x="338" y="827" on="1"/>
        <pt x="338" y="836" on="0"/>
        <pt x="346" y="836" on="1"/>
        <pt x="360" y="836" on="1"/>
        <pt x="368" y="836" on="0"/>
        <pt x="368" y="827" on="1"/>
        <pt x="368" y="716" on="1"/>
        <pt x="368" y="707" on="0"/>
        <pt x="360" y="707" on="1"/>
        <pt x="346" y="707" on="1"/>
        <pt x="338" y="707" on="0"/>
      </contour>
      <contour>
        <pt x="443" y="643" on="1"/>
        <pt x="457" y="643" on="1"/>
        <pt x="465" y="643" on="0"/>
        <pt x="465" y="635" on="1"/>
        <pt x="465" y="136" on="1"/>
        <pt x="465" y="74" on="0"/>
        <pt x="392" y="0" on="0"/>
        <pt x="331" y="0" on="1"/>
        <pt x="219" y="0" on="1"/>
        <pt x="158" y="0" on="0"/>
        <pt x="85" y="74" on="0"/>
        <pt x="85" y="136" on="1"/>
        <pt x="85" y="634" on="1"/>
        <pt x="85" y="643" on="0"/>
        <pt x="93" y="643" on="1"/>
        <pt x="107" y="643" on="1"/>
        <pt x="115" y="643" on="0"/>
        <pt x="115" y="634" on="1"/>
        <pt x="115" y="137" on="1"/>
        <pt x="115" y="86" on="0"/>
        <pt x="169" y="28" on="0"/>
        <pt x="219" y="28" on="1"/>
        <pt x="331" y="28" on="1"/>
        <pt x="381" y="28" on="0"/>
        <pt x="435" y="86" on="0"/>
        <pt x="435" y="137" on="1"/>
        <pt x="435" y="634" on="1"/>
        <pt x="435" y="643" on="0"/>
      </contour>
    </TTGlyph>
    <TTGlyph name="Ugrave" xMin="85" yMin="0" xMax="465" yMax="836">
      <contour>
        <pt x="292" y="707" on="1"/>
        <pt x="284" y="707" on="1"/>
        <pt x="276" y="707" on="0"/>
        <pt x="270" y="715" on="1"/>
        <pt x="178" y="827" on="1"/>
        <pt x="175" y="831" on="0"/>
        <pt x="178" y="836" on="0"/>
        <pt x="182" y="836" on="1"/>
        <pt x="212" y="836" on="1"/>
        <pt x="222" y="836" on="0"/>
        <pt x="227" y="827" on="1"/>
        <pt x="295" y="716" on="1"/>
        <pt x="300" y="707" on="0"/>
      </contour>
      <contour>
        <pt x="443" y="643" on="1"/>
        <pt x="457" y="643" on="1"/>
        <pt x="465" y="643" on="0"/>
        <pt x="465" y="635" on="1"/>
        <pt x="465" y="136" on="1"/>
        <pt x="465" y="74" on="0"/>
        <pt x="392" y="0" on="0"/>
        <pt x="331" y="0" on="1"/>
        <pt x="219" y="0" on="1"/>
        <pt x="158" y="0" on="0"/>
        <pt x="85" y="74" on="0"/>
        <pt x="85" y="136" on="1"/>
        <pt x="85" y="634" on="1"/>
        <pt x="85" y="643" on="0"/>
        <pt x="93" y="643" on="1"/>
        <pt x="107" y="643" on="1"/>
        <pt x="115" y="643" on="0"/>
        <pt x="115" y="634" on="1"/>
        <pt x="115" y="137" on="1"/>
        <pt x="115" y="86" on="0"/>
        <pt x="169" y="28" on="0"/>
        <pt x="219" y="28" on="1"/>
        <pt x="331" y="28" on="1"/>
        <pt x="381" y="28" on="0"/>
        <pt x="435" y="86" on="0"/>
        <pt x="435" y="137" on="1"/>
        <pt x="435" y="634" on="1"/>
        <pt x="435" y="643" on="0"/>
      </contour>
    </TTGlyph>
    <TTGlyph name="Uhungarumlaut" xMin="85" yMin="0" xMax="465" yMax="836">
      <contour>
        <pt x="282" y="836" on="1"/>
        <pt x="304" y="836" on="1"/>
        <pt x="308" y="836" on="0"/>
        <pt x="311" y="831" on="0"/>
        <pt x="308" y="827" on="1"/>
        <pt x="226" y="715" on="1"/>
        <pt x="220" y="707" on="0"/>
        <pt x="213" y="707" on="1"/>
        <pt x="204" y="707" on="1"/>
        <pt x="196" y="707" on="0"/>
        <pt x="201" y="716" on="1"/>
        <pt x="267" y="827" on="1"/>
        <pt x="272" y="836" on="0"/>
      </contour>
      <contour>
        <pt x="398" y="836" on="1"/>
        <pt x="420" y="836" on="1"/>
        <pt x="424" y="836" on="0"/>
        <pt x="427" y="831" on="0"/>
        <pt x="424" y="827" on="1"/>
        <pt x="342" y="715" on="1"/>
        <pt x="336" y="707" on="0"/>
        <pt x="329" y="707" on="1"/>
        <pt x="320" y="707" on="1"/>
        <pt x="312" y="707" on="0"/>
        <pt x="317" y="716" on="1"/>
        <pt x="383" y="827" on="1"/>
        <pt x="388" y="836" on="0"/>
      </contour>
      <contour>
        <pt x="443" y="643" on="1"/>
        <pt x="457" y="643" on="1"/>
        <pt x="465" y="643" on="0"/>
        <pt x="465" y="635" on="1"/>
        <pt x="465" y="136" on="1"/>
        <pt x="465" y="74" on="0"/>
        <pt x="392" y="0" on="0"/>
        <pt x="331" y="0" on="1"/>
        <pt x="219" y="0" on="1"/>
        <pt x="158" y="0" on="0"/>
        <pt x="85" y="74" on="0"/>
        <pt x="85" y="136" on="1"/>
        <pt x="85" y="634" on="1"/>
        <pt x="85" y="643" on="0"/>
        <pt x="93" y="643" on="1"/>
        <pt x="107" y="643" on="1"/>
        <pt x="115" y="643" on="0"/>
        <pt x="115" y="634" on="1"/>
        <pt x="115" y="137" on="1"/>
        <pt x="115" y="86" on="0"/>
        <pt x="169" y="28" on="0"/>
        <pt x="219" y="28" on="1"/>
        <pt x="331" y="28" on="1"/>
        <pt x="381" y="28" on="0"/>
        <pt x="435" y="86" on="0"/>
        <pt x="435" y="137" on="1"/>
        <pt x="435" y="634" on="1"/>
        <pt x="435" y="643" on="0"/>
      </contour>
    </TTGlyph>
    <TTGlyph name="Umacron" xMin="85" yMin="0" xMax="465" yMax="785">
      <contour>
        <pt x="377" y="757" on="1"/>
        <pt x="173" y="757" on="1"/>
        <pt x="164" y="757" on="0"/>
        <pt x="164" y="765" on="1"/>
        <pt x="164" y="777" on="1"/>
        <pt x="164" y="785" on="0"/>
        <pt x="173" y="785" on="1"/>
        <pt x="377" y="785" on="1"/>
        <pt x="386" y="785" on="0"/>
        <pt x="386" y="777" on="1"/>
        <pt x="386" y="765" on="1"/>
        <pt x="386" y="757" on="0"/>
      </contour>
      <contour>
        <pt x="443" y="643" on="1"/>
        <pt x="457" y="643" on="1"/>
        <pt x="465" y="643" on="0"/>
        <pt x="465" y="635" on="1"/>
        <pt x="465" y="136" on="1"/>
        <pt x="465" y="74" on="0"/>
        <pt x="392" y="0" on="0"/>
        <pt x="331" y="0" on="1"/>
        <pt x="219" y="0" on="1"/>
        <pt x="158" y="0" on="0"/>
        <pt x="85" y="74" on="0"/>
        <pt x="85" y="136" on="1"/>
        <pt x="85" y="634" on="1"/>
        <pt x="85" y="643" on="0"/>
        <pt x="93" y="643" on="1"/>
        <pt x="107" y="643" on="1"/>
        <pt x="115" y="643" on="0"/>
        <pt x="115" y="634" on="1"/>
        <pt x="115" y="137" on="1"/>
        <pt x="115" y="86" on="0"/>
        <pt x="169" y="28" on="0"/>
        <pt x="219" y="28" on="1"/>
        <pt x="331" y="28" on="1"/>
        <pt x="381" y="28" on="0"/>
        <pt x="435" y="86" on="0"/>
        <pt x="435" y="137" on="1"/>
        <pt x="435" y="634" on="1"/>
        <pt x="435" y="643" on="0"/>
      </contour>
    </TTGlyph>
    <TTGlyph name="Uogonek" xMin="85" yMin="-101" xMax="465" yMax="643">
      <contour>
        <pt x="443" y="643" on="1"/>
        <pt x="457" y="643" on="1"/>
        <pt x="465" y="643" on="0"/>
        <pt x="465" y="635" on="1"/>
        <pt x="465" y="136" on="1"/>
        <pt x="465" y="74" on="0"/>
        <pt x="392" y="0" on="0"/>
        <pt x="331" y="0" on="1"/>
        <pt x="310" y="0" on="1"/>
        <pt x="253" y="-74" on="1"/>
        <pt x="291" y="-74" on="1"/>
        <pt x="320" y="-74" on="0"/>
        <pt x="320" y="-84" on="1"/>
        <pt x="320" y="-101" on="0"/>
        <pt x="253" y="-101" on="1"/>
        <pt x="230" y="-101" on="0"/>
        <pt x="217" y="-79" on="0"/>
        <pt x="229" y="-66" on="1"/>
        <pt x="281" y="0" on="1"/>
        <pt x="219" y="0" on="1"/>
        <pt x="158" y="0" on="0"/>
        <pt x="85" y="74" on="0"/>
        <pt x="85" y="136" on="1"/>
        <pt x="85" y="634" on="1"/>
        <pt x="85" y="643" on="0"/>
        <pt x="93" y="643" on="1"/>
        <pt x="107" y="643" on="1"/>
        <pt x="115" y="643" on="0"/>
        <pt x="115" y="634" on="1"/>
        <pt x="115" y="137" on="1"/>
        <pt x="115" y="86" on="0"/>
        <pt x="169" y="28" on="0"/>
        <pt x="219" y="28" on="1"/>
        <pt x="331" y="28" on="1"/>
        <pt x="381" y="28" on="0"/>
        <pt x="435" y="86" on="0"/>
        <pt x="435" y="137" on="1"/>
        <pt x="435" y="634" on="1"/>
        <pt x="435" y="643" on="0"/>
      </contour>
    </TTGlyph>
    <TTGlyph name="Uring" xMin="85" yMin="0" xMax="465" yMax="871">
      <contour>
        <pt x="279" y="692" on="1"/>
        <pt x="269" y="692" on="1"/>
        <pt x="232" y="692" on="0"/>
        <pt x="193" y="733" on="0"/>
        <pt x="193" y="771" on="1"/>
        <pt x="193" y="793" on="1"/>
        <pt x="193" y="831" on="0"/>
        <pt x="232" y="871" on="0"/>
        <pt x="269" y="871" on="1"/>
        <pt x="279" y="871" on="1"/>
        <pt x="316" y="871" on="0"/>
        <pt x="357" y="830" on="0"/>
        <pt x="357" y="793" on="1"/>
        <pt x="357" y="771" on="1"/>
        <pt x="357" y="734" on="0"/>
        <pt x="316" y="692" on="0"/>
      </contour>
      <contour>
        <pt x="269" y="715" on="1"/>
        <pt x="279" y="715" on="1"/>
        <pt x="332" y="715" on="0"/>
        <pt x="332" y="772" on="1"/>
        <pt x="332" y="792" on="1"/>
        <pt x="332" y="848" on="0"/>
        <pt x="279" y="848" on="1"/>
        <pt x="269" y="848" on="1"/>
        <pt x="217" y="848" on="0"/>
        <pt x="217" y="792" on="1"/>
        <pt x="217" y="772" on="1"/>
        <pt x="217" y="715" on="0"/>
      </contour>
      <contour>
        <pt x="443" y="643" on="1"/>
        <pt x="457" y="643" on="1"/>
        <pt x="465" y="643" on="0"/>
        <pt x="465" y="635" on="1"/>
        <pt x="465" y="136" on="1"/>
        <pt x="465" y="74" on="0"/>
        <pt x="392" y="0" on="0"/>
        <pt x="331" y="0" on="1"/>
        <pt x="219" y="0" on="1"/>
        <pt x="158" y="0" on="0"/>
        <pt x="85" y="74" on="0"/>
        <pt x="85" y="136" on="1"/>
        <pt x="85" y="634" on="1"/>
        <pt x="85" y="643" on="0"/>
        <pt x="93" y="643" on="1"/>
        <pt x="107" y="643" on="1"/>
        <pt x="115" y="643" on="0"/>
        <pt x="115" y="634" on="1"/>
        <pt x="115" y="137" on="1"/>
        <pt x="115" y="86" on="0"/>
        <pt x="169" y="28" on="0"/>
        <pt x="219" y="28" on="1"/>
        <pt x="331" y="28" on="1"/>
        <pt x="381" y="28" on="0"/>
        <pt x="435" y="86" on="0"/>
        <pt x="435" y="137" on="1"/>
        <pt x="435" y="634" on="1"/>
        <pt x="435" y="643" on="0"/>
      </contour>
    </TTGlyph>
    <TTGlyph name="Utilde" xMin="85" yMin="0" xMax="465" yMax="831">
      <contour>
        <pt x="276" y="726" on="0"/>
        <pt x="251" y="702" on="0"/>
        <pt x="195" y="702" on="0"/>
        <pt x="172" y="737" on="0"/>
        <pt x="172" y="780" on="1"/>
        <pt x="172" y="819" on="1"/>
        <pt x="172" y="828" on="0"/>
        <pt x="180" y="828" on="1"/>
        <pt x="187" y="828" on="1"/>
        <pt x="195" y="828" on="0"/>
        <pt x="195" y="819" on="1"/>
        <pt x="195" y="781" on="1"/>
        <pt x="195" y="748" on="0"/>
        <pt x="208" y="723" on="0"/>
        <pt x="242" y="723" on="0"/>
        <pt x="255" y="743" on="0"/>
        <pt x="276" y="810" on="0"/>
        <pt x="299" y="831" on="0"/>
        <pt x="355" y="831" on="0"/>
        <pt x="378" y="796" on="0"/>
        <pt x="378" y="753" on="1"/>
        <pt x="378" y="711" on="1"/>
        <pt x="378" y="702" on="0"/>
        <pt x="370" y="702" on="1"/>
        <pt x="363" y="702" on="1"/>
        <pt x="355" y="702" on="0"/>
        <pt x="355" y="711" on="1"/>
        <pt x="355" y="752" on="1"/>
        <pt x="355" y="785" on="0"/>
        <pt x="342" y="810" on="0"/>
        <pt x="304" y="810" on="0"/>
        <pt x="296" y="792" on="1"/>
        <pt x="294" y="787" on="0"/>
      </contour>
      <contour>
        <pt x="443" y="643" on="1"/>
        <pt x="457" y="643" on="1"/>
        <pt x="465" y="643" on="0"/>
        <pt x="465" y="635" on="1"/>
        <pt x="465" y="136" on="1"/>
        <pt x="465" y="74" on="0"/>
        <pt x="392" y="0" on="0"/>
        <pt x="331" y="0" on="1"/>
        <pt x="219" y="0" on="1"/>
        <pt x="158" y="0" on="0"/>
        <pt x="85" y="74" on="0"/>
        <pt x="85" y="136" on="1"/>
        <pt x="85" y="634" on="1"/>
        <pt x="85" y="643" on="0"/>
        <pt x="93" y="643" on="1"/>
        <pt x="107" y="643" on="1"/>
        <pt x="115" y="643" on="0"/>
        <pt x="115" y="634" on="1"/>
        <pt x="115" y="137" on="1"/>
        <pt x="115" y="86" on="0"/>
        <pt x="169" y="28" on="0"/>
        <pt x="219" y="28" on="1"/>
        <pt x="331" y="28" on="1"/>
        <pt x="381" y="28" on="0"/>
        <pt x="435" y="86" on="0"/>
        <pt x="435" y="137" on="1"/>
        <pt x="435" y="634" on="1"/>
        <pt x="435" y="643" on="0"/>
      </contour>
    </TTGlyph>
    <TTGlyph name="V" xMin="31" yMin="0" xMax="463" yMax="643">
      <contour>
        <pt x="259" y="0" on="1"/>
        <pt x="235" y="0" on="1"/>
        <pt x="228" y="0" on="0"/>
        <pt x="225" y="9" on="1"/>
        <pt x="31" y="634" on="1"/>
        <pt x="28" y="643" on="0"/>
        <pt x="37" y="643" on="1"/>
        <pt x="52" y="643" on="1"/>
        <pt x="59" y="643" on="0"/>
        <pt x="62" y="634" on="1"/>
        <pt x="245" y="44" on="1"/>
        <pt x="249" y="44" on="1"/>
        <pt x="432" y="634" on="1"/>
        <pt x="435" y="643" on="0"/>
        <pt x="442" y="643" on="1"/>
        <pt x="457" y="643" on="1"/>
        <pt x="466" y="643" on="0"/>
        <pt x="463" y="634" on="1"/>
        <pt x="269" y="9" on="1"/>
        <pt x="266" y="0" on="0"/>
      </contour>
    </TTGlyph>
    <TTGlyph name="W" xMin="36" yMin="0" xMax="754" yMax="643">
      <contour>
        <pt x="219" y="0" on="1"/>
        <pt x="192" y="0" on="1"/>
        <pt x="184" y="0" on="0"/>
        <pt x="181" y="9" on="1"/>
        <pt x="36" y="634" on="1"/>
        <pt x="34" y="643" on="0"/>
        <pt x="44" y="643" on="1"/>
        <pt x="58" y="643" on="1"/>
        <pt x="65" y="643" on="0"/>
        <pt x="68" y="634" on="1"/>
        <pt x="203" y="38" on="1"/>
        <pt x="207" y="38" on="1"/>
        <pt x="374" y="634" on="1"/>
        <pt x="377" y="643" on="0"/>
        <pt x="385" y="643" on="1"/>
        <pt x="404" y="643" on="1"/>
        <pt x="412" y="643" on="0"/>
        <pt x="415" y="634" on="1"/>
        <pt x="583" y="38" on="1"/>
        <pt x="587" y="38" on="1"/>
        <pt x="722" y="634" on="1"/>
        <pt x="724" y="643" on="0"/>
        <pt x="733" y="643" on="1"/>
        <pt x="748" y="643" on="1"/>
        <pt x="757" y="643" on="0"/>
        <pt x="754" y="634" on="1"/>
        <pt x="609" y="9" on="1"/>
        <pt x="607" y="0" on="0"/>
        <pt x="599" y="0" on="1"/>
        <pt x="572" y="0" on="1"/>
        <pt x="564" y="0" on="0"/>
        <pt x="561" y="9" on="1"/>
        <pt x="397" y="599" on="1"/>
        <pt x="393" y="599" on="1"/>
        <pt x="229" y="9" on="1"/>
        <pt x="226" y="0" on="0"/>
      </contour>
    </TTGlyph>
    <TTGlyph name="Wacute" xMin="36" yMin="0" xMax="754" yMax="836">
      <contour>
        <pt x="473" y="836" on="1"/>
        <pt x="503" y="836" on="1"/>
        <pt x="507" y="836" on="0"/>
        <pt x="510" y="831" on="0"/>
        <pt x="507" y="827" on="1"/>
        <pt x="415" y="715" on="1"/>
        <pt x="409" y="707" on="0"/>
        <pt x="401" y="707" on="1"/>
        <pt x="393" y="707" on="1"/>
        <pt x="385" y="707" on="0"/>
        <pt x="390" y="716" on="1"/>
        <pt x="458" y="827" on="1"/>
        <pt x="462" y="836" on="0"/>
      </contour>
      <contour>
        <pt x="219" y="0" on="1"/>
        <pt x="192" y="0" on="1"/>
        <pt x="184" y="0" on="0"/>
        <pt x="181" y="9" on="1"/>
        <pt x="36" y="634" on="1"/>
        <pt x="34" y="643" on="0"/>
        <pt x="44" y="643" on="1"/>
        <pt x="58" y="643" on="1"/>
        <pt x="65" y="643" on="0"/>
        <pt x="68" y="634" on="1"/>
        <pt x="203" y="38" on="1"/>
        <pt x="207" y="38" on="1"/>
        <pt x="374" y="634" on="1"/>
        <pt x="377" y="643" on="0"/>
        <pt x="385" y="643" on="1"/>
        <pt x="404" y="643" on="1"/>
        <pt x="412" y="643" on="0"/>
        <pt x="415" y="634" on="1"/>
        <pt x="583" y="38" on="1"/>
        <pt x="587" y="38" on="1"/>
        <pt x="722" y="634" on="1"/>
        <pt x="724" y="643" on="0"/>
        <pt x="733" y="643" on="1"/>
        <pt x="748" y="643" on="1"/>
        <pt x="757" y="643" on="0"/>
        <pt x="754" y="634" on="1"/>
        <pt x="609" y="9" on="1"/>
        <pt x="607" y="0" on="0"/>
        <pt x="599" y="0" on="1"/>
        <pt x="572" y="0" on="1"/>
        <pt x="564" y="0" on="0"/>
        <pt x="561" y="9" on="1"/>
        <pt x="397" y="599" on="1"/>
        <pt x="393" y="599" on="1"/>
        <pt x="229" y="9" on="1"/>
        <pt x="226" y="0" on="0"/>
      </contour>
    </TTGlyph>
    <TTGlyph name="Wcircumflex" xMin="36" yMin="0" xMax="754" yMax="836">
      <contour>
        <pt x="479" y="707" on="1"/>
        <pt x="465" y="707" on="1"/>
        <pt x="456" y="707" on="0"/>
        <pt x="454" y="712" on="1"/>
        <pt x="395" y="817" on="1"/>
        <pt x="336" y="712" on="1"/>
        <pt x="334" y="707" on="0"/>
        <pt x="325" y="707" on="1"/>
        <pt x="311" y="707" on="1"/>
        <pt x="300" y="707" on="0"/>
        <pt x="307" y="718" on="1"/>
        <pt x="371" y="827" on="1"/>
        <pt x="377" y="836" on="0"/>
        <pt x="390" y="836" on="1"/>
        <pt x="400" y="836" on="1"/>
        <pt x="413" y="836" on="0"/>
        <pt x="419" y="827" on="1"/>
        <pt x="483" y="718" on="1"/>
        <pt x="490" y="707" on="0"/>
      </contour>
      <contour>
        <pt x="219" y="0" on="1"/>
        <pt x="192" y="0" on="1"/>
        <pt x="184" y="0" on="0"/>
        <pt x="181" y="9" on="1"/>
        <pt x="36" y="634" on="1"/>
        <pt x="34" y="643" on="0"/>
        <pt x="44" y="643" on="1"/>
        <pt x="58" y="643" on="1"/>
        <pt x="65" y="643" on="0"/>
        <pt x="68" y="634" on="1"/>
        <pt x="203" y="38" on="1"/>
        <pt x="207" y="38" on="1"/>
        <pt x="374" y="634" on="1"/>
        <pt x="377" y="643" on="0"/>
        <pt x="385" y="643" on="1"/>
        <pt x="404" y="643" on="1"/>
        <pt x="412" y="643" on="0"/>
        <pt x="415" y="634" on="1"/>
        <pt x="583" y="38" on="1"/>
        <pt x="587" y="38" on="1"/>
        <pt x="722" y="634" on="1"/>
        <pt x="724" y="643" on="0"/>
        <pt x="733" y="643" on="1"/>
        <pt x="748" y="643" on="1"/>
        <pt x="757" y="643" on="0"/>
        <pt x="754" y="634" on="1"/>
        <pt x="609" y="9" on="1"/>
        <pt x="607" y="0" on="0"/>
        <pt x="599" y="0" on="1"/>
        <pt x="572" y="0" on="1"/>
        <pt x="564" y="0" on="0"/>
        <pt x="561" y="9" on="1"/>
        <pt x="397" y="599" on="1"/>
        <pt x="393" y="599" on="1"/>
        <pt x="229" y="9" on="1"/>
        <pt x="226" y="0" on="0"/>
      </contour>
    </TTGlyph>
    <TTGlyph name="Wdieresis" xMin="36" yMin="0" xMax="754" yMax="836">
      <contour>
        <pt x="302" y="716" on="1"/>
        <pt x="302" y="827" on="1"/>
        <pt x="302" y="836" on="0"/>
        <pt x="310" y="836" on="1"/>
        <pt x="324" y="836" on="1"/>
        <pt x="332" y="836" on="0"/>
        <pt x="332" y="827" on="1"/>
        <pt x="332" y="716" on="1"/>
        <pt x="332" y="707" on="0"/>
        <pt x="324" y="707" on="1"/>
        <pt x="310" y="707" on="1"/>
        <pt x="302" y="707" on="0"/>
      </contour>
      <contour>
        <pt x="458" y="716" on="1"/>
        <pt x="458" y="827" on="1"/>
        <pt x="458" y="836" on="0"/>
        <pt x="466" y="836" on="1"/>
        <pt x="480" y="836" on="1"/>
        <pt x="488" y="836" on="0"/>
        <pt x="488" y="827" on="1"/>
        <pt x="488" y="716" on="1"/>
        <pt x="488" y="707" on="0"/>
        <pt x="480" y="707" on="1"/>
        <pt x="466" y="707" on="1"/>
        <pt x="458" y="707" on="0"/>
      </contour>
      <contour>
        <pt x="219" y="0" on="1"/>
        <pt x="192" y="0" on="1"/>
        <pt x="184" y="0" on="0"/>
        <pt x="181" y="9" on="1"/>
        <pt x="36" y="634" on="1"/>
        <pt x="34" y="643" on="0"/>
        <pt x="44" y="643" on="1"/>
        <pt x="58" y="643" on="1"/>
        <pt x="65" y="643" on="0"/>
        <pt x="68" y="634" on="1"/>
        <pt x="203" y="38" on="1"/>
        <pt x="207" y="38" on="1"/>
        <pt x="374" y="634" on="1"/>
        <pt x="377" y="643" on="0"/>
        <pt x="385" y="643" on="1"/>
        <pt x="404" y="643" on="1"/>
        <pt x="412" y="643" on="0"/>
        <pt x="415" y="634" on="1"/>
        <pt x="583" y="38" on="1"/>
        <pt x="587" y="38" on="1"/>
        <pt x="722" y="634" on="1"/>
        <pt x="724" y="643" on="0"/>
        <pt x="733" y="643" on="1"/>
        <pt x="748" y="643" on="1"/>
        <pt x="757" y="643" on="0"/>
        <pt x="754" y="634" on="1"/>
        <pt x="609" y="9" on="1"/>
        <pt x="607" y="0" on="0"/>
        <pt x="599" y="0" on="1"/>
        <pt x="572" y="0" on="1"/>
        <pt x="564" y="0" on="0"/>
        <pt x="561" y="9" on="1"/>
        <pt x="397" y="599" on="1"/>
        <pt x="393" y="599" on="1"/>
        <pt x="229" y="9" on="1"/>
        <pt x="226" y="0" on="0"/>
      </contour>
    </TTGlyph>
</ttFont>
